G04*
G04 #@! TF.GenerationSoftware,Altium Limited,Altium Designer,18.0.9 (584)*
G04*
G04 Layer_Physical_Order=2*
G04 Layer_Color=16711680*
%FSLAX25Y25*%
%MOIN*%
G70*
G01*
G75*
%ADD10C,0.01000*%
%ADD27R,0.05118X0.05906*%
%ADD28R,0.05906X0.05118*%
%ADD74C,0.01500*%
%ADD76R,0.06000X0.06000*%
%ADD77C,0.06000*%
%ADD78C,0.03000*%
%ADD79C,0.05000*%
%ADD80R,0.07087X0.03937*%
%ADD81R,0.06102X0.05118*%
%ADD82R,0.05118X0.06102*%
%ADD83R,0.03937X0.02362*%
%ADD84R,0.16535X0.10236*%
%ADD85R,0.10236X0.16535*%
%ADD86R,0.09843X0.04724*%
%ADD87R,0.05512X0.04724*%
%ADD88R,0.04724X0.05512*%
%ADD89R,0.15748X0.15748*%
G04:AMPARAMS|DCode=90|XSize=15.75mil|YSize=53.15mil|CornerRadius=0mil|HoleSize=0mil|Usage=FLASHONLY|Rotation=165.000|XOffset=0mil|YOffset=0mil|HoleType=Round|Shape=Rectangle|*
%AMROTATEDRECTD90*
4,1,4,0.01448,0.02363,0.00073,-0.02771,-0.01448,-0.02363,-0.00073,0.02771,0.01448,0.02363,0.0*
%
%ADD90ROTATEDRECTD90*%

G04:AMPARAMS|DCode=91|XSize=82.68mil|YSize=62.99mil|CornerRadius=0mil|HoleSize=0mil|Usage=FLASHONLY|Rotation=165.000|XOffset=0mil|YOffset=0mil|HoleType=Round|Shape=Rectangle|*
%AMROTATEDRECTD91*
4,1,4,0.04808,0.01972,0.03178,-0.04112,-0.04808,-0.01972,-0.03178,0.04112,0.04808,0.01972,0.0*
%
%ADD91ROTATEDRECTD91*%

G04:AMPARAMS|DCode=92|XSize=70.87mil|YSize=74.8mil|CornerRadius=0mil|HoleSize=0mil|Usage=FLASHONLY|Rotation=165.000|XOffset=0mil|YOffset=0mil|HoleType=Round|Shape=Rectangle|*
%AMROTATEDRECTD92*
4,1,4,0.04391,0.02696,0.02455,-0.04530,-0.04391,-0.02696,-0.02455,0.04530,0.04391,0.02696,0.0*
%
%ADD92ROTATEDRECTD92*%

%ADD93P,0.10579X4X210.0*%
%ADD94R,0.07874X0.02362*%
%ADD95O,0.05906X0.02362*%
%ADD96O,0.05709X0.02165*%
%ADD97O,0.02165X0.05709*%
%ADD98C,0.17000*%
G36*
X364644Y335881D02*
X364644D01*
Y335519D01*
X364644D01*
Y328795D01*
X372156D01*
X372544Y328525D01*
Y326466D01*
X372044Y326199D01*
X371755Y326392D01*
X370942Y326553D01*
X370130Y326392D01*
X369441Y325931D01*
X368981Y325242D01*
X368819Y324430D01*
Y320887D01*
X368981Y320074D01*
X369441Y319385D01*
X370130Y318925D01*
X370942Y318763D01*
X371755Y318925D01*
X372444Y319385D01*
X372591D01*
X373280Y318925D01*
X374092Y318763D01*
X374905Y318925D01*
X375594Y319385D01*
X375740D01*
X376429Y318925D01*
X377242Y318763D01*
X378054Y318925D01*
X378743Y319385D01*
X378890D01*
X379579Y318925D01*
X380391Y318763D01*
X381204Y318925D01*
X381893Y319385D01*
X382039D01*
X382728Y318925D01*
X383541Y318763D01*
X384354Y318925D01*
X385043Y319385D01*
X385189D01*
X385878Y318925D01*
X386690Y318763D01*
X387503Y318925D01*
X388192Y319385D01*
X388339D01*
X389028Y318925D01*
X389840Y318763D01*
X389927Y318780D01*
X390205Y318365D01*
X390145Y318275D01*
X390051Y317800D01*
X392500D01*
Y317300D01*
X393000D01*
Y314850D01*
X393476Y314945D01*
X394302Y315498D01*
X394530Y315839D01*
X395008D01*
X395257Y315392D01*
X395117Y315086D01*
X394866Y314711D01*
X394705Y313898D01*
X394866Y313086D01*
X395327Y312397D01*
Y312250D01*
X394866Y311561D01*
X394787Y311160D01*
X394231Y310930D01*
X394129Y310999D01*
X393446Y311134D01*
X390754D01*
X390371Y311058D01*
X389943Y311468D01*
X389949Y311500D01*
X389755Y312475D01*
X389202Y313302D01*
X388375Y313855D01*
X387900Y313949D01*
Y311500D01*
X387400D01*
Y311000D01*
X384950D01*
X385045Y310525D01*
X385373Y310034D01*
X385105Y309534D01*
X381168D01*
X381048Y310133D01*
X380894Y310363D01*
X380949Y310637D01*
X380755Y311613D01*
X380202Y312440D01*
X379376Y312993D01*
X378400Y313187D01*
X377425Y312993D01*
X376598Y312440D01*
X376045Y311613D01*
X375851Y310637D01*
X376045Y309662D01*
X376463Y309036D01*
X376438Y309012D01*
X376051Y308433D01*
X375916Y307750D01*
X376051Y307067D01*
X376438Y306488D01*
X376594Y306384D01*
X376442Y305884D01*
X372800D01*
X372117Y305749D01*
X371538Y305362D01*
X371151Y304783D01*
X371016Y304100D01*
Y296784D01*
X369226D01*
X368991Y297225D01*
X369066Y297338D01*
X369227Y298150D01*
X369066Y298963D01*
X368815Y299338D01*
X368639Y299725D01*
X368815Y300113D01*
X369066Y300487D01*
X369227Y301300D01*
X369066Y302113D01*
X368605Y302801D01*
Y302948D01*
X369066Y303637D01*
X369227Y304450D01*
X369066Y305262D01*
X368815Y305637D01*
X368639Y306024D01*
X368815Y306412D01*
X369066Y306787D01*
X369227Y307599D01*
X369066Y308412D01*
X368605Y309101D01*
Y309247D01*
X369066Y309936D01*
X369227Y310749D01*
X369066Y311561D01*
X368605Y312250D01*
Y312397D01*
X369066Y313086D01*
X369227Y313898D01*
X369066Y314711D01*
X368815Y315086D01*
X368639Y315473D01*
X368815Y315861D01*
X369066Y316235D01*
X369227Y317048D01*
X369066Y317861D01*
X368605Y318549D01*
X367917Y319010D01*
X367104Y319172D01*
X363561D01*
X362748Y319010D01*
X362059Y318549D01*
X361599Y317861D01*
X361553Y317629D01*
X361053Y317678D01*
Y318506D01*
X361041D01*
X360820Y318954D01*
X360964Y319142D01*
X361317Y319993D01*
X361371Y320407D01*
X354443D01*
X354497Y319993D01*
X354850Y319142D01*
X354994Y318954D01*
X354773Y318506D01*
X353147D01*
Y315446D01*
X357100D01*
Y314446D01*
X353147D01*
Y312472D01*
X352647Y312185D01*
X352459Y312294D01*
Y314601D01*
X345341D01*
Y309342D01*
X344879Y309150D01*
X344434Y309595D01*
Y331407D01*
X345293Y332266D01*
X346507D01*
X347366Y331407D01*
Y329496D01*
X347448Y329082D01*
Y324847D01*
X357191D01*
X357224Y324347D01*
X356993Y324317D01*
X356142Y323964D01*
X355411Y323403D01*
X354850Y322672D01*
X354497Y321821D01*
X354443Y321407D01*
X361371D01*
X361317Y321821D01*
X360964Y322672D01*
X360403Y323403D01*
X359672Y323964D01*
X358821Y324317D01*
X358590Y324347D01*
X358623Y324847D01*
X361259D01*
Y328300D01*
X357700D01*
Y328800D01*
X357200D01*
Y332753D01*
X355275D01*
Y337117D01*
X355617Y337459D01*
X364644D01*
Y335881D01*
D02*
G37*
G36*
X428172Y465119D02*
X437457Y463653D01*
X444626Y462458D01*
X444902Y462041D01*
X439202Y438291D01*
X439199Y438263D01*
X439189Y438236D01*
X435189Y420236D01*
X435188Y420223D01*
X435184Y420211D01*
X430692Y399247D01*
X424123Y371562D01*
X420341Y370187D01*
X420175Y370100D01*
X419997Y370040D01*
X419784Y369897D01*
X419556Y369778D01*
X419417Y369652D01*
X419261Y369547D01*
X419092Y369354D01*
X418903Y369181D01*
X418802Y369022D01*
X418678Y368881D01*
X414678Y362881D01*
X414617Y362757D01*
X414535Y362646D01*
X414423Y362361D01*
X414288Y362087D01*
X414261Y361951D01*
X414210Y361823D01*
X412710Y355822D01*
X412663Y355411D01*
X412609Y355000D01*
Y339833D01*
X412639Y339605D01*
X412640Y339375D01*
X413729Y331388D01*
X413400Y331011D01*
X405957D01*
X405953Y331509D01*
Y332846D01*
X402000D01*
Y333346D01*
X401500D01*
Y336906D01*
X398047D01*
Y333903D01*
X397598Y333602D01*
X397045Y332775D01*
X396951Y332300D01*
X399400D01*
Y331300D01*
X396951D01*
X397045Y330824D01*
X397598Y329998D01*
X397972Y329747D01*
X397985Y329309D01*
X397596Y328983D01*
X397397Y329023D01*
X395940D01*
Y334139D01*
X395940Y334139D01*
X395804Y334822D01*
X395417Y335401D01*
X394451Y336368D01*
X393872Y336754D01*
X393189Y336890D01*
X392514D01*
X391884Y337520D01*
X392075Y337982D01*
X407768D01*
Y350218D01*
X394634D01*
X394050Y350334D01*
X393931D01*
X393780Y350834D01*
X394011Y350989D01*
X394564Y351816D01*
X394625Y352126D01*
X402500D01*
Y360500D01*
X394126D01*
Y355118D01*
X393626Y354851D01*
X393184Y355146D01*
X392209Y355340D01*
X392187Y355336D01*
X386366Y361157D01*
X386558Y361619D01*
X390401D01*
Y363300D01*
X385464D01*
X380527D01*
Y361619D01*
X381505D01*
X381696Y361157D01*
X377244Y356705D01*
X376959Y356279D01*
X376703Y356108D01*
X376151Y355281D01*
X376019Y354619D01*
X375954Y354592D01*
X375272Y354728D01*
X375156D01*
Y356306D01*
X367644D01*
Y354728D01*
X365152D01*
X364630Y355249D01*
Y359816D01*
X368500D01*
X369183Y359951D01*
X369762Y360338D01*
X371042Y361619D01*
X375637D01*
Y365242D01*
X376137Y365576D01*
X376586Y365390D01*
X377000Y365336D01*
Y368300D01*
X374036D01*
X374090Y367886D01*
X374443Y367035D01*
X374868Y366481D01*
X374639Y365981D01*
X365763D01*
Y363384D01*
X364630D01*
Y369874D01*
X358236D01*
X358066Y370374D01*
X358496Y370704D01*
X359057Y371435D01*
X359410Y372286D01*
X359464Y372700D01*
X352536D01*
X352590Y372286D01*
X352943Y371435D01*
X353504Y370704D01*
X353934Y370374D01*
X353764Y369874D01*
X346882D01*
Y369874D01*
X346760Y369872D01*
X346537Y377449D01*
X347055Y378224D01*
X347249Y379200D01*
X347055Y380175D01*
X346502Y381002D01*
X345675Y381555D01*
X344700Y381749D01*
X343724Y381555D01*
X342898Y381002D01*
X342345Y380175D01*
X342151Y379200D01*
X342345Y378224D01*
X342898Y377398D01*
X342970Y377349D01*
X343663Y353851D01*
X343145Y353076D01*
X342951Y352100D01*
X343145Y351125D01*
X343698Y350298D01*
X344525Y349745D01*
X345500Y349551D01*
X346476Y349745D01*
X347302Y350298D01*
X347855Y351125D01*
X348049Y352100D01*
X348070Y352126D01*
X362707D01*
X363151Y351682D01*
X363730Y351295D01*
X364413Y351159D01*
X367644D01*
Y349581D01*
X367644Y349581D01*
Y349219D01*
X367644D01*
X367644Y349081D01*
Y343444D01*
X367138Y343106D01*
X366804Y342605D01*
X364644D01*
Y341028D01*
X354878D01*
X354878Y341028D01*
X354195Y340892D01*
X353616Y340505D01*
X353616Y340505D01*
X352229Y339118D01*
X351842Y338539D01*
X351707Y337856D01*
Y332753D01*
X350814D01*
X350799Y332829D01*
X350412Y333408D01*
X350412Y333408D01*
X348508Y335312D01*
X347929Y335699D01*
X347246Y335834D01*
X344554D01*
X343871Y335699D01*
X343292Y335312D01*
X343292Y335312D01*
X341388Y333408D01*
X341002Y332829D01*
X340866Y332146D01*
Y308856D01*
X341002Y308173D01*
X341388Y307594D01*
X342861Y306122D01*
X342669Y305660D01*
X338643D01*
X337960Y305524D01*
X337381Y305137D01*
X325713Y293469D01*
X325326Y292890D01*
X325190Y292207D01*
Y277214D01*
X323095Y275118D01*
X310232D01*
Y262882D01*
X328768D01*
Y262984D01*
X329608Y263151D01*
X329691Y263207D01*
X330132Y262971D01*
Y262382D01*
X348668D01*
Y266716D01*
X353855D01*
X354249Y266459D01*
Y263400D01*
X362351D01*
Y266459D01*
X362745Y266716D01*
X367185D01*
X367198Y266698D01*
X368024Y266145D01*
X369000Y265951D01*
X369975Y266145D01*
X370802Y266698D01*
X371355Y267525D01*
X371549Y268500D01*
X371355Y269476D01*
X370802Y270302D01*
X369975Y270855D01*
X369000Y271049D01*
X368024Y270855D01*
X367198Y270302D01*
X367185Y270284D01*
X348668D01*
Y274618D01*
X345610D01*
X345560Y274699D01*
X345838Y275199D01*
X352459D01*
Y283302D01*
X352459D01*
X352345Y283578D01*
X354561Y285794D01*
X359156D01*
Y287372D01*
X361857D01*
X362540Y287508D01*
X363118Y287895D01*
X365140Y289917D01*
X365140Y289917D01*
X365527Y290495D01*
X365663Y291178D01*
X365527Y291861D01*
X365182Y292377D01*
X365309Y292849D01*
X365321Y292877D01*
X367104D01*
X367917Y293039D01*
X368181Y293216D01*
X369367D01*
X369519Y292716D01*
X369441Y292664D01*
X369036Y292057D01*
X369024Y292055D01*
X368198Y291502D01*
X367645Y290675D01*
X367550Y290200D01*
X370000D01*
Y289200D01*
X367550D01*
X367645Y288724D01*
X368198Y287898D01*
X368850Y287461D01*
X368981Y286806D01*
X369441Y286117D01*
X370130Y285657D01*
X370443Y285595D01*
Y289391D01*
X371443D01*
Y285595D01*
X371755Y285657D01*
X372444Y286117D01*
X372591D01*
X373280Y285657D01*
X374092Y285495D01*
X374905Y285657D01*
X375594Y286117D01*
X375740D01*
X376161Y285836D01*
X376254Y285221D01*
X375689Y284657D01*
X375167Y284553D01*
X374588Y284166D01*
X374201Y283587D01*
X374066Y282904D01*
Y278527D01*
X373566Y278195D01*
X373118Y278284D01*
X373014D01*
X373002Y278302D01*
X372176Y278855D01*
X371200Y279049D01*
X370224Y278855D01*
X369398Y278302D01*
X368845Y277476D01*
X368759Y277500D01*
X365400D01*
Y274536D01*
X365814Y274590D01*
X366665Y274943D01*
X367396Y275504D01*
X367957Y276235D01*
X368210Y276845D01*
X368690Y276699D01*
X368651Y276500D01*
X368845Y275524D01*
X369398Y274698D01*
X370224Y274145D01*
X371200Y273951D01*
X372176Y274145D01*
X372640Y274455D01*
X377907Y269188D01*
X378486Y268801D01*
X379169Y268666D01*
X386831D01*
X387514Y268801D01*
X388093Y269188D01*
X388712Y269807D01*
X389723D01*
X390198Y269098D01*
X391024Y268545D01*
X392000Y268351D01*
X392975Y268545D01*
X393802Y269098D01*
X394355Y269924D01*
X394506Y270682D01*
X394657Y270908D01*
X394785Y271553D01*
X395300Y271451D01*
X396275Y271645D01*
X397102Y272198D01*
X397548Y272864D01*
X398324Y272345D01*
X399300Y272151D01*
X400276Y272345D01*
X401102Y272898D01*
X401655Y273725D01*
X401849Y274700D01*
X401830Y274796D01*
X402291Y275043D01*
X403416Y273918D01*
Y273414D01*
X403398Y273402D01*
X402845Y272575D01*
X402651Y271600D01*
X402845Y270624D01*
X403398Y269798D01*
X404224Y269245D01*
X405200Y269051D01*
X406176Y269245D01*
X407002Y269798D01*
X407555Y270624D01*
X407749Y271600D01*
X407555Y272575D01*
X407002Y273402D01*
X406984Y273414D01*
Y274657D01*
X406984Y274657D01*
X406848Y275340D01*
X406462Y275918D01*
X401956Y280424D01*
Y282016D01*
X408194D01*
Y281364D01*
X416099D01*
Y281838D01*
X418931D01*
X419467Y281945D01*
X419633Y281108D01*
X420186Y280281D01*
X421013Y279729D01*
X421488Y279634D01*
Y282083D01*
X421988D01*
Y282583D01*
X424438D01*
X424406Y282744D01*
X424867Y282835D01*
X425446Y283222D01*
X425446Y283222D01*
X427979Y285755D01*
X428000Y285751D01*
X428975Y285945D01*
X429802Y286498D01*
X430355Y287325D01*
X430549Y288300D01*
X430355Y289276D01*
X429802Y290102D01*
X428975Y290655D01*
X428000Y290849D01*
X427025Y290655D01*
X426198Y290102D01*
X425645Y289276D01*
X425451Y288300D01*
X425455Y288279D01*
X424102Y286925D01*
X424017Y286982D01*
X423334Y287118D01*
X420642D01*
X420642Y287118D01*
X419959Y286982D01*
X419380Y286595D01*
X419380Y286595D01*
X418192Y285407D01*
X416102D01*
X416099Y285409D01*
Y288057D01*
Y291116D01*
X412147D01*
X408194D01*
Y288057D01*
Y285584D01*
X401956D01*
Y292106D01*
X394864D01*
X394592Y292513D01*
X394799Y293013D01*
X396145D01*
X396828Y292877D01*
X400372D01*
X401184Y293039D01*
X401873Y293499D01*
X402333Y294188D01*
X402495Y295001D01*
X402333Y295813D01*
X401873Y296502D01*
Y296542D01*
X402251Y296941D01*
X404900D01*
Y300500D01*
X405900D01*
Y296941D01*
X409353D01*
Y298495D01*
X412100D01*
Y302054D01*
X412600D01*
Y302554D01*
X416553D01*
Y305187D01*
Y306989D01*
X417052Y307023D01*
X418109Y299270D01*
Y295000D01*
X418224Y294122D01*
X418563Y293304D01*
X419102Y292602D01*
X419804Y292063D01*
X420622Y291724D01*
X421500Y291609D01*
X425000D01*
X425241Y291640D01*
X425484Y291643D01*
X425678Y291698D01*
X425878Y291724D01*
X426102Y291817D01*
X426336Y291883D01*
X426509Y291986D01*
X426696Y292063D01*
X426888Y292211D01*
X427097Y292335D01*
X427238Y292479D01*
X427398Y292602D01*
X427546Y292795D01*
X427715Y292969D01*
X427814Y293144D01*
X427937Y293304D01*
X428030Y293529D01*
X428149Y293741D01*
X429149Y296240D01*
X429173Y296338D01*
X429217Y296428D01*
X430599Y300574D01*
X431908Y302755D01*
X431960Y302875D01*
X432033Y302983D01*
X433533Y305983D01*
X433612Y306211D01*
X433717Y306428D01*
X434633Y309175D01*
X441511Y322439D01*
X441541Y322522D01*
X441587Y322597D01*
X449087Y339097D01*
X449093Y339115D01*
X449103Y339131D01*
X456603Y356131D01*
X456623Y356202D01*
X456659Y356266D01*
X456747Y356626D01*
X456851Y356981D01*
X456853Y357054D01*
X456871Y357125D01*
X457371Y361626D01*
X457367Y361813D01*
X457391Y362000D01*
Y364500D01*
X457358Y364754D01*
X457352Y365011D01*
X457300Y365191D01*
X457276Y365378D01*
X457177Y365615D01*
X457106Y365861D01*
X457009Y366022D01*
X456937Y366196D01*
X456781Y366399D01*
X456648Y366618D01*
X454648Y369118D01*
X454513Y369249D01*
X454398Y369398D01*
X453398Y370398D01*
X453375Y370415D01*
X453357Y370438D01*
X453024Y370685D01*
X452696Y370937D01*
X452669Y370948D01*
X452646Y370965D01*
X452260Y371117D01*
X451878Y371276D01*
X451849Y371279D01*
X451823Y371290D01*
X451191Y371448D01*
X453321Y383800D01*
X466269Y435596D01*
X474414Y462424D01*
X487836Y465109D01*
X501839D01*
X522477Y463143D01*
X545071Y458232D01*
X576759Y447019D01*
X555812Y363230D01*
X550288Y362885D01*
X549899Y362808D01*
X549508Y362743D01*
X549466Y362723D01*
X549420Y362715D01*
X549064Y362540D01*
X548703Y362376D01*
X545681Y360487D01*
X545325Y360854D01*
X545525Y361154D01*
X545719Y362130D01*
X545616Y362649D01*
X554737Y376978D01*
X555076Y377045D01*
X555902Y377598D01*
X556455Y378425D01*
X556649Y379400D01*
X556455Y380376D01*
X555902Y381202D01*
X555076Y381755D01*
X554100Y381949D01*
X553125Y381755D01*
X552298Y381202D01*
X551745Y380376D01*
X551551Y379400D01*
X551670Y378804D01*
X542606Y364566D01*
X542195Y364485D01*
X541368Y363932D01*
X540815Y363105D01*
X540621Y362130D01*
X540815Y361154D01*
X541368Y360327D01*
X542195Y359775D01*
X543170Y359581D01*
X543694Y359685D01*
X543841Y359517D01*
X543959Y359228D01*
X543945Y359208D01*
X543852Y359119D01*
X539852Y354118D01*
X539638Y353765D01*
X539418Y353415D01*
X525440Y322962D01*
X489463Y250508D01*
X489461Y250503D01*
X489458Y250498D01*
X472958Y216998D01*
X472955Y216989D01*
X472950Y216982D01*
X464458Y199499D01*
X457282Y185147D01*
X451094Y187210D01*
X439637Y191195D01*
X434917Y192912D01*
X435067Y193389D01*
X435201Y193353D01*
X436298Y197449D01*
X432392Y198495D01*
X431383Y194729D01*
X430829Y194398D01*
X430778Y194417D01*
X430375Y194646D01*
X430375D01*
Y194646D01*
X431472Y198742D01*
X426894Y199969D01*
X427023Y200452D01*
X426540Y200581D01*
X427767Y205160D01*
X423701Y206249D01*
Y206249D01*
X419606Y207346D01*
X418379Y202768D01*
X417896Y202897D01*
X417767Y202414D01*
X413188Y203641D01*
X412268Y200208D01*
X411690Y200346D01*
X411434Y200775D01*
X412268Y203888D01*
X407879Y205064D01*
X403491Y206239D01*
X402498Y202534D01*
X399286Y203299D01*
X399181Y203310D01*
X399081Y203341D01*
X387581Y205341D01*
X387342Y205351D01*
X387106Y205390D01*
X372520Y205845D01*
X371865Y209451D01*
X370879Y220794D01*
X370903Y220853D01*
X371284Y220850D01*
X371432Y220822D01*
X371896Y220128D01*
X372618Y219645D01*
X373468Y219476D01*
X377012D01*
X377863Y219645D01*
X378584Y220128D01*
X379066Y220849D01*
X379236Y221700D01*
X379101Y222377D01*
X379446Y222607D01*
X381105Y224266D01*
X381491Y224845D01*
X381627Y225527D01*
Y232873D01*
X381491Y233556D01*
X381105Y234134D01*
X380785Y234454D01*
X380977Y234916D01*
X385665D01*
X385912Y234416D01*
X385643Y234065D01*
X385290Y233214D01*
X385236Y232800D01*
X388700D01*
Y232300D01*
X389200D01*
Y228836D01*
X389614Y228890D01*
X390465Y229243D01*
X391196Y229804D01*
X391757Y230535D01*
X392074Y231300D01*
X392358Y231335D01*
X392586Y231288D01*
X392674Y230849D01*
X393156Y230128D01*
X393877Y229645D01*
X394728Y229476D01*
X395555D01*
X395822Y228976D01*
X395787Y228924D01*
X394728D01*
X393877Y228755D01*
X393156Y228273D01*
X392674Y227551D01*
X392505Y226700D01*
X392674Y225849D01*
X393156Y225128D01*
X393877Y224645D01*
X394728Y224476D01*
X398272D01*
X399123Y224645D01*
X399737Y225056D01*
X400150Y224437D01*
X400977Y223884D01*
X401953Y223690D01*
X401974Y223695D01*
X402377Y223292D01*
X402377Y223292D01*
X402956Y222905D01*
X403639Y222769D01*
X411854D01*
X412012Y222600D01*
X415800D01*
Y221600D01*
X412336D01*
X412390Y221186D01*
X412743Y220335D01*
X413304Y219604D01*
X413842Y219191D01*
X413617Y218733D01*
X409384Y219867D01*
X408439Y216342D01*
X413398Y215014D01*
X413269Y214530D01*
X413752Y214401D01*
X412678Y210393D01*
X417154Y209194D01*
X417297Y209727D01*
X417892Y210015D01*
X418812Y209768D01*
X419759Y213301D01*
X420705Y216834D01*
X419785Y217081D01*
X419462Y217167D01*
X418979Y217297D01*
X416007Y218093D01*
X416041Y218601D01*
X416714Y218690D01*
X417565Y219043D01*
X418296Y219604D01*
X418857Y220335D01*
X419210Y221186D01*
X419268Y221630D01*
X419724Y221836D01*
X419850Y221751D01*
X420533Y221616D01*
X420585D01*
X420598Y221598D01*
X421424Y221045D01*
X422400Y220851D01*
X423376Y221045D01*
X423860Y221369D01*
X424346Y221093D01*
X424111Y216324D01*
X423707Y216030D01*
X422383Y216384D01*
X421934Y216505D01*
X421671Y216575D01*
X420724Y213042D01*
X419778Y209509D01*
X420571Y209297D01*
X421021Y209176D01*
X421471Y209056D01*
X423493Y208514D01*
Y208514D01*
X425515Y207972D01*
X425965Y207852D01*
X426415Y207731D01*
X428380Y207205D01*
Y207205D01*
X430909Y206527D01*
X430957Y206067D01*
X430814Y205533D01*
X435290Y204334D01*
X436364Y208342D01*
X437330Y208084D01*
X436256Y204075D01*
X440732Y202876D01*
X441620Y206191D01*
X442116Y206126D01*
Y201726D01*
X441719Y201421D01*
X438620Y202252D01*
X437393Y197673D01*
X436166Y193094D01*
X440072Y192048D01*
X440426Y193371D01*
X440940Y193354D01*
X441045Y192824D01*
X441598Y191998D01*
X442424Y191445D01*
X443400Y191251D01*
X444376Y191445D01*
X445202Y191998D01*
X445755Y192824D01*
X445949Y193800D01*
X445755Y194775D01*
X445684Y194881D01*
Y204622D01*
X446071Y204939D01*
X446625Y204829D01*
X447312Y204966D01*
X452450D01*
X453133Y205101D01*
X453712Y205488D01*
X455193Y206969D01*
X455546D01*
X456229Y207105D01*
X456808Y207492D01*
X456973Y207739D01*
X457504Y207634D01*
X457645Y206925D01*
X458198Y206098D01*
X459024Y205545D01*
X459500Y205451D01*
Y207900D01*
Y210349D01*
X459297Y210309D01*
X458800Y210623D01*
X458768Y210675D01*
X458762Y210742D01*
X459149Y211321D01*
X459284Y212004D01*
Y217585D01*
X459284Y217585D01*
X459149Y218268D01*
X458762Y218847D01*
X458762Y218847D01*
X455915Y221694D01*
Y225538D01*
X455933Y225550D01*
X456485Y226377D01*
X456609Y227000D01*
X457165Y227230D01*
X457357Y227101D01*
X458040Y226966D01*
X458040Y226966D01*
X464419D01*
X464598Y226698D01*
X465424Y226145D01*
X466400Y225951D01*
X467376Y226145D01*
X468202Y226698D01*
X468755Y227524D01*
X468949Y228500D01*
X468755Y229475D01*
X468202Y230302D01*
X467376Y230855D01*
X466400Y231049D01*
X465424Y230855D01*
X464945Y230534D01*
X462885D01*
X462664Y230983D01*
X462857Y231235D01*
X463210Y232086D01*
X463264Y232500D01*
X459800D01*
Y233000D01*
X459300D01*
Y236464D01*
X458886Y236410D01*
X458035Y236057D01*
X457304Y235496D01*
X456743Y234765D01*
X456390Y233914D01*
X456349Y233598D01*
X455875Y233438D01*
X455459Y233854D01*
X454880Y234241D01*
X454197Y234377D01*
X442520D01*
X442502Y234402D01*
X441676Y234955D01*
X440700Y235149D01*
X439724Y234955D01*
X438898Y234402D01*
X438345Y233576D01*
X438151Y232600D01*
X438345Y231625D01*
X438898Y230798D01*
X439444Y230433D01*
X439585Y229846D01*
X439202Y229702D01*
X438376Y230255D01*
X437400Y230449D01*
X436424Y230255D01*
X436034Y229994D01*
X435534Y230261D01*
Y232650D01*
X435534Y232650D01*
X435398Y233333D01*
X435012Y233912D01*
X434433Y234298D01*
X433835Y234417D01*
X433822Y234427D01*
X433638Y234696D01*
X433548Y234904D01*
X434319Y236347D01*
X434863Y238138D01*
X435046Y240000D01*
X434863Y241862D01*
X434319Y243653D01*
X433437Y245304D01*
X432250Y246750D01*
X430803Y247937D01*
X430480Y248110D01*
X430601Y248595D01*
X431194D01*
Y254185D01*
X436366D01*
X437024Y253745D01*
X438000Y253551D01*
X438975Y253745D01*
X439802Y254298D01*
X440355Y255124D01*
X440515Y255930D01*
X440985Y256274D01*
X441100Y256251D01*
X442075Y256445D01*
X442902Y256998D01*
X443455Y257824D01*
X443577Y258438D01*
X452848D01*
Y265162D01*
X441006D01*
Y261330D01*
X440125Y261155D01*
X439922Y261020D01*
X439346Y261134D01*
X436654D01*
X436654Y261134D01*
X435971Y260999D01*
X435392Y260612D01*
X435392Y260612D01*
X435365Y260584D01*
X431194D01*
Y265162D01*
X419717Y265162D01*
X419682D01*
D01*
X419601Y265162D01*
X419465Y265310D01*
X419455Y265330D01*
X419301Y265641D01*
X419610Y266386D01*
X419664Y266800D01*
X412736D01*
X412790Y266386D01*
X413143Y265535D01*
X413642Y264884D01*
X413507Y264384D01*
X397215D01*
X397202Y264402D01*
X396375Y264955D01*
X395400Y265149D01*
X394425Y264955D01*
X394091Y264732D01*
X393650Y264968D01*
Y266742D01*
X390099D01*
Y263183D01*
Y259624D01*
X393650D01*
Y260232D01*
X394091Y260468D01*
X394425Y260245D01*
X395400Y260051D01*
X396375Y260245D01*
X397202Y260798D01*
X397215Y260816D01*
X414085D01*
X414298Y260498D01*
X415125Y259945D01*
X416100Y259751D01*
X417075Y259945D01*
X417902Y260498D01*
X418455Y261325D01*
X418649Y262300D01*
X418455Y263276D01*
X418126Y263768D01*
X417984Y264188D01*
X418229Y264445D01*
X418696Y264804D01*
X418852Y265007D01*
X419352Y264837D01*
X419352Y264769D01*
X419352Y264769D01*
X419352Y264766D01*
Y258438D01*
X425903D01*
X426042Y258254D01*
X425793Y257754D01*
X417376D01*
X417075Y257955D01*
X416100Y258149D01*
X415125Y257955D01*
X414298Y257402D01*
X413745Y256575D01*
X413551Y255600D01*
X413745Y254625D01*
X414298Y253798D01*
X415125Y253245D01*
X416100Y253051D01*
X417075Y253245D01*
X417902Y253798D01*
X418161Y254185D01*
X419352D01*
Y248595D01*
X420399D01*
X420520Y248110D01*
X420196Y247937D01*
X418750Y246750D01*
X417563Y245304D01*
X416681Y243653D01*
X416137Y241862D01*
X415954Y240000D01*
X416137Y238138D01*
X416681Y236347D01*
X417563Y234697D01*
X417949Y234226D01*
X417735Y233774D01*
X399027D01*
X398272Y233924D01*
X394728D01*
X393877Y233755D01*
X393156Y233273D01*
X392697Y232586D01*
X392568Y232572D01*
X392184Y232650D01*
X392110Y233214D01*
X391757Y234065D01*
X391488Y234416D01*
X391735Y234916D01*
X393473D01*
X393877Y234645D01*
X394728Y234476D01*
X398272D01*
X399123Y234645D01*
X399527Y234916D01*
X403670D01*
X404224Y234545D01*
X405200Y234351D01*
X406176Y234545D01*
X407002Y235098D01*
X407555Y235925D01*
X407749Y236900D01*
X407555Y237876D01*
X407002Y238702D01*
X406176Y239255D01*
X405200Y239449D01*
X404224Y239255D01*
X403398Y238702D01*
X403252Y238484D01*
X399527D01*
X399123Y238755D01*
X398272Y238924D01*
X394728D01*
X393877Y238755D01*
X393473Y238484D01*
X378267D01*
X377863Y238755D01*
X377012Y238924D01*
X373468D01*
X372618Y238755D01*
X371896Y238273D01*
X371414Y237551D01*
X371245Y236700D01*
X371414Y235849D01*
X371896Y235127D01*
X372618Y234645D01*
X373426Y234485D01*
X373449Y234399D01*
X373099Y233850D01*
X372618Y233755D01*
X371896Y233273D01*
X371414Y232551D01*
X371245Y231700D01*
X371414Y230849D01*
X371896Y230128D01*
X372618Y229645D01*
X373468Y229476D01*
X377012D01*
X377163Y229506D01*
X377538Y229200D01*
X377163Y228894D01*
X377012Y228924D01*
X373468D01*
X372618Y228755D01*
X371896Y228273D01*
X371414Y227551D01*
X371245Y226700D01*
X371414Y225849D01*
X371896Y225128D01*
X372618Y224645D01*
X373468Y224476D01*
X373477Y223976D01*
X373467Y223923D01*
X372618Y223755D01*
X371896Y223272D01*
X371414Y222551D01*
X371263Y221792D01*
X370757Y221812D01*
X368867Y237408D01*
X368851Y237468D01*
X368850Y237529D01*
X367391Y246766D01*
Y250597D01*
X367853Y250788D01*
X371360Y247281D01*
X371245Y246700D01*
X371414Y245849D01*
X371896Y245128D01*
X372618Y244645D01*
X373468Y244476D01*
X375070D01*
X375338Y243976D01*
X375303Y243924D01*
X373468D01*
X372618Y243755D01*
X371896Y243272D01*
X371414Y242551D01*
X371245Y241700D01*
X371414Y240849D01*
X371896Y240127D01*
X372618Y239645D01*
X373468Y239476D01*
X377012D01*
X377863Y239645D01*
X378584Y240127D01*
X379066Y240849D01*
X379236Y241700D01*
X379120Y242281D01*
X381105Y244266D01*
X381105Y244266D01*
X381491Y244845D01*
X381627Y245527D01*
X381627Y245527D01*
Y252873D01*
X381491Y253555D01*
X381105Y254134D01*
X379446Y255793D01*
X378867Y256180D01*
X378185Y256315D01*
X373408D01*
X372045Y257679D01*
X372049Y257700D01*
X371855Y258676D01*
X371302Y259502D01*
X370476Y260055D01*
X369500Y260249D01*
X368525Y260055D01*
X367698Y259502D01*
X367145Y258676D01*
X367109Y258497D01*
X366631Y258352D01*
X365739Y259243D01*
X365160Y259630D01*
X364478Y259766D01*
X362351D01*
Y262400D01*
X354249D01*
Y259341D01*
X357444D01*
X357666Y258847D01*
X357462Y258584D01*
X330715D01*
X330702Y258602D01*
X329875Y259155D01*
X328900Y259349D01*
X327924Y259155D01*
X327098Y258602D01*
X326545Y257775D01*
X326351Y256800D01*
X326545Y255824D01*
X327098Y254998D01*
X327924Y254445D01*
X328900Y254251D01*
X329875Y254445D01*
X330702Y254998D01*
X330715Y255016D01*
X358341D01*
X359024Y255152D01*
X359602Y255538D01*
X360261Y256197D01*
X363739D01*
X364076Y255860D01*
X363838Y255391D01*
X362000D01*
X361759Y255360D01*
X361516Y255357D01*
X361322Y255302D01*
X361122Y255276D01*
X360898Y255183D01*
X360664Y255117D01*
X360491Y255014D01*
X360304Y254937D01*
X360112Y254789D01*
X359903Y254665D01*
X359762Y254521D01*
X359602Y254398D01*
X359454Y254205D01*
X359285Y254031D01*
X359186Y253856D01*
X359063Y253696D01*
X358970Y253471D01*
X358851Y253259D01*
X357871Y250810D01*
X354407Y242890D01*
X351433Y236447D01*
X345006Y223098D01*
X340077Y214719D01*
X340009Y214560D01*
X339917Y214413D01*
X335096Y203895D01*
X326847Y201832D01*
X320020Y200857D01*
X319865Y200814D01*
X319704Y200797D01*
X305204Y197297D01*
X304984Y197212D01*
X304755Y197154D01*
X285755Y189654D01*
X285555Y189543D01*
X285343Y189459D01*
X272854Y182465D01*
X262866Y176971D01*
X262783Y176910D01*
X262689Y176867D01*
X253189Y170867D01*
X252995Y170705D01*
X252783Y170566D01*
X250673Y168744D01*
X250606Y168751D01*
X250404Y169076D01*
X250359Y169281D01*
X250655Y169725D01*
X250695Y169924D01*
X268532Y182924D01*
X268900Y182851D01*
X269876Y183045D01*
X270702Y183598D01*
X271255Y184424D01*
X271449Y185400D01*
X271255Y186375D01*
X270702Y187202D01*
X269876Y187755D01*
X268900Y187949D01*
X267924Y187755D01*
X267098Y187202D01*
X266545Y186375D01*
X266432Y185810D01*
X249005Y173109D01*
X248300Y173249D01*
X247324Y173055D01*
X246498Y172502D01*
X245945Y171676D01*
X245751Y170700D01*
X245945Y169725D01*
X246498Y168898D01*
X247324Y168345D01*
X248300Y168151D01*
X249275Y168345D01*
X249737Y168653D01*
X250090Y168770D01*
X250180Y168652D01*
X250189Y168326D01*
X243526Y162572D01*
X243059Y162749D01*
X240864Y179427D01*
X238366Y199910D01*
X238343Y200001D01*
X238339Y200094D01*
X234357Y222490D01*
X232369Y239885D01*
X232349Y239965D01*
X232347Y240048D01*
X227864Y267443D01*
X225874Y287337D01*
X225849Y287446D01*
X225845Y287558D01*
X222345Y308558D01*
X222327Y308617D01*
X222322Y308680D01*
X222198Y309040D01*
X222087Y309404D01*
X222054Y309457D01*
X222033Y309517D01*
X219033Y315517D01*
X218919Y315685D01*
X218830Y315868D01*
X218672Y316050D01*
X218537Y316250D01*
X218383Y316383D01*
X218250Y316537D01*
X218050Y316672D01*
X217868Y316830D01*
X217685Y316919D01*
X217517Y317033D01*
X215517Y318033D01*
X215326Y318099D01*
X215147Y318192D01*
X214909Y318243D01*
X214680Y318322D01*
X214479Y318337D01*
X214282Y318379D01*
X208309Y318877D01*
X206631Y319045D01*
X206342Y319453D01*
X209794Y333696D01*
X216793Y362191D01*
X216796Y362215D01*
X216804Y362237D01*
X218304Y368737D01*
X218309Y368787D01*
X218325Y368835D01*
X219314Y373779D01*
X225279Y399129D01*
X229235Y412482D01*
X230464Y416168D01*
X232219Y417923D01*
X243429Y426209D01*
X258650Y436029D01*
X276250Y444340D01*
X291347Y449210D01*
X309043Y452651D01*
X320220Y454109D01*
X330142D01*
X330452Y453717D01*
X325697Y433268D01*
X325696Y433254D01*
X325691Y433242D01*
X319193Y404251D01*
X313196Y378263D01*
X313195Y378255D01*
X313192Y378247D01*
X309783Y363148D01*
X308881Y361344D01*
X301158Y356347D01*
X301056Y356261D01*
X300941Y356195D01*
X300721Y355975D01*
X300484Y355773D01*
X300408Y355664D01*
X300314Y355570D01*
X300158Y355301D01*
X299981Y355045D01*
X299936Y354919D01*
X299870Y354804D01*
X297370Y348804D01*
X297311Y348586D01*
X297224Y348378D01*
X297196Y348161D01*
X297139Y347950D01*
X297138Y347724D01*
X297109Y347500D01*
Y337500D01*
X297127Y337360D01*
X297120Y337218D01*
X298621Y319218D01*
X298630Y319173D01*
X298629Y319126D01*
X300125Y305666D01*
X302109Y282853D01*
Y280000D01*
X302153Y279661D01*
X302178Y279320D01*
X302211Y279224D01*
X302224Y279122D01*
X302355Y278806D01*
X302467Y278483D01*
X302967Y277483D01*
X303024Y277399D01*
X303063Y277304D01*
X303271Y277033D01*
X303463Y276750D01*
X303540Y276683D01*
X303602Y276602D01*
X303873Y276394D01*
X304132Y276170D01*
X304223Y276125D01*
X304304Y276063D01*
X304620Y275932D01*
X304928Y275783D01*
X305028Y275764D01*
X305122Y275724D01*
X305461Y275680D01*
X305797Y275615D01*
X305899Y275622D01*
X306000Y275609D01*
X307000D01*
X307101Y275622D01*
X307203Y275615D01*
X307539Y275680D01*
X307878Y275724D01*
X307972Y275764D01*
X308072Y275783D01*
X309572Y276283D01*
X309782Y276385D01*
X310003Y276460D01*
X310178Y276578D01*
X310368Y276670D01*
X310545Y276823D01*
X310739Y276953D01*
X310878Y277112D01*
X311037Y277250D01*
X311168Y277443D01*
X311322Y277619D01*
X312322Y279119D01*
X312500Y279482D01*
X312687Y279841D01*
X314647Y285230D01*
X320599Y298623D01*
X320601Y298630D01*
X320605Y298637D01*
X326852Y312865D01*
X327341Y312762D01*
Y311050D01*
X330400D01*
Y314601D01*
X328071D01*
X327798Y315019D01*
X329605Y319137D01*
X329618Y319182D01*
X329642Y319224D01*
X336142Y335224D01*
X336147Y335243D01*
X336156Y335260D01*
X341656Y349260D01*
X341703Y349446D01*
X341776Y349622D01*
X341809Y349873D01*
X341870Y350119D01*
X341866Y350310D01*
X341891Y350500D01*
Y358000D01*
X341877Y358109D01*
X341884Y358218D01*
X341819Y358546D01*
X341776Y358878D01*
X341734Y358979D01*
X341712Y359087D01*
X341565Y359387D01*
X341437Y359696D01*
X341370Y359783D01*
X341322Y359881D01*
X340322Y361381D01*
X340270Y361440D01*
X340232Y361510D01*
X339979Y361773D01*
X339739Y362047D01*
X339673Y362091D01*
X339618Y362148D01*
X337119Y364148D01*
X336806Y364337D01*
X336503Y364540D01*
X336428Y364565D01*
X336361Y364606D01*
X336077Y364688D01*
X336351Y367429D01*
X340290Y383677D01*
X348284Y414653D01*
X348285Y414665D01*
X348290Y414677D01*
X354273Y438608D01*
X360195Y458653D01*
X377150Y462669D01*
X383364Y463625D01*
X415043Y465605D01*
X428172Y465119D01*
D02*
G37*
G36*
X339264Y301409D02*
X339340Y301342D01*
Y296172D01*
X339476Y295489D01*
X339500Y295454D01*
X339308Y294991D01*
X339124Y294955D01*
X338298Y294402D01*
X337745Y293576D01*
X337551Y292600D01*
X337745Y291624D01*
X338298Y290798D01*
X338316Y290786D01*
Y283739D01*
X337138Y282562D01*
X336752Y281983D01*
X336688Y281663D01*
X336598Y281602D01*
X336045Y280775D01*
X335851Y279800D01*
X336045Y278824D01*
X336598Y277998D01*
X337424Y277445D01*
X338400Y277251D01*
X339375Y277445D01*
X340202Y277998D01*
X340755Y278824D01*
X340949Y279800D01*
X340755Y280775D01*
X340612Y280989D01*
X341066Y281442D01*
X341566Y281235D01*
Y274618D01*
X330132D01*
Y268041D01*
X329691Y267805D01*
X329608Y267861D01*
X328768Y268028D01*
Y275118D01*
X329234Y275199D01*
X330683D01*
Y279250D01*
Y283302D01*
X328759D01*
Y290448D01*
X329259Y290548D01*
X329486Y290000D01*
X330047Y289269D01*
X330778Y288708D01*
X331629Y288355D01*
X332043Y288301D01*
Y291765D01*
X332543D01*
Y292265D01*
X336007D01*
X335953Y292679D01*
X335600Y293530D01*
X335039Y294261D01*
X334308Y294822D01*
X333456Y295175D01*
X333141Y295216D01*
X332981Y295690D01*
X338871Y301581D01*
X339264Y301409D01*
D02*
G37*
G36*
X444600Y224251D02*
X445076Y224345D01*
X445902Y224898D01*
X446449Y225716D01*
X446501Y225793D01*
X446990Y225883D01*
X448065Y224808D01*
Y219233D01*
X448018Y219202D01*
X447465Y218375D01*
X447347Y217783D01*
X446805Y217618D01*
X446762Y217662D01*
X446183Y218049D01*
X445500Y218184D01*
X442509D01*
X442509Y218184D01*
X442458Y218174D01*
X442196Y218437D01*
X441617Y218824D01*
X440934Y218959D01*
X435534D01*
Y225539D01*
X436034Y225806D01*
X436424Y225545D01*
X437400Y225351D01*
X438376Y225545D01*
X439202Y226098D01*
X439215Y226116D01*
X440101D01*
X440604Y226016D01*
X441287Y226151D01*
X441694Y225983D01*
X441745Y225725D01*
X442298Y224898D01*
X443124Y224345D01*
X443600Y224251D01*
Y226700D01*
X444600D01*
Y224251D01*
D02*
G37*
%LPC*%
G36*
X361259Y332753D02*
X358200D01*
Y329300D01*
X361259D01*
Y332753D01*
D02*
G37*
G36*
X392000Y316800D02*
X390051D01*
X390145Y316324D01*
X390698Y315498D01*
X391525Y314945D01*
X392000Y314850D01*
Y316800D01*
D02*
G37*
G36*
X386900Y313949D02*
X386424Y313855D01*
X385598Y313302D01*
X385045Y312475D01*
X384950Y312000D01*
X386900D01*
Y313949D01*
D02*
G37*
G36*
X491300Y462749D02*
X490324Y462555D01*
X489498Y462002D01*
X488945Y461175D01*
X488792Y460408D01*
X473295Y447210D01*
X473100Y447249D01*
X472124Y447055D01*
X471298Y446502D01*
X470745Y445676D01*
X470551Y444700D01*
X470745Y443724D01*
X471298Y442898D01*
X472124Y442345D01*
X473100Y442151D01*
X474076Y442345D01*
X474902Y442898D01*
X475455Y443724D01*
X475608Y444492D01*
X476336Y445112D01*
X476713Y444777D01*
X476445Y444376D01*
X476350Y443900D01*
X478300D01*
Y445850D01*
X477873Y445765D01*
X477852Y445779D01*
X477739Y446307D01*
X491105Y457690D01*
X491300Y457651D01*
X492275Y457845D01*
X493102Y458398D01*
X493655Y459225D01*
X493849Y460200D01*
X493655Y461175D01*
X493102Y462002D01*
X492275Y462555D01*
X491300Y462749D01*
D02*
G37*
G36*
X393200Y455349D02*
X392225Y455155D01*
X391398Y454602D01*
X390895Y453851D01*
X367465Y445195D01*
X367375Y445255D01*
X366400Y445449D01*
X365424Y445255D01*
X364598Y444702D01*
X364045Y443876D01*
X363851Y442900D01*
X364045Y441924D01*
X364598Y441098D01*
X365424Y440545D01*
X366400Y440351D01*
X367375Y440545D01*
X368202Y441098D01*
X368705Y441849D01*
X392135Y450505D01*
X392225Y450445D01*
X393200Y450251D01*
X394176Y450445D01*
X395002Y450998D01*
X395555Y451825D01*
X395749Y452800D01*
X395555Y453776D01*
X395002Y454602D01*
X394176Y455155D01*
X393200Y455349D01*
D02*
G37*
G36*
X427100Y461749D02*
X426124Y461555D01*
X425298Y461002D01*
X424745Y460176D01*
X424551Y459200D01*
X424745Y458224D01*
X425298Y457398D01*
X425494Y457266D01*
X426558Y446271D01*
X426073Y446098D01*
X425602Y446802D01*
X424776Y447355D01*
X423800Y447549D01*
X422824Y447355D01*
X421998Y446802D01*
X421445Y445975D01*
X421251Y445000D01*
X421445Y444025D01*
X421998Y443198D01*
X422016Y443186D01*
Y428480D01*
X421545Y427775D01*
X421351Y426800D01*
X421545Y425824D01*
X422098Y424998D01*
X422925Y424445D01*
X423900Y424251D01*
X424875Y424445D01*
X425702Y424998D01*
X426255Y425824D01*
X426449Y426800D01*
X426255Y427775D01*
X425702Y428602D01*
X425584Y428681D01*
Y443186D01*
X425602Y443198D01*
X426155Y444025D01*
X426235Y444426D01*
X426740Y444401D01*
X428754Y423587D01*
X428345Y422975D01*
X428151Y422000D01*
X428345Y421025D01*
X428898Y420198D01*
X429725Y419645D01*
X430700Y419451D01*
X431675Y419645D01*
X432502Y420198D01*
X433055Y421025D01*
X433249Y422000D01*
X433055Y422975D01*
X432502Y423802D01*
X432305Y423934D01*
X429046Y457613D01*
X429455Y458224D01*
X429649Y459200D01*
X429455Y460176D01*
X428902Y461002D01*
X428076Y461555D01*
X427100Y461749D01*
D02*
G37*
G36*
X520700Y448464D02*
Y445500D01*
X523664D01*
X523610Y445914D01*
X523257Y446765D01*
X522696Y447496D01*
X521965Y448057D01*
X521114Y448410D01*
X520700Y448464D01*
D02*
G37*
G36*
X519700D02*
X519286Y448410D01*
X518435Y448057D01*
X517704Y447496D01*
X517143Y446765D01*
X516790Y445914D01*
X516736Y445500D01*
X519700D01*
Y448464D01*
D02*
G37*
G36*
X391900Y448064D02*
Y445100D01*
X394864D01*
X394810Y445514D01*
X394457Y446365D01*
X393896Y447096D01*
X393165Y447657D01*
X392314Y448010D01*
X391900Y448064D01*
D02*
G37*
G36*
X390900D02*
X390486Y448010D01*
X389635Y447657D01*
X388904Y447096D01*
X388343Y446365D01*
X387990Y445514D01*
X387936Y445100D01*
X390900D01*
Y448064D01*
D02*
G37*
G36*
X479300Y445850D02*
Y443900D01*
X481250D01*
X481155Y444376D01*
X480602Y445202D01*
X479775Y445755D01*
X479300Y445850D01*
D02*
G37*
G36*
X417700Y444149D02*
X416724Y443955D01*
X415898Y443402D01*
X415752Y443184D01*
X404315D01*
X404302Y443202D01*
X403476Y443755D01*
X402500Y443949D01*
X401524Y443755D01*
X400698Y443202D01*
X400145Y442376D01*
X399951Y441400D01*
X400145Y440424D01*
X400698Y439598D01*
X401524Y439045D01*
X402500Y438851D01*
X403476Y439045D01*
X404302Y439598D01*
X404315Y439616D01*
X416170D01*
X416724Y439245D01*
X417700Y439051D01*
X418676Y439245D01*
X419502Y439798D01*
X420055Y440625D01*
X420249Y441600D01*
X420055Y442576D01*
X419502Y443402D01*
X418676Y443955D01*
X417700Y444149D01*
D02*
G37*
G36*
X498200Y444050D02*
Y442100D01*
X500149D01*
X500055Y442576D01*
X499502Y443402D01*
X498675Y443955D01*
X498200Y444050D01*
D02*
G37*
G36*
X497200D02*
X496725Y443955D01*
X495898Y443402D01*
X495345Y442576D01*
X495251Y442100D01*
X497200D01*
Y444050D01*
D02*
G37*
G36*
X523664Y444500D02*
X520700D01*
Y441536D01*
X521114Y441590D01*
X521965Y441943D01*
X522696Y442504D01*
X523257Y443235D01*
X523610Y444086D01*
X523664Y444500D01*
D02*
G37*
G36*
X519700D02*
X516736D01*
X516790Y444086D01*
X517143Y443235D01*
X517704Y442504D01*
X518435Y441943D01*
X519286Y441590D01*
X519700Y441536D01*
Y444500D01*
D02*
G37*
G36*
X394864Y444100D02*
X391900D01*
Y441136D01*
X392314Y441190D01*
X393165Y441543D01*
X393896Y442104D01*
X394457Y442835D01*
X394810Y443686D01*
X394864Y444100D01*
D02*
G37*
G36*
X390900D02*
X387936D01*
X387990Y443686D01*
X388343Y442835D01*
X388904Y442104D01*
X389635Y441543D01*
X390486Y441190D01*
X390900Y441136D01*
Y444100D01*
D02*
G37*
G36*
X563500Y450749D02*
X562525Y450555D01*
X561698Y450002D01*
X561145Y449176D01*
X560951Y448200D01*
X561145Y447225D01*
X561612Y446525D01*
X561290Y441124D01*
X560780Y440986D01*
X560502Y441402D01*
X559676Y441955D01*
X558700Y442149D01*
X557725Y441955D01*
X556898Y441402D01*
X556345Y440576D01*
X556151Y439600D01*
X556169Y439509D01*
X555951Y439183D01*
X555816Y438500D01*
Y415715D01*
X555798Y415702D01*
X555245Y414876D01*
X555051Y413900D01*
X555245Y412924D01*
X555798Y412098D01*
X556625Y411545D01*
X557600Y411351D01*
X558417Y411514D01*
X558575Y411545D01*
X558952Y411195D01*
X559045Y410724D01*
X559598Y409898D01*
X560425Y409345D01*
X561400Y409151D01*
X562375Y409345D01*
X563202Y409898D01*
X563755Y410724D01*
X563949Y411700D01*
X563755Y412676D01*
X563212Y413488D01*
X565175Y446312D01*
X565302Y446398D01*
X565855Y447225D01*
X566049Y448200D01*
X565855Y449176D01*
X565302Y450002D01*
X564475Y450555D01*
X563500Y450749D01*
D02*
G37*
G36*
X481250Y442900D02*
X479300D01*
Y440950D01*
X479775Y441045D01*
X480602Y441598D01*
X481155Y442424D01*
X481250Y442900D01*
D02*
G37*
G36*
X478300D02*
X476350D01*
X476445Y442424D01*
X476998Y441598D01*
X477824Y441045D01*
X478300Y440950D01*
Y442900D01*
D02*
G37*
G36*
X500149Y441100D02*
X498200D01*
Y439150D01*
X498675Y439245D01*
X499502Y439798D01*
X500055Y440625D01*
X500149Y441100D01*
D02*
G37*
G36*
X497200D02*
X495251D01*
X495345Y440625D01*
X495898Y439798D01*
X496725Y439245D01*
X497200Y439150D01*
Y441100D01*
D02*
G37*
G36*
X311400Y451849D02*
X310424Y451655D01*
X309598Y451102D01*
X309045Y450276D01*
X308851Y449300D01*
X309045Y448324D01*
X309598Y447498D01*
X310424Y446945D01*
X310697Y446891D01*
X315604Y438059D01*
X315279Y437614D01*
X314600Y437749D01*
X313625Y437555D01*
X312798Y437002D01*
X312245Y436175D01*
X312051Y435200D01*
X312245Y434225D01*
X312798Y433398D01*
X313616Y432851D01*
Y416284D01*
X291514D01*
X291502Y416302D01*
X290675Y416855D01*
X289700Y417049D01*
X288724Y416855D01*
X287898Y416302D01*
X287345Y415476D01*
X287151Y414500D01*
X287345Y413524D01*
X287898Y412698D01*
X288724Y412145D01*
X289700Y411951D01*
X290675Y412145D01*
X291502Y412698D01*
X291514Y412716D01*
X314700D01*
X315383Y412851D01*
X315962Y413238D01*
X316662Y413938D01*
X317049Y414517D01*
X317184Y415200D01*
X317184Y415200D01*
Y434218D01*
X317668Y434343D01*
X319117Y431734D01*
X319051Y431400D01*
X319245Y430424D01*
X319798Y429598D01*
X320624Y429045D01*
X321600Y428851D01*
X322575Y429045D01*
X323402Y429598D01*
X323955Y430424D01*
X324149Y431400D01*
X323955Y432375D01*
X323402Y433202D01*
X322575Y433755D01*
X322015Y433866D01*
X313815Y448627D01*
X313949Y449300D01*
X313755Y450276D01*
X313202Y451102D01*
X312375Y451655D01*
X311400Y451849D01*
D02*
G37*
G36*
X543500Y439064D02*
Y436100D01*
X546464D01*
X546410Y436514D01*
X546057Y437365D01*
X545496Y438096D01*
X544765Y438657D01*
X543914Y439010D01*
X543500Y439064D01*
D02*
G37*
G36*
X542500D02*
X542086Y439010D01*
X541235Y438657D01*
X540504Y438096D01*
X539943Y437365D01*
X539590Y436514D01*
X539536Y436100D01*
X542500D01*
Y439064D01*
D02*
G37*
G36*
X546464Y435100D02*
X543500D01*
Y432136D01*
X543914Y432190D01*
X544765Y432543D01*
X545496Y433104D01*
X546057Y433835D01*
X546410Y434686D01*
X546464Y435100D01*
D02*
G37*
G36*
X542500D02*
X539536D01*
X539590Y434686D01*
X539943Y433835D01*
X540504Y433104D01*
X541235Y432543D01*
X542086Y432190D01*
X542500Y432136D01*
Y435100D01*
D02*
G37*
G36*
X402400Y433325D02*
Y430360D01*
X405364D01*
X405310Y430774D01*
X404957Y431625D01*
X404396Y432357D01*
X403665Y432918D01*
X402814Y433270D01*
X402400Y433325D01*
D02*
G37*
G36*
X401400D02*
X400986Y433270D01*
X400135Y432918D01*
X399404Y432357D01*
X398843Y431625D01*
X398490Y430774D01*
X398436Y430360D01*
X401400D01*
Y433325D01*
D02*
G37*
G36*
X302800Y432664D02*
Y429700D01*
X305764D01*
X305710Y430114D01*
X305357Y430965D01*
X304796Y431696D01*
X304065Y432257D01*
X303214Y432610D01*
X302800Y432664D01*
D02*
G37*
G36*
X301800D02*
X301386Y432610D01*
X300535Y432257D01*
X299804Y431696D01*
X299243Y430965D01*
X298890Y430114D01*
X298836Y429700D01*
X301800D01*
Y432664D01*
D02*
G37*
G36*
X405364Y429360D02*
X402400D01*
Y426396D01*
X402814Y426450D01*
X403665Y426803D01*
X404396Y427364D01*
X404957Y428095D01*
X405310Y428947D01*
X405364Y429360D01*
D02*
G37*
G36*
X392500Y430546D02*
X390638Y430363D01*
X388847Y429819D01*
X387196Y428937D01*
X385750Y427750D01*
X384563Y426303D01*
X383681Y424653D01*
X383137Y422862D01*
X382954Y421000D01*
X383137Y419138D01*
X383681Y417347D01*
X384563Y415696D01*
X385750Y414250D01*
X387196Y413063D01*
X388847Y412181D01*
X390638Y411637D01*
X392500Y411454D01*
X394362Y411637D01*
X396153Y412181D01*
X397803Y413063D01*
X399250Y414250D01*
X400437Y415696D01*
X401319Y417347D01*
X401863Y419138D01*
X402046Y421000D01*
X401863Y422862D01*
X401319Y424653D01*
X400552Y426089D01*
X400908Y426483D01*
X400986Y426450D01*
X401400Y426396D01*
Y429360D01*
X398436D01*
X398479Y429029D01*
X398299Y428865D01*
X398030Y428752D01*
X397803Y428937D01*
X396153Y429819D01*
X394362Y430363D01*
X392500Y430546D01*
D02*
G37*
G36*
X305764Y428700D02*
X302800D01*
Y425736D01*
X303214Y425790D01*
X304065Y426143D01*
X304796Y426704D01*
X305357Y427435D01*
X305710Y428286D01*
X305764Y428700D01*
D02*
G37*
G36*
X301800D02*
X298836D01*
X298890Y428286D01*
X299243Y427435D01*
X299804Y426704D01*
X300535Y426143D01*
X301386Y425790D01*
X301800Y425736D01*
Y428700D01*
D02*
G37*
G36*
X376900Y427264D02*
Y424300D01*
X379864D01*
X379810Y424714D01*
X379457Y425565D01*
X378896Y426296D01*
X378165Y426857D01*
X377314Y427210D01*
X376900Y427264D01*
D02*
G37*
G36*
X375900D02*
X375486Y427210D01*
X374635Y426857D01*
X373904Y426296D01*
X373343Y425565D01*
X372990Y424714D01*
X372936Y424300D01*
X375900D01*
Y427264D01*
D02*
G37*
G36*
X379864Y423300D02*
X376900D01*
Y420336D01*
X377314Y420390D01*
X378165Y420743D01*
X378896Y421304D01*
X379457Y422035D01*
X379810Y422886D01*
X379864Y423300D01*
D02*
G37*
G36*
X375900D02*
X372936D01*
X372990Y422886D01*
X373343Y422035D01*
X373904Y421304D01*
X374635Y420743D01*
X375486Y420390D01*
X375900Y420336D01*
Y423300D01*
D02*
G37*
G36*
X550300Y421864D02*
Y418900D01*
X553264D01*
X553210Y419314D01*
X552857Y420165D01*
X552296Y420896D01*
X551565Y421457D01*
X550714Y421810D01*
X550300Y421864D01*
D02*
G37*
G36*
X549300D02*
X548886Y421810D01*
X548035Y421457D01*
X547304Y420896D01*
X546743Y420165D01*
X546390Y419314D01*
X546336Y418900D01*
X549300D01*
Y421864D01*
D02*
G37*
G36*
X553264Y417900D02*
X550300D01*
Y414936D01*
X550714Y414990D01*
X551565Y415343D01*
X552296Y415904D01*
X552857Y416635D01*
X553210Y417486D01*
X553264Y417900D01*
D02*
G37*
G36*
X549300D02*
X546336D01*
X546390Y417486D01*
X546743Y416635D01*
X547304Y415904D01*
X548035Y415343D01*
X548886Y414990D01*
X549300Y414936D01*
Y417900D01*
D02*
G37*
G36*
X275300Y417840D02*
Y414876D01*
X278264D01*
X278210Y415289D01*
X277857Y416141D01*
X277296Y416872D01*
X276565Y417433D01*
X275714Y417786D01*
X275300Y417840D01*
D02*
G37*
G36*
X274300D02*
X273886Y417786D01*
X273035Y417433D01*
X272304Y416872D01*
X271743Y416141D01*
X271390Y415289D01*
X271336Y414876D01*
X274300D01*
Y417840D01*
D02*
G37*
G36*
X487000Y414164D02*
Y411200D01*
X489964D01*
X489910Y411614D01*
X489557Y412465D01*
X488996Y413196D01*
X488265Y413757D01*
X487414Y414110D01*
X487000Y414164D01*
D02*
G37*
G36*
X486000D02*
X485586Y414110D01*
X484735Y413757D01*
X484004Y413196D01*
X483443Y412465D01*
X483090Y411614D01*
X483036Y411200D01*
X486000D01*
Y414164D01*
D02*
G37*
G36*
X278264Y413876D02*
X275300D01*
Y410911D01*
X275714Y410966D01*
X276565Y411318D01*
X277296Y411879D01*
X277857Y412610D01*
X278210Y413462D01*
X278264Y413876D01*
D02*
G37*
G36*
X274300D02*
X271336D01*
X271390Y413462D01*
X271743Y412610D01*
X272304Y411879D01*
X273035Y411318D01*
X273886Y410966D01*
X274300Y410911D01*
Y413876D01*
D02*
G37*
G36*
X250947Y411264D02*
Y408300D01*
X253912D01*
X253857Y408714D01*
X253505Y409565D01*
X252944Y410296D01*
X252213Y410857D01*
X251361Y411210D01*
X250947Y411264D01*
D02*
G37*
G36*
X249947D02*
X249534Y411210D01*
X248682Y410857D01*
X247951Y410296D01*
X247390Y409565D01*
X247038Y408714D01*
X246983Y408300D01*
X249947D01*
Y411264D01*
D02*
G37*
G36*
X489964Y410200D02*
X487000D01*
Y407236D01*
X487414Y407290D01*
X488265Y407643D01*
X488996Y408204D01*
X489557Y408935D01*
X489910Y409786D01*
X489964Y410200D01*
D02*
G37*
G36*
X486000D02*
X483036D01*
X483090Y409786D01*
X483443Y408935D01*
X484004Y408204D01*
X484735Y407643D01*
X485586Y407290D01*
X486000Y407236D01*
Y410200D01*
D02*
G37*
G36*
X286700Y408849D02*
Y406900D01*
X288650D01*
X288555Y407375D01*
X288002Y408202D01*
X287175Y408755D01*
X286700Y408849D01*
D02*
G37*
G36*
X285700D02*
X285225Y408755D01*
X284398Y408202D01*
X283845Y407375D01*
X283751Y406900D01*
X285700D01*
Y408849D01*
D02*
G37*
G36*
X365200Y408364D02*
Y405400D01*
X368164D01*
X368110Y405814D01*
X367757Y406665D01*
X367196Y407396D01*
X366465Y407957D01*
X365614Y408310D01*
X365200Y408364D01*
D02*
G37*
G36*
X364200D02*
X363786Y408310D01*
X362935Y407957D01*
X362204Y407396D01*
X361643Y406665D01*
X361290Y405814D01*
X361236Y405400D01*
X364200D01*
Y408364D01*
D02*
G37*
G36*
X253912Y407300D02*
X250947D01*
Y404336D01*
X251361Y404390D01*
X252213Y404743D01*
X252944Y405304D01*
X253505Y406035D01*
X253857Y406886D01*
X253912Y407300D01*
D02*
G37*
G36*
X249947D02*
X246983D01*
X247038Y406886D01*
X247390Y406035D01*
X247951Y405304D01*
X248682Y404743D01*
X249534Y404390D01*
X249947Y404336D01*
Y407300D01*
D02*
G37*
G36*
X288650Y405900D02*
X286700D01*
Y403951D01*
X287175Y404045D01*
X288002Y404598D01*
X288555Y405424D01*
X288650Y405900D01*
D02*
G37*
G36*
X285700D02*
X283751D01*
X283845Y405424D01*
X284398Y404598D01*
X285225Y404045D01*
X285700Y403951D01*
Y405900D01*
D02*
G37*
G36*
X514000Y420546D02*
X512138Y420363D01*
X510347Y419819D01*
X508697Y418937D01*
X507250Y417750D01*
X506063Y416303D01*
X505181Y414653D01*
X504637Y412862D01*
X504454Y411000D01*
X504637Y409138D01*
X505181Y407347D01*
X506063Y405696D01*
X507250Y404250D01*
X508697Y403063D01*
X510347Y402181D01*
X512138Y401637D01*
X514000Y401454D01*
X515862Y401637D01*
X517653Y402181D01*
X519304Y403063D01*
X520750Y404250D01*
X521937Y405696D01*
X522819Y407347D01*
X523363Y409138D01*
X523546Y411000D01*
X523363Y412862D01*
X522819Y414653D01*
X521937Y416303D01*
X520750Y417750D01*
X519304Y418937D01*
X517653Y419819D01*
X515862Y420363D01*
X514000Y420546D01*
D02*
G37*
G36*
X368164Y404400D02*
X365200D01*
Y401436D01*
X365614Y401490D01*
X366465Y401843D01*
X367196Y402404D01*
X367757Y403135D01*
X368110Y403986D01*
X368164Y404400D01*
D02*
G37*
G36*
X364200D02*
X361236D01*
X361290Y403986D01*
X361643Y403135D01*
X362204Y402404D01*
X362935Y401843D01*
X363786Y401490D01*
X364200Y401436D01*
Y404400D01*
D02*
G37*
G36*
X284300Y396364D02*
Y393400D01*
X287264D01*
X287210Y393814D01*
X286857Y394665D01*
X286296Y395396D01*
X285565Y395957D01*
X284714Y396310D01*
X284300Y396364D01*
D02*
G37*
G36*
X283300D02*
X282886Y396310D01*
X282035Y395957D01*
X281304Y395396D01*
X280743Y394665D01*
X280390Y393814D01*
X280336Y393400D01*
X283300D01*
Y396364D01*
D02*
G37*
G36*
X410400Y395664D02*
Y392700D01*
X413364D01*
X413310Y393114D01*
X412957Y393965D01*
X412396Y394696D01*
X411665Y395257D01*
X410814Y395610D01*
X410400Y395664D01*
D02*
G37*
G36*
X409400D02*
X408986Y395610D01*
X408135Y395257D01*
X407404Y394696D01*
X406843Y393965D01*
X406490Y393114D01*
X406436Y392700D01*
X409400D01*
Y395664D01*
D02*
G37*
G36*
X287264Y392400D02*
X284300D01*
Y389436D01*
X284714Y389490D01*
X285565Y389843D01*
X286296Y390404D01*
X286857Y391135D01*
X287210Y391986D01*
X287264Y392400D01*
D02*
G37*
G36*
X283300D02*
X280336D01*
X280390Y391986D01*
X280743Y391135D01*
X281304Y390404D01*
X282035Y389843D01*
X282886Y389490D01*
X283300Y389436D01*
Y392400D01*
D02*
G37*
G36*
X413364Y391700D02*
X410400D01*
Y388736D01*
X410814Y388790D01*
X411665Y389143D01*
X412396Y389704D01*
X412957Y390435D01*
X413310Y391286D01*
X413364Y391700D01*
D02*
G37*
G36*
X409400D02*
X406436D01*
X406490Y391286D01*
X406843Y390435D01*
X407404Y389704D01*
X408135Y389143D01*
X408986Y388790D01*
X409400Y388736D01*
Y391700D01*
D02*
G37*
G36*
X267500Y407546D02*
X265638Y407363D01*
X263847Y406819D01*
X262196Y405937D01*
X260750Y404750D01*
X259563Y403303D01*
X258681Y401653D01*
X258137Y399862D01*
X257954Y398000D01*
X258137Y396138D01*
X258681Y394347D01*
X259563Y392696D01*
X260750Y391250D01*
X262196Y390063D01*
X263847Y389181D01*
X265638Y388637D01*
X267500Y388454D01*
X269362Y388637D01*
X271153Y389181D01*
X272803Y390063D01*
X274250Y391250D01*
X275437Y392696D01*
X276319Y394347D01*
X276863Y396138D01*
X277046Y398000D01*
X276863Y399862D01*
X276319Y401653D01*
X275437Y403303D01*
X274250Y404750D01*
X272803Y405937D01*
X271153Y406819D01*
X269362Y407363D01*
X267500Y407546D01*
D02*
G37*
G36*
X542800Y388667D02*
Y385703D01*
X545764D01*
X545710Y386117D01*
X545357Y386968D01*
X544796Y387699D01*
X544065Y388260D01*
X543214Y388613D01*
X542800Y388667D01*
D02*
G37*
G36*
X541800D02*
X541386Y388613D01*
X540535Y388260D01*
X539804Y387699D01*
X539243Y386968D01*
X538890Y386117D01*
X538836Y385703D01*
X541800D01*
Y388667D01*
D02*
G37*
G36*
X545764Y384703D02*
X542800D01*
Y381739D01*
X543214Y381793D01*
X544065Y382146D01*
X544796Y382707D01*
X545357Y383438D01*
X545710Y384289D01*
X545764Y384703D01*
D02*
G37*
G36*
X541800D02*
X538836D01*
X538890Y384289D01*
X539243Y383438D01*
X539804Y382707D01*
X540535Y382146D01*
X541386Y381793D01*
X541800Y381739D01*
Y384703D01*
D02*
G37*
G36*
X238200Y378864D02*
Y375900D01*
X241164D01*
X241110Y376314D01*
X240757Y377165D01*
X240196Y377896D01*
X239465Y378457D01*
X238614Y378810D01*
X238200Y378864D01*
D02*
G37*
G36*
X237200D02*
X236786Y378810D01*
X235935Y378457D01*
X235204Y377896D01*
X234643Y377165D01*
X234290Y376314D01*
X234236Y375900D01*
X237200D01*
Y378864D01*
D02*
G37*
G36*
X356500Y376664D02*
Y373700D01*
X359464D01*
X359410Y374114D01*
X359057Y374965D01*
X358496Y375696D01*
X357765Y376257D01*
X356914Y376610D01*
X356500Y376664D01*
D02*
G37*
G36*
X355500D02*
X355086Y376610D01*
X354235Y376257D01*
X353504Y375696D01*
X352943Y374965D01*
X352590Y374114D01*
X352536Y373700D01*
X355500D01*
Y376664D01*
D02*
G37*
G36*
X476200Y375764D02*
Y372800D01*
X479164D01*
X479110Y373214D01*
X478757Y374065D01*
X478196Y374796D01*
X477465Y375357D01*
X476614Y375710D01*
X476200Y375764D01*
D02*
G37*
G36*
X475200D02*
X474786Y375710D01*
X473935Y375357D01*
X473204Y374796D01*
X472643Y374065D01*
X472290Y373214D01*
X472236Y372800D01*
X475200D01*
Y375764D01*
D02*
G37*
G36*
X241164Y374900D02*
X238200D01*
Y371936D01*
X238614Y371990D01*
X239465Y372343D01*
X240196Y372904D01*
X240757Y373635D01*
X241110Y374486D01*
X241164Y374900D01*
D02*
G37*
G36*
X237200D02*
X234236D01*
X234290Y374486D01*
X234643Y373635D01*
X235204Y372904D01*
X235935Y372343D01*
X236786Y371990D01*
X237200Y371936D01*
Y374900D01*
D02*
G37*
G36*
X519000Y373164D02*
Y370200D01*
X521964D01*
X521910Y370614D01*
X521557Y371465D01*
X520996Y372196D01*
X520265Y372757D01*
X519414Y373110D01*
X519000Y373164D01*
D02*
G37*
G36*
X518000D02*
X517586Y373110D01*
X516735Y372757D01*
X516004Y372196D01*
X515443Y371465D01*
X515090Y370614D01*
X515036Y370200D01*
X518000D01*
Y373164D01*
D02*
G37*
G36*
X378000Y372264D02*
Y369300D01*
X380964D01*
X380910Y369714D01*
X380557Y370565D01*
X379996Y371296D01*
X379265Y371857D01*
X378414Y372210D01*
X378000Y372264D01*
D02*
G37*
G36*
X377000D02*
X376586Y372210D01*
X375735Y371857D01*
X375004Y371296D01*
X374443Y370565D01*
X374090Y369714D01*
X374036Y369300D01*
X377000D01*
Y372264D01*
D02*
G37*
G36*
X479164Y371800D02*
X476200D01*
Y368836D01*
X476614Y368890D01*
X477465Y369243D01*
X478196Y369804D01*
X478757Y370535D01*
X479110Y371386D01*
X479164Y371800D01*
D02*
G37*
G36*
X475200D02*
X472236D01*
X472290Y371386D01*
X472643Y370535D01*
X473204Y369804D01*
X473935Y369243D01*
X474786Y368890D01*
X475200Y368836D01*
Y371800D01*
D02*
G37*
G36*
X521964Y369200D02*
X519000D01*
Y366236D01*
X519414Y366290D01*
X520265Y366643D01*
X520996Y367204D01*
X521557Y367935D01*
X521910Y368786D01*
X521964Y369200D01*
D02*
G37*
G36*
X518000D02*
X515036D01*
X515090Y368786D01*
X515443Y367935D01*
X516004Y367204D01*
X516735Y366643D01*
X517586Y366290D01*
X518000Y366236D01*
Y369200D01*
D02*
G37*
G36*
X380964Y368300D02*
X378000D01*
Y365336D01*
X378414Y365390D01*
X379265Y365743D01*
X379996Y366304D01*
X380557Y367035D01*
X380910Y367886D01*
X380964Y368300D01*
D02*
G37*
G36*
X390401Y365981D02*
X385964D01*
Y364300D01*
X390401D01*
Y365981D01*
D02*
G37*
G36*
X384964D02*
X380527D01*
Y364300D01*
X384964D01*
Y365981D01*
D02*
G37*
G36*
X411874Y369874D02*
X403500D01*
Y361500D01*
X411874D01*
Y369874D01*
D02*
G37*
G36*
X402500D02*
X394126D01*
Y361500D01*
X402500D01*
Y369874D01*
D02*
G37*
G36*
X276700Y360064D02*
Y357100D01*
X279664D01*
X279610Y357514D01*
X279257Y358365D01*
X278696Y359096D01*
X277965Y359657D01*
X277114Y360010D01*
X276700Y360064D01*
D02*
G37*
G36*
X275700D02*
X275286Y360010D01*
X274435Y359657D01*
X273704Y359096D01*
X273143Y358365D01*
X272790Y357514D01*
X272736Y357100D01*
X275700D01*
Y360064D01*
D02*
G37*
G36*
Y356100D02*
X272736D01*
X272790Y355686D01*
X272940Y355325D01*
X272548Y354964D01*
X271744Y355297D01*
X270700Y355434D01*
X269656Y355297D01*
X268683Y354894D01*
X267847Y354253D01*
X267206Y353417D01*
X266803Y352444D01*
X266666Y351400D01*
X266803Y350356D01*
X267206Y349383D01*
X267847Y348547D01*
X268683Y347906D01*
X269656Y347503D01*
X270700Y347365D01*
X271744Y347503D01*
X272717Y347906D01*
X273553Y348547D01*
X274194Y349383D01*
X274597Y350356D01*
X274734Y351400D01*
X274597Y352444D01*
X274352Y353036D01*
X274735Y353419D01*
X275286Y353190D01*
X275700Y353136D01*
Y356100D01*
D02*
G37*
G36*
X279664D02*
X276700D01*
Y353136D01*
X277114Y353190D01*
X277965Y353543D01*
X278696Y354104D01*
X279257Y354835D01*
X279610Y355686D01*
X279664Y356100D01*
D02*
G37*
G36*
X411874Y360500D02*
X403500D01*
Y352126D01*
X411874D01*
Y360500D01*
D02*
G37*
G36*
X260700Y355434D02*
X259656Y355297D01*
X258683Y354894D01*
X257847Y354253D01*
X257206Y353417D01*
X256803Y352444D01*
X256665Y351400D01*
X256803Y350356D01*
X257206Y349383D01*
X257847Y348547D01*
X258683Y347906D01*
X259656Y347503D01*
X260700Y347365D01*
X261744Y347503D01*
X262717Y347906D01*
X263553Y348547D01*
X264194Y349383D01*
X264597Y350356D01*
X264735Y351400D01*
X264597Y352444D01*
X264194Y353417D01*
X263553Y354253D01*
X262717Y354894D01*
X261744Y355297D01*
X260700Y355434D01*
D02*
G37*
G36*
X232200Y345000D02*
Y342036D01*
X235164D01*
X235110Y342449D01*
X234757Y343301D01*
X234196Y344032D01*
X233465Y344593D01*
X232614Y344946D01*
X232200Y345000D01*
D02*
G37*
G36*
X231200D02*
X230786Y344946D01*
X229935Y344593D01*
X229204Y344032D01*
X228643Y343301D01*
X228290Y342449D01*
X228236Y342036D01*
X231200D01*
Y345000D01*
D02*
G37*
G36*
X503100Y341164D02*
Y338200D01*
X506064D01*
X506010Y338614D01*
X505657Y339465D01*
X505096Y340196D01*
X504365Y340757D01*
X503514Y341110D01*
X503100Y341164D01*
D02*
G37*
G36*
X502100D02*
X501686Y341110D01*
X500835Y340757D01*
X500104Y340196D01*
X499543Y339465D01*
X499190Y338614D01*
X499136Y338200D01*
X502100D01*
Y341164D01*
D02*
G37*
G36*
X235164Y341036D02*
X232200D01*
Y338071D01*
X232614Y338126D01*
X233465Y338479D01*
X234196Y339040D01*
X234757Y339771D01*
X235110Y340622D01*
X235164Y341036D01*
D02*
G37*
G36*
X231200D02*
X228236D01*
X228290Y340622D01*
X228643Y339771D01*
X229204Y339040D01*
X229935Y338479D01*
X230786Y338126D01*
X231200Y338071D01*
Y341036D01*
D02*
G37*
G36*
X268700Y345434D02*
X267656Y345297D01*
X266683Y344894D01*
X265847Y344253D01*
X265206Y343417D01*
X264803Y342444D01*
X264666Y341400D01*
X264803Y340356D01*
X265206Y339383D01*
X265847Y338547D01*
X266683Y337906D01*
X267656Y337503D01*
X268700Y337366D01*
X269744Y337503D01*
X270717Y337906D01*
X271553Y338547D01*
X272194Y339383D01*
X272597Y340356D01*
X272734Y341400D01*
X272597Y342444D01*
X272194Y343417D01*
X271553Y344253D01*
X270717Y344894D01*
X269744Y345297D01*
X268700Y345434D01*
D02*
G37*
G36*
X258700D02*
X257656Y345297D01*
X256683Y344894D01*
X255847Y344253D01*
X255206Y343417D01*
X254803Y342444D01*
X254665Y341400D01*
X254803Y340356D01*
X255206Y339383D01*
X255847Y338547D01*
X256683Y337906D01*
X257656Y337503D01*
X258700Y337366D01*
X259744Y337503D01*
X260717Y337906D01*
X261553Y338547D01*
X262194Y339383D01*
X262597Y340356D01*
X262735Y341400D01*
X262597Y342444D01*
X262194Y343417D01*
X261553Y344253D01*
X260717Y344894D01*
X259744Y345297D01*
X258700Y345434D01*
D02*
G37*
G36*
X506064Y337200D02*
X503100D01*
Y334236D01*
X503514Y334290D01*
X504365Y334643D01*
X505096Y335204D01*
X505657Y335935D01*
X506010Y336786D01*
X506064Y337200D01*
D02*
G37*
G36*
X502100D02*
X499136D01*
X499190Y336786D01*
X499543Y335935D01*
X500104Y335204D01*
X500835Y334643D01*
X501686Y334290D01*
X502100Y334236D01*
Y337200D01*
D02*
G37*
G36*
X405953Y336906D02*
X402500D01*
Y333846D01*
X405953D01*
Y336906D01*
D02*
G37*
G36*
X474100Y332064D02*
Y329100D01*
X477064D01*
X477010Y329514D01*
X476657Y330365D01*
X476096Y331096D01*
X475365Y331657D01*
X474514Y332010D01*
X474100Y332064D01*
D02*
G37*
G36*
X473100D02*
X472686Y332010D01*
X471835Y331657D01*
X471104Y331096D01*
X470543Y330365D01*
X470190Y329514D01*
X470136Y329100D01*
X473100D01*
Y332064D01*
D02*
G37*
G36*
X270700Y335435D02*
X269656Y335297D01*
X268683Y334894D01*
X267847Y334253D01*
X267206Y333417D01*
X266803Y332444D01*
X266666Y331400D01*
X266803Y330356D01*
X267206Y329383D01*
X267847Y328547D01*
X268683Y327906D01*
X269656Y327503D01*
X270700Y327365D01*
X271744Y327503D01*
X272717Y327906D01*
X273553Y328547D01*
X274194Y329383D01*
X274597Y330356D01*
X274734Y331400D01*
X274597Y332444D01*
X274194Y333417D01*
X273553Y334253D01*
X272717Y334894D01*
X271744Y335297D01*
X270700Y335435D01*
D02*
G37*
G36*
X260700D02*
X259656Y335297D01*
X258683Y334894D01*
X257847Y334253D01*
X257206Y333417D01*
X256803Y332444D01*
X256665Y331400D01*
X256803Y330356D01*
X257206Y329383D01*
X257847Y328547D01*
X258683Y327906D01*
X259656Y327503D01*
X260700Y327365D01*
X261744Y327503D01*
X262717Y327906D01*
X263553Y328547D01*
X264194Y329383D01*
X264597Y330356D01*
X264735Y331400D01*
X264597Y332444D01*
X264194Y333417D01*
X263553Y334253D01*
X262717Y334894D01*
X261744Y335297D01*
X260700Y335435D01*
D02*
G37*
G36*
X477064Y328100D02*
X474100D01*
Y325136D01*
X474514Y325190D01*
X475365Y325543D01*
X476096Y326104D01*
X476657Y326835D01*
X477010Y327686D01*
X477064Y328100D01*
D02*
G37*
G36*
X473100D02*
X470136D01*
X470190Y327686D01*
X470543Y326835D01*
X471104Y326104D01*
X471835Y325543D01*
X472686Y325190D01*
X473100Y325136D01*
Y328100D01*
D02*
G37*
G36*
X268700Y325434D02*
X267656Y325297D01*
X266683Y324894D01*
X265847Y324253D01*
X265206Y323417D01*
X264803Y322444D01*
X264666Y321400D01*
X264803Y320356D01*
X265206Y319383D01*
X265847Y318547D01*
X266683Y317906D01*
X267656Y317503D01*
X268700Y317366D01*
X269744Y317503D01*
X270717Y317906D01*
X271553Y318547D01*
X272194Y319383D01*
X272597Y320356D01*
X272734Y321400D01*
X272597Y322444D01*
X272194Y323417D01*
X271553Y324253D01*
X270717Y324894D01*
X269744Y325297D01*
X268700Y325434D01*
D02*
G37*
G36*
X258700D02*
X257656Y325297D01*
X256683Y324894D01*
X255847Y324253D01*
X255206Y323417D01*
X254803Y322444D01*
X254665Y321400D01*
X254803Y320356D01*
X255206Y319383D01*
X255847Y318547D01*
X256683Y317906D01*
X257656Y317503D01*
X258700Y317366D01*
X259744Y317503D01*
X260717Y317906D01*
X261553Y318547D01*
X262194Y319383D01*
X262597Y320356D01*
X262735Y321400D01*
X262597Y322444D01*
X262194Y323417D01*
X261553Y324253D01*
X260717Y324894D01*
X259744Y325297D01*
X258700Y325434D01*
D02*
G37*
G36*
X237500Y315564D02*
Y312600D01*
X240464D01*
X240410Y313014D01*
X240057Y313865D01*
X239496Y314596D01*
X238765Y315157D01*
X237914Y315510D01*
X237500Y315564D01*
D02*
G37*
G36*
X236500D02*
X236086Y315510D01*
X235235Y315157D01*
X234504Y314596D01*
X233943Y313865D01*
X233590Y313014D01*
X233536Y312600D01*
X236500D01*
Y315564D01*
D02*
G37*
G36*
X334459Y314601D02*
X331400D01*
Y311050D01*
X334459D01*
Y314601D01*
D02*
G37*
G36*
X240464Y311600D02*
X237500D01*
Y308636D01*
X237914Y308690D01*
X238765Y309043D01*
X239496Y309604D01*
X240057Y310335D01*
X240410Y311186D01*
X240464Y311600D01*
D02*
G37*
G36*
X236500D02*
X233536D01*
X233590Y311186D01*
X233943Y310335D01*
X234504Y309604D01*
X235235Y309043D01*
X236086Y308690D01*
X236500Y308636D01*
Y311600D01*
D02*
G37*
G36*
X260700Y315435D02*
X259656Y315297D01*
X258683Y314894D01*
X257847Y314253D01*
X257206Y313417D01*
X256803Y312444D01*
X256665Y311400D01*
X256803Y310356D01*
X257206Y309383D01*
X257847Y308547D01*
X258683Y307906D01*
X259656Y307503D01*
X260700Y307365D01*
X261744Y307503D01*
X262717Y307906D01*
X263553Y308547D01*
X264194Y309383D01*
X264597Y310356D01*
X264735Y311400D01*
X264597Y312444D01*
X264194Y313417D01*
X263553Y314253D01*
X262717Y314894D01*
X261744Y315297D01*
X260700Y315435D01*
D02*
G37*
G36*
X278100Y309664D02*
Y306700D01*
X281064D01*
X281010Y307114D01*
X280657Y307965D01*
X280096Y308696D01*
X279365Y309257D01*
X278514Y309610D01*
X278100Y309664D01*
D02*
G37*
G36*
X274700Y315400D02*
X266700D01*
Y307400D01*
X273822D01*
X274162Y306900D01*
X274136Y306700D01*
X277100D01*
Y309664D01*
X276686Y309610D01*
X275835Y309257D01*
X275200Y308770D01*
X274700Y308921D01*
Y315400D01*
D02*
G37*
G36*
X334459Y310050D02*
X331400D01*
Y306498D01*
X334459D01*
Y310050D01*
D02*
G37*
G36*
X330400D02*
X327341D01*
Y306498D01*
X330400D01*
Y310050D01*
D02*
G37*
G36*
X281064Y305700D02*
X278100D01*
Y302736D01*
X278514Y302790D01*
X279365Y303143D01*
X280096Y303704D01*
X280657Y304435D01*
X281010Y305286D01*
X281064Y305700D01*
D02*
G37*
G36*
X277100D02*
X274136D01*
X274190Y305286D01*
X274543Y304435D01*
X275104Y303704D01*
X275835Y303143D01*
X276686Y302790D01*
X277100Y302736D01*
Y305700D01*
D02*
G37*
G36*
X489300Y301914D02*
Y298950D01*
X492264D01*
X492210Y299363D01*
X491857Y300215D01*
X491296Y300946D01*
X490565Y301507D01*
X489714Y301860D01*
X489300Y301914D01*
D02*
G37*
G36*
X488300D02*
X487886Y301860D01*
X487035Y301507D01*
X486304Y300946D01*
X485743Y300215D01*
X485390Y299363D01*
X485336Y298950D01*
X488300D01*
Y301914D01*
D02*
G37*
G36*
X416553Y301554D02*
X413100D01*
Y298495D01*
X416553D01*
Y301554D01*
D02*
G37*
G36*
X492264Y297950D02*
X489300D01*
Y294986D01*
X489714Y295040D01*
X490565Y295393D01*
X491296Y295954D01*
X491857Y296685D01*
X492210Y297536D01*
X492264Y297950D01*
D02*
G37*
G36*
X488300D02*
X485336D01*
X485390Y297536D01*
X485743Y296685D01*
X486304Y295954D01*
X487035Y295393D01*
X487886Y295040D01*
X488300Y294986D01*
Y297950D01*
D02*
G37*
G36*
X454400Y297264D02*
X453986Y297210D01*
X453135Y296857D01*
X452404Y296296D01*
X451843Y295565D01*
X451550Y294858D01*
X451491Y294813D01*
X451146Y294692D01*
X450982Y294682D01*
X450583Y294949D01*
X449900Y295084D01*
X434115D01*
X434102Y295102D01*
X433276Y295655D01*
X432300Y295849D01*
X431324Y295655D01*
X430498Y295102D01*
X429945Y294275D01*
X429751Y293300D01*
X429945Y292324D01*
X430498Y291498D01*
X431324Y290945D01*
X432300Y290751D01*
X433041Y290898D01*
X433541Y290567D01*
Y279065D01*
X432321Y277845D01*
X432300Y277849D01*
X431324Y277655D01*
X430498Y277102D01*
X429945Y276275D01*
X429751Y275300D01*
X429509Y275005D01*
X419352D01*
Y269763D01*
X418852Y269593D01*
X418696Y269796D01*
X417965Y270357D01*
X417114Y270710D01*
X416700Y270764D01*
Y267800D01*
X419684D01*
X420105Y268280D01*
X429896D01*
X431655Y266521D01*
X431651Y266500D01*
X431845Y265525D01*
X432398Y264698D01*
X433224Y264145D01*
X434200Y263951D01*
X435176Y264145D01*
X436002Y264698D01*
X436555Y265525D01*
X436749Y266500D01*
X436555Y267476D01*
X436002Y268302D01*
X435176Y268855D01*
X434200Y269049D01*
X434179Y269045D01*
X431220Y272004D01*
X431238Y272511D01*
X431695Y272871D01*
X432300Y272751D01*
X433077Y272906D01*
X433541Y272992D01*
X433541Y272992D01*
X433541Y272992D01*
X441006D01*
Y268280D01*
X452848D01*
Y269469D01*
X453348Y269621D01*
X453698Y269098D01*
X454525Y268545D01*
X455500Y268351D01*
X456475Y268545D01*
X457302Y269098D01*
X457855Y269924D01*
X458049Y270900D01*
X457855Y271876D01*
X457302Y272702D01*
X457052Y272869D01*
Y274979D01*
X461855D01*
Y276348D01*
X462221Y276420D01*
X462800Y276807D01*
X462899Y276906D01*
X463484Y276784D01*
X463743Y276396D01*
X464241Y275898D01*
X464241Y275898D01*
X464820Y275511D01*
X464902Y275495D01*
X465047Y275017D01*
X464219Y274188D01*
X463832Y273610D01*
X463696Y272927D01*
Y254555D01*
X459287D01*
Y250602D01*
Y246649D01*
X469039D01*
Y254555D01*
X467265D01*
Y272188D01*
X470056Y274979D01*
X472682D01*
Y279341D01*
X472098D01*
Y279992D01*
X473461D01*
Y278067D01*
X477413D01*
Y277567D01*
X477913D01*
Y274008D01*
X481366D01*
X481548Y273583D01*
Y270992D01*
X493785D01*
Y289528D01*
X481548D01*
Y288244D01*
X481366Y287819D01*
X473461D01*
Y283560D01*
X472682D01*
Y286821D01*
X466745D01*
Y285451D01*
X466339Y285294D01*
X466245Y285288D01*
X460721Y290812D01*
X460143Y291198D01*
X459460Y291334D01*
X457985D01*
X457764Y291783D01*
X457957Y292035D01*
X458310Y292886D01*
X458364Y293300D01*
X454900D01*
Y293800D01*
X454400D01*
Y297264D01*
D02*
G37*
G36*
X455400D02*
Y294300D01*
X458364D01*
X458310Y294714D01*
X457957Y295565D01*
X457396Y296296D01*
X456665Y296857D01*
X455814Y297210D01*
X455400Y297264D01*
D02*
G37*
G36*
X416099Y295175D02*
X412647D01*
Y292116D01*
X416099D01*
Y295175D01*
D02*
G37*
G36*
X411647D02*
X408194D01*
Y292116D01*
X411647D01*
Y295175D01*
D02*
G37*
G36*
X424438Y281583D02*
X422488D01*
Y279634D01*
X422964Y279729D01*
X423791Y280281D01*
X424343Y281108D01*
X424438Y281583D01*
D02*
G37*
G36*
X365400Y281464D02*
Y278500D01*
X368364D01*
X368310Y278914D01*
X367957Y279765D01*
X367396Y280496D01*
X366665Y281057D01*
X365814Y281410D01*
X365400Y281464D01*
D02*
G37*
G36*
X362351Y284459D02*
X354249D01*
Y277341D01*
X355444D01*
X355761Y276954D01*
X355651Y276400D01*
X355845Y275425D01*
X356398Y274598D01*
X357224Y274045D01*
X358200Y273851D01*
X359175Y274045D01*
X360002Y274598D01*
X360555Y275425D01*
X360749Y276400D01*
X360639Y276954D01*
X360956Y277341D01*
X361457D01*
X361490Y277086D01*
X361843Y276235D01*
X362404Y275504D01*
X363135Y274943D01*
X363986Y274590D01*
X364400Y274536D01*
Y278000D01*
Y281464D01*
X363986Y281410D01*
X363135Y281057D01*
X362851Y280839D01*
X362351Y281086D01*
Y284459D01*
D02*
G37*
G36*
X476913Y277067D02*
X473461D01*
Y274008D01*
X476913D01*
Y277067D01*
D02*
G37*
G36*
X246832Y274964D02*
Y272000D01*
X249796D01*
X249742Y272414D01*
X249389Y273265D01*
X248828Y273996D01*
X248097Y274557D01*
X247245Y274910D01*
X246832Y274964D01*
D02*
G37*
G36*
X245832D02*
X245418Y274910D01*
X244567Y274557D01*
X243835Y273996D01*
X243274Y273265D01*
X242922Y272414D01*
X242867Y272000D01*
X245832D01*
Y274964D01*
D02*
G37*
G36*
X473100Y271464D02*
Y268500D01*
X476064D01*
X476010Y268914D01*
X475657Y269765D01*
X475096Y270496D01*
X474365Y271057D01*
X473514Y271410D01*
X473100Y271464D01*
D02*
G37*
G36*
X472100D02*
X471686Y271410D01*
X470835Y271057D01*
X470104Y270496D01*
X469543Y269765D01*
X469190Y268914D01*
X469136Y268500D01*
X472100D01*
Y271464D01*
D02*
G37*
G36*
X249796Y271000D02*
X246832D01*
Y268036D01*
X247245Y268090D01*
X248097Y268443D01*
X248828Y269004D01*
X249389Y269735D01*
X249742Y270586D01*
X249796Y271000D01*
D02*
G37*
G36*
X245832D02*
X242867D01*
X242922Y270586D01*
X243274Y269735D01*
X243835Y269004D01*
X244567Y268443D01*
X245418Y268090D01*
X245832Y268036D01*
Y271000D01*
D02*
G37*
G36*
X415700Y270764D02*
X415286Y270710D01*
X414435Y270357D01*
X413704Y269796D01*
X413143Y269065D01*
X412790Y268214D01*
X412736Y267800D01*
X415700D01*
Y270764D01*
D02*
G37*
G36*
X476064Y267500D02*
X473100D01*
Y264536D01*
X473514Y264590D01*
X474365Y264943D01*
X475096Y265504D01*
X475657Y266235D01*
X476010Y267086D01*
X476064Y267500D01*
D02*
G37*
G36*
X472100D02*
X469136D01*
X469190Y267086D01*
X469543Y266235D01*
X470104Y265504D01*
X470835Y264943D01*
X471686Y264590D01*
X472100Y264536D01*
Y267500D01*
D02*
G37*
G36*
X389099Y266742D02*
X385548D01*
Y263684D01*
X389099D01*
Y266742D01*
D02*
G37*
G36*
Y262684D02*
X385548D01*
Y259624D01*
X389099D01*
Y262684D01*
D02*
G37*
G36*
X295600Y254864D02*
Y251900D01*
X298564D01*
X298510Y252314D01*
X298157Y253165D01*
X297596Y253896D01*
X296865Y254457D01*
X296014Y254810D01*
X295600Y254864D01*
D02*
G37*
G36*
X294600D02*
X294186Y254810D01*
X293335Y254457D01*
X292604Y253896D01*
X292043Y253165D01*
X291690Y252314D01*
X291636Y251900D01*
X294600D01*
Y254864D01*
D02*
G37*
G36*
X458287Y254555D02*
X455228D01*
Y251102D01*
X458287D01*
Y254555D01*
D02*
G37*
G36*
X398272Y253924D02*
X394728D01*
X393877Y253755D01*
X393156Y253273D01*
X392674Y252551D01*
X392505Y251700D01*
X392674Y250849D01*
X393156Y250128D01*
X393877Y249645D01*
X394728Y249476D01*
X398272D01*
X399123Y249645D01*
X399844Y250128D01*
X400326Y250849D01*
X400495Y251700D01*
X400326Y252551D01*
X399844Y253273D01*
X399123Y253755D01*
X398272Y253924D01*
D02*
G37*
G36*
X294600Y250900D02*
X291636D01*
X291690Y250486D01*
X292043Y249635D01*
X292307Y249291D01*
X292003Y248865D01*
X290362Y249363D01*
X288500Y249546D01*
X286638Y249363D01*
X284847Y248819D01*
X283196Y247937D01*
X281750Y246750D01*
X280563Y245304D01*
X279681Y243653D01*
X279137Y241862D01*
X278954Y240000D01*
X279137Y238138D01*
X279681Y236347D01*
X280563Y234697D01*
X281750Y233250D01*
X283196Y232063D01*
X284847Y231181D01*
X286638Y230637D01*
X288500Y230454D01*
X290362Y230637D01*
X292153Y231181D01*
X293804Y232063D01*
X295250Y233250D01*
X296437Y234697D01*
X297319Y236347D01*
X297863Y238138D01*
X298046Y240000D01*
X297863Y241862D01*
X297319Y243653D01*
X296437Y245304D01*
X295250Y246750D01*
X294385Y247460D01*
X294592Y247937D01*
X294600Y247936D01*
Y250900D01*
D02*
G37*
G36*
X452848Y255320D02*
X441006D01*
Y248595D01*
X452848D01*
Y255320D01*
D02*
G37*
G36*
X298564Y250900D02*
X295600D01*
Y247936D01*
X296014Y247990D01*
X296865Y248343D01*
X297596Y248904D01*
X298157Y249635D01*
X298510Y250486D01*
X298564Y250900D01*
D02*
G37*
G36*
X458287Y250102D02*
X455228D01*
Y246649D01*
X458287D01*
Y250102D01*
D02*
G37*
G36*
X398272Y248924D02*
X394728D01*
X393877Y248755D01*
X393156Y248272D01*
X392674Y247551D01*
X392505Y246700D01*
X392674Y245849D01*
X393156Y245128D01*
X393877Y244645D01*
X394728Y244476D01*
X398272D01*
X399123Y244645D01*
X399844Y245128D01*
X400326Y245849D01*
X400495Y246700D01*
X400326Y247551D01*
X399844Y248272D01*
X399123Y248755D01*
X398272Y248924D01*
D02*
G37*
G36*
X335300Y245364D02*
Y242400D01*
X338264D01*
X338210Y242814D01*
X337857Y243665D01*
X337296Y244396D01*
X336565Y244957D01*
X335714Y245310D01*
X335300Y245364D01*
D02*
G37*
G36*
X334300D02*
X333886Y245310D01*
X333035Y244957D01*
X332304Y244396D01*
X331743Y243665D01*
X331390Y242814D01*
X331336Y242400D01*
X334300D01*
Y245364D01*
D02*
G37*
G36*
X444800Y241650D02*
Y239700D01*
X446749D01*
X446655Y240176D01*
X446102Y241002D01*
X445275Y241555D01*
X444800Y241650D01*
D02*
G37*
G36*
X443800D02*
X443325Y241555D01*
X442498Y241002D01*
X441945Y240176D01*
X441851Y239700D01*
X443800D01*
Y241650D01*
D02*
G37*
G36*
X398272Y243924D02*
X394728D01*
X393877Y243755D01*
X393156Y243272D01*
X392674Y242551D01*
X392505Y241700D01*
X392674Y240849D01*
X393156Y240127D01*
X393877Y239645D01*
X394728Y239476D01*
X398272D01*
X399123Y239645D01*
X399844Y240127D01*
X400326Y240849D01*
X400495Y241700D01*
X400326Y242551D01*
X399844Y243272D01*
X399123Y243755D01*
X398272Y243924D01*
D02*
G37*
G36*
X338264Y241400D02*
X335300D01*
Y238436D01*
X335714Y238490D01*
X336565Y238843D01*
X337296Y239404D01*
X337857Y240135D01*
X338210Y240986D01*
X338264Y241400D01*
D02*
G37*
G36*
X334300D02*
X331336D01*
X331390Y240986D01*
X331743Y240135D01*
X332304Y239404D01*
X333035Y238843D01*
X333886Y238490D01*
X334300Y238436D01*
Y241400D01*
D02*
G37*
G36*
X446749Y238700D02*
X444800D01*
Y236751D01*
X445275Y236845D01*
X446102Y237398D01*
X446655Y238225D01*
X446749Y238700D01*
D02*
G37*
G36*
X443800D02*
X441851D01*
X441945Y238225D01*
X442498Y237398D01*
X443325Y236845D01*
X443800Y236751D01*
Y238700D01*
D02*
G37*
G36*
X460300Y236464D02*
Y233500D01*
X463264D01*
X463210Y233914D01*
X462857Y234765D01*
X462296Y235496D01*
X461565Y236057D01*
X460714Y236410D01*
X460300Y236464D01*
D02*
G37*
G36*
X261600Y232364D02*
Y229400D01*
X264564D01*
X264510Y229814D01*
X264157Y230665D01*
X263596Y231396D01*
X262865Y231957D01*
X262014Y232310D01*
X261600Y232364D01*
D02*
G37*
G36*
X260600D02*
X260186Y232310D01*
X259335Y231957D01*
X258604Y231396D01*
X258043Y230665D01*
X257690Y229814D01*
X257636Y229400D01*
X260600D01*
Y232364D01*
D02*
G37*
G36*
X388200Y231800D02*
X385236D01*
X385290Y231386D01*
X385643Y230535D01*
X386204Y229804D01*
X386935Y229243D01*
X387786Y228890D01*
X388200Y228836D01*
Y231800D01*
D02*
G37*
G36*
X264564Y228400D02*
X261600D01*
Y225436D01*
X262014Y225490D01*
X262865Y225843D01*
X263596Y226404D01*
X264157Y227135D01*
X264510Y227986D01*
X264564Y228400D01*
D02*
G37*
G36*
X260600D02*
X257636D01*
X257690Y227986D01*
X258043Y227135D01*
X258604Y226404D01*
X259335Y225843D01*
X260186Y225490D01*
X260600Y225436D01*
Y228400D01*
D02*
G37*
G36*
X398272Y223924D02*
X397000D01*
Y222200D01*
X400396D01*
X400326Y222551D01*
X399844Y223272D01*
X399123Y223755D01*
X398272Y223924D01*
D02*
G37*
G36*
X396000D02*
X394728D01*
X393877Y223755D01*
X393156Y223272D01*
X392674Y222551D01*
X392604Y222200D01*
X396000D01*
Y223924D01*
D02*
G37*
G36*
X315800Y223723D02*
Y220759D01*
X318764D01*
X318710Y221172D01*
X318357Y222024D01*
X317796Y222755D01*
X317065Y223316D01*
X316214Y223669D01*
X315800Y223723D01*
D02*
G37*
G36*
X314800D02*
X314386Y223669D01*
X313535Y223316D01*
X312804Y222755D01*
X312243Y222024D01*
X311890Y221172D01*
X311836Y220759D01*
X314800D01*
Y223723D01*
D02*
G37*
G36*
X400396Y221200D02*
X397000D01*
Y219476D01*
X398272D01*
X399123Y219645D01*
X399844Y220128D01*
X400326Y220849D01*
X400396Y221200D01*
D02*
G37*
G36*
X396000D02*
X392604D01*
X392674Y220849D01*
X393156Y220128D01*
X393877Y219645D01*
X394728Y219476D01*
X396000D01*
Y221200D01*
D02*
G37*
G36*
X289500Y221064D02*
Y218100D01*
X292464D01*
X292410Y218514D01*
X292057Y219365D01*
X291496Y220096D01*
X290765Y220657D01*
X289914Y221010D01*
X289500Y221064D01*
D02*
G37*
G36*
X288500D02*
X288086Y221010D01*
X287235Y220657D01*
X286504Y220096D01*
X285943Y219365D01*
X285590Y218514D01*
X285536Y218100D01*
X288500D01*
Y221064D01*
D02*
G37*
G36*
X318764Y219759D02*
X315800D01*
Y216794D01*
X316214Y216849D01*
X317065Y217201D01*
X317796Y217762D01*
X318357Y218494D01*
X318710Y219345D01*
X318764Y219759D01*
D02*
G37*
G36*
X314800D02*
X311836D01*
X311890Y219345D01*
X312243Y218494D01*
X312804Y217762D01*
X313535Y217201D01*
X314386Y216849D01*
X314800Y216794D01*
Y219759D01*
D02*
G37*
G36*
X292464Y217100D02*
X289500D01*
Y214136D01*
X289914Y214190D01*
X290765Y214543D01*
X291496Y215104D01*
X292057Y215835D01*
X292410Y216686D01*
X292464Y217100D01*
D02*
G37*
G36*
X288500D02*
X285536D01*
X285590Y216686D01*
X285943Y215835D01*
X286504Y215104D01*
X287235Y214543D01*
X288086Y214190D01*
X288500Y214136D01*
Y217100D01*
D02*
G37*
G36*
X408181Y215376D02*
X407236Y211851D01*
X411712Y210652D01*
X412657Y214177D01*
X408181Y215376D01*
D02*
G37*
G36*
X270200Y210849D02*
Y208900D01*
X272149D01*
X272055Y209376D01*
X271502Y210202D01*
X270675Y210755D01*
X270200Y210849D01*
D02*
G37*
G36*
X269200D02*
X268724Y210755D01*
X267898Y210202D01*
X267345Y209376D01*
X267250Y208900D01*
X269200D01*
Y210849D01*
D02*
G37*
G36*
X460500Y210349D02*
Y208400D01*
X462450D01*
X462355Y208875D01*
X461802Y209702D01*
X460976Y210255D01*
X460500Y210349D01*
D02*
G37*
G36*
X404847Y211301D02*
X403750Y207205D01*
X407655Y206159D01*
X408752Y210255D01*
X404847Y211301D01*
D02*
G37*
G36*
X272149Y207900D02*
X270200D01*
Y205950D01*
X270675Y206045D01*
X271502Y206598D01*
X272055Y207424D01*
X272149Y207900D01*
D02*
G37*
G36*
X269200D02*
X267250D01*
X267345Y207424D01*
X267898Y206598D01*
X268724Y206045D01*
X269200Y205950D01*
Y207900D01*
D02*
G37*
G36*
X462450Y207400D02*
X460500D01*
Y205451D01*
X460976Y205545D01*
X461802Y206098D01*
X462355Y206925D01*
X462450Y207400D01*
D02*
G37*
G36*
X409718Y209996D02*
X408621Y205900D01*
X412527Y204854D01*
X413624Y208949D01*
X409718Y209996D01*
D02*
G37*
G36*
X414544Y208703D02*
X413447Y204607D01*
X417542Y203509D01*
X418640Y207605D01*
X414544Y208703D01*
D02*
G37*
G36*
X428733Y204901D02*
X427635Y200805D01*
X431731Y199708D01*
X432828Y203803D01*
X428733Y204901D01*
D02*
G37*
G36*
X433749Y203557D02*
X432651Y199461D01*
X436557Y198415D01*
X437654Y202510D01*
X433749Y203557D01*
D02*
G37*
G36*
X261200Y189393D02*
Y187444D01*
X263149D01*
X263055Y187919D01*
X262502Y188746D01*
X261676Y189299D01*
X261200Y189393D01*
D02*
G37*
G36*
X260200D02*
X259724Y189299D01*
X258898Y188746D01*
X258345Y187919D01*
X258250Y187444D01*
X260200D01*
Y189393D01*
D02*
G37*
G36*
X263149Y186444D02*
X261200D01*
Y184494D01*
X261676Y184589D01*
X262502Y185141D01*
X263055Y185968D01*
X263149Y186444D01*
D02*
G37*
G36*
X260200D02*
X258250D01*
X258345Y185968D01*
X258898Y185141D01*
X259724Y184589D01*
X260200Y184494D01*
Y186444D01*
D02*
G37*
G36*
X336007Y291265D02*
X333043D01*
Y288301D01*
X333456Y288355D01*
X334308Y288708D01*
X335039Y289269D01*
X335600Y290000D01*
X335953Y290851D01*
X336007Y291265D01*
D02*
G37*
G36*
X334742Y283302D02*
X331683D01*
Y279750D01*
X334742D01*
Y283302D01*
D02*
G37*
G36*
Y278750D02*
X331683D01*
Y275199D01*
X334742D01*
Y278750D01*
D02*
G37*
%LPD*%
D10*
X418200Y351247D02*
X419700Y328747D01*
X542500Y352000D02*
X546500Y357000D01*
X311500Y286500D02*
X317500Y300000D01*
X306000Y194000D02*
X320500Y197500D01*
X230000Y420500D02*
X241500Y429000D01*
X337500Y201000D02*
X343000Y213000D01*
X214000Y315000D02*
X216000Y314000D01*
X313000Y362000D02*
X316500Y377500D01*
X446000Y340500D02*
X453500Y357500D01*
X450000Y184000D02*
X456000Y182000D01*
X427000Y369000D02*
X434000Y398500D01*
X450000Y384500D02*
X463000Y436500D01*
X416000Y348000D02*
X417000Y344000D01*
X231000Y222000D02*
X235000Y199500D01*
X431500Y310500D02*
X438500Y324000D01*
X472500Y465500D02*
X487500Y468500D01*
X290500Y452500D02*
X308500Y456000D01*
X417500Y361000D02*
X421500Y367000D01*
X333000Y336500D02*
X338500Y350500D01*
X427500Y192000D02*
X438500Y188000D01*
X308500Y279500D02*
X309500Y281000D01*
X398500Y200000D02*
X419500Y195000D01*
X329000Y432500D02*
X334000Y454000D01*
X357500Y241500D02*
X361000Y249500D01*
X222500Y287000D02*
X224500Y267000D01*
X257000Y439000D02*
X275000Y447500D01*
X456000Y182000D02*
X459000Y181000D01*
X502000Y468500D02*
X523000Y466500D01*
X453500Y357500D02*
X454000Y362000D01*
X546000Y461500D02*
X578500Y450000D01*
X438500Y324000D02*
X446000Y340500D01*
X415000Y469000D02*
X428500Y468500D01*
X216000Y374500D02*
X222000Y400000D01*
X419500Y195000D02*
X427500Y192000D01*
X471500Y464500D02*
X472500Y465500D01*
X416000Y355000D02*
X417500Y361000D01*
X287000Y186500D02*
X306000Y194000D01*
X242500Y158000D02*
X244000Y158500D01*
X224500Y267000D02*
X229000Y239500D01*
X300500Y337500D02*
Y347500D01*
X383000Y467000D02*
X415000Y469000D01*
X428500Y468500D02*
X438000Y467000D01*
X334000Y457500D02*
X334500Y457000D01*
X528500Y321500D02*
X542500Y352000D01*
X303000Y353500D02*
X311500Y359000D01*
X215000Y369500D02*
X216000Y374500D01*
X426000Y297500D02*
X427500Y302000D01*
X448500Y462500D02*
X449000Y464000D01*
X345000Y415500D02*
X351000Y439500D01*
X332500Y362000D02*
X335000Y361500D01*
X255000Y168000D02*
X264500Y174000D01*
X275000Y447500D02*
X290500Y452500D01*
X208000Y315500D02*
X214000Y315000D01*
X241000Y158500D02*
X242500Y158000D01*
X303500Y306000D02*
X305500Y283000D01*
X244000Y158500D02*
X255000Y168000D01*
X448000Y369000D02*
X449000Y368500D01*
X523000Y466500D02*
X546000Y461500D01*
X274500Y179500D02*
X287000Y186500D01*
X454000Y362000D02*
Y364500D01*
X367500Y220500D02*
X368500Y209000D01*
X429000Y304500D02*
X430500Y307500D01*
X264500Y174000D02*
X274500Y179500D01*
X447500Y370000D02*
X450000Y384500D01*
X354500Y235000D02*
X357500Y241500D01*
X365500Y237000D02*
X367500Y220500D01*
X452000Y367000D02*
X454000Y364500D01*
X421500Y367000D02*
X427000Y369000D01*
X416000Y348000D02*
Y355000D01*
X580500Y448000D02*
Y449000D01*
X447500Y370000D02*
X448000Y369000D01*
X427500Y302000D02*
X429000Y304500D01*
X222000Y400000D02*
X226000Y413500D01*
X449000Y368500D02*
X451000Y368000D01*
X337500Y359500D02*
X338500Y358000D01*
X558500Y360000D02*
X580500Y448000D01*
X322500Y403500D02*
X329000Y432500D01*
X311500Y359000D02*
X313000Y362000D01*
X219000Y308000D02*
X222500Y287000D01*
X387000Y202000D02*
X398500Y200000D01*
X308500Y456000D02*
X320000Y457500D01*
X421500Y295000D02*
Y299500D01*
X227500Y418000D02*
X230000Y420500D01*
X463000Y436500D02*
X471500Y464500D01*
X376500Y466000D02*
X383000Y467000D01*
X487500Y468500D02*
X502000D01*
X425000Y295000D02*
X426000Y297500D01*
X334000Y454000D02*
X334500Y457000D01*
X213500Y363000D02*
X215000Y369500D01*
X362000Y252000D02*
X364000D01*
X430500Y307500D02*
X431500Y310500D01*
X332500Y363000D02*
X333000Y368000D01*
X203000Y316000D02*
X208000Y315500D01*
X459000Y181000D02*
X467500Y198000D01*
X476000Y215500D02*
X492500Y249000D01*
X528500Y321500D01*
X451000Y368000D02*
X452000Y367000D01*
X226000Y413500D02*
X227500Y418000D01*
X240000Y160000D02*
X241000Y158500D01*
X241500Y429000D02*
X257000Y439000D01*
X316500Y377500D02*
X322500Y403500D01*
X237500Y179000D02*
X240000Y160000D01*
X320500Y197500D02*
X327500Y198500D01*
X467500Y198000D02*
X476000Y215500D01*
X438500Y188000D02*
X450000Y184000D01*
X333000Y368000D02*
X337000Y384500D01*
X302000Y319500D02*
X303500Y306000D01*
X364000Y246500D02*
Y252000D01*
X421500Y295000D02*
X425000D01*
X335000Y361500D02*
X337500Y359500D01*
X202500Y316500D02*
Y318000D01*
X578500Y450000D02*
X580500Y449000D01*
X368500Y209000D02*
X369500Y203500D01*
X338500Y350500D02*
Y358000D01*
X438500Y419500D02*
X442500Y437500D01*
X357500Y461500D02*
X376500Y466000D01*
X235000Y199500D02*
X237500Y179000D01*
X550500Y359500D02*
X558500Y360000D01*
X206500Y334500D02*
X213500Y363000D01*
X369500Y203500D02*
X371000Y202500D01*
X202500Y318000D02*
X206500Y334500D01*
X320000Y457500D02*
X334000D01*
X447000Y465500D02*
X449000Y464000D01*
X361000Y249500D02*
X362000Y252000D01*
X300500Y337500D02*
X302000Y319500D01*
X364000Y246500D02*
X365500Y237000D01*
X229000Y239500D02*
X231000Y222000D01*
X418500Y321500D02*
X421500Y299500D01*
X343000Y213000D02*
X348000Y221500D01*
X351000Y439500D02*
X357500Y461500D01*
X305500Y280000D02*
Y283000D01*
X327500Y198500D02*
X337500Y201000D01*
X442500Y437500D02*
X448500Y462500D01*
X317500Y300000D02*
X326500Y320500D01*
X434000Y398500D02*
X438500Y419500D01*
X300500Y347500D02*
X303000Y353500D01*
X307000Y279000D02*
X308500Y279500D01*
X202500Y316500D02*
X203000Y316000D01*
X337000Y384500D02*
X345000Y415500D01*
X309500Y281000D02*
X311500Y286500D01*
X371000Y202500D02*
X387000Y202000D01*
X348000Y221500D02*
X354500Y235000D01*
X546500Y357000D02*
X550500Y359500D01*
X332500Y362000D02*
Y363000D01*
X305500Y280000D02*
X306000Y279000D01*
X216000Y314000D02*
X219000Y308000D01*
X438000Y467000D02*
X447000Y465500D01*
X306000Y279000D02*
X307000D01*
X326500Y320500D02*
X333000Y336500D01*
D27*
X458787Y250602D02*
D03*
X465480D02*
D03*
X351007Y328800D02*
D03*
X357700D02*
D03*
D28*
X412147Y291616D02*
D03*
Y284923D02*
D03*
X405400Y307193D02*
D03*
Y300500D02*
D03*
X357100Y308254D02*
D03*
Y314946D02*
D03*
X402000Y333346D02*
D03*
Y326654D02*
D03*
X412600Y302054D02*
D03*
Y308746D02*
D03*
X477413Y284260D02*
D03*
Y277567D02*
D03*
X449912D02*
D03*
Y284260D02*
D03*
D74*
X397397Y318251D02*
G03*
X398101Y317156I1203J0D01*
G01*
D02*
G03*
X398600Y317048I499J1094D01*
G01*
X418803Y290019D02*
G03*
X419246Y290000I444J5027D01*
G01*
X428985Y216800D02*
G03*
X430400Y218215I0J1415D01*
G01*
X416100Y255600D02*
X416470Y255970D01*
X381402Y294798D02*
X398200D01*
X377700Y307750D02*
X389154D01*
X372800Y304100D02*
X389504D01*
X397397Y318251D02*
Y327238D01*
X398134Y304709D02*
X402916D01*
X398134Y304108D02*
Y304709D01*
X470313Y277160D02*
Y281776D01*
X395200Y283800D02*
X411024D01*
X368400Y341845D02*
X374839D01*
X355423Y306577D02*
X357100Y308254D01*
X352445Y305848D02*
X354850Y308254D01*
X349150Y329496D02*
X349754Y330100D01*
X362596Y295000D02*
X372800D01*
X355400D02*
X359004D01*
X389504Y304100D02*
X390754Y302850D01*
X372800Y295000D02*
Y304100D01*
X389840Y322658D02*
X390143Y322961D01*
Y330700D01*
X378400Y310450D02*
Y310637D01*
Y310450D02*
X379400Y309450D01*
X377700Y307750D02*
X379400Y309450D01*
X402000Y326654D02*
X403389Y328043D01*
X410500D01*
X402000Y320389D02*
Y326654D01*
Y320389D02*
X403104Y319284D01*
Y315916D02*
Y319284D01*
X401504Y314315D02*
X403104Y315916D01*
X399017Y314315D02*
X401504D01*
X398600Y313898D02*
X399017Y314315D01*
X419246Y290000D02*
X420000D01*
X393111Y313040D02*
Y322711D01*
X412969Y215230D02*
X414328Y213872D01*
X385281Y330049D02*
Y332924D01*
X383057Y330700D02*
X385281Y332924D01*
X357100Y320514D02*
X357700Y321114D01*
X392794Y312724D02*
X393111Y313040D01*
X386641Y285950D02*
Y289049D01*
X382228Y284939D02*
X382357D01*
X382409Y284886D01*
X384673D01*
X385737Y285950D01*
X398600Y310749D02*
X399017Y311166D01*
X401528D01*
X401764Y311402D01*
X403702D01*
X411433Y310525D02*
X412075Y310946D01*
X412600Y308746D02*
Y318200D01*
X412075Y310946D02*
X412170Y308728D01*
X412187Y308334D01*
X403702Y311402D02*
X410500Y318200D01*
X405400Y300500D02*
X406954Y302054D01*
X412600D01*
X392694Y289026D02*
X393111Y289443D01*
X392694Y285890D02*
Y289026D01*
X392107Y285303D02*
X392694Y285890D01*
X393111Y289443D02*
X393810Y288743D01*
X398200D01*
X387973Y271591D02*
X393009D01*
X358300Y275700D02*
Y280900D01*
X397477Y289466D02*
X398200Y288743D01*
X384900Y298100D02*
X398047D01*
X398200Y297947D01*
X411046Y300500D02*
X412600Y302054D01*
X380095Y287567D02*
X380512D01*
Y288879D01*
X380095Y286539D02*
Y287567D01*
X376460Y282904D02*
X380095Y286539D01*
X375850Y282904D02*
X376460D01*
X373118Y276500D02*
X379169Y270450D01*
X375850Y277304D02*
X380204Y272950D01*
X378750Y281460D02*
X382228Y284939D01*
X378750Y277940D02*
Y281460D01*
Y277940D02*
X381240Y275450D01*
X387200Y282600D02*
X389202D01*
X389302Y282700D01*
X385737Y285950D02*
X386641D01*
X386831Y270450D02*
X387973Y271591D01*
X379169Y270450D02*
X386831D01*
X386996Y274150D02*
X395150D01*
X385796Y272950D02*
X386996Y274150D01*
X380204Y272950D02*
X385796D01*
X381240Y275450D02*
X384760D01*
X386001Y276691D01*
X388713D01*
X432950Y232550D02*
X433300Y232200D01*
X433750Y217175D02*
Y232650D01*
X432200Y231800D02*
X432900Y232500D01*
X431700Y231300D02*
X432200Y231800D01*
X386811Y288879D02*
Y289443D01*
X449849Y216647D02*
Y225547D01*
X375850Y277304D02*
Y282904D01*
X389599Y284600D02*
X391800D01*
X389599Y282402D02*
Y284600D01*
X392500Y312724D02*
X392794D01*
X362146Y295450D02*
X362596Y295000D01*
X359454Y295450D02*
X362146D01*
X359004Y295000D02*
X359454Y295450D01*
X355400Y295000D02*
Y296243D01*
X389791Y330348D02*
X390143Y330700D01*
X445446Y229950D02*
X449849Y225547D01*
X411024Y283800D02*
X412147Y284923D01*
X398200Y281657D02*
X405200Y274657D01*
Y271600D02*
Y274657D01*
X395230Y304108D02*
X398134D01*
X402916Y304709D02*
X405400Y307193D01*
X411433Y310525D02*
X411433Y310525D01*
X411100Y310307D02*
X411433Y310525D01*
X410500Y318200D02*
X412600D01*
X411433Y310525D02*
X411433Y310525D01*
X411433Y310525D02*
X411433Y310525D01*
X412075Y310946D02*
X412487Y310533D01*
X360800Y292200D02*
X362857D01*
X363878Y291178D01*
X361857Y289157D02*
X363878Y291178D01*
X355400Y289157D02*
X361857D01*
X393922Y302800D02*
X395230Y304108D01*
X391851Y302800D02*
X393922D01*
X391801Y302850D02*
X391851Y302800D01*
X390754Y302850D02*
X391801D01*
X395121Y307675D02*
X398134D01*
X393446Y309350D02*
X395121Y307675D01*
X390754Y309350D02*
X393446D01*
X389154Y307750D02*
X390754Y309350D01*
X392100Y306086D02*
Y306100D01*
Y306086D02*
X392886Y305300D01*
X381600Y294995D02*
Y295000D01*
X389302Y282700D02*
X389599Y282402D01*
Y280900D02*
Y282402D01*
X388713Y276691D02*
X388754Y276650D01*
X393354D01*
X393954Y277250D01*
X395150Y274150D02*
X395300Y274000D01*
X399196Y274700D02*
X399300D01*
X393954Y277250D02*
X396646D01*
X392317Y270900D02*
X393009Y271591D01*
X392000Y270900D02*
X392317D01*
X392500Y312724D02*
Y317300D01*
X396646Y277250D02*
X399196Y274700D01*
X350100Y289157D02*
Y296700D01*
X343885Y300550D02*
X358082D01*
X344920Y303050D02*
X357046D01*
X345657Y305848D02*
X352445D01*
X342650Y308856D02*
X345657Y305848D01*
X371200Y276500D02*
X373118D01*
X395400Y262600D02*
X415900D01*
X394156Y327238D02*
Y334139D01*
Y327238D02*
X397397D01*
X393189Y335106D02*
X394156Y334139D01*
X385196Y343600D02*
X388582Y340214D01*
Y338298D02*
Y340214D01*
Y338298D02*
X391775Y335106D01*
X376387Y336100D02*
X381400D01*
X391775Y335106D02*
X393189D01*
X432500Y231500D02*
X432600D01*
X432200Y231800D02*
X432500Y231500D01*
X429600Y219015D02*
Y228700D01*
X429696D01*
X420533Y223400D02*
X422400D01*
X425650Y227250D02*
X426400Y226500D01*
X421654Y227250D02*
X425650D01*
X421104Y226700D02*
X421654Y227250D01*
X429600Y219015D02*
X430400Y218215D01*
X429696Y228700D02*
X429996Y229000D01*
X429246Y229750D02*
X429996Y229000D01*
X421254Y229750D02*
X429246D01*
X432700Y232700D02*
X432900Y232500D01*
X432950Y232550D01*
X440700Y232592D02*
Y232600D01*
X433300Y232200D02*
X433750Y232650D01*
X440604Y227800D02*
X442754Y229950D01*
X445446D01*
X440504Y227900D02*
X440604Y227800D01*
X440700Y232592D02*
X454197D01*
X444300Y238300D02*
X447508Y235092D01*
X455233D01*
X457325Y233000D01*
X454197Y232592D02*
X458040Y228750D01*
X437400Y227900D02*
X440504D01*
X444300Y238300D02*
Y239200D01*
X446750Y214700D02*
Y214974D01*
X445500Y216400D02*
X446750Y215150D01*
X442509Y216400D02*
X445500D01*
X442109Y216000D02*
X442509Y216400D01*
X440934Y217175D02*
X442109Y216000D01*
X433750Y217175D02*
X440934D01*
X439898Y214675D02*
X443900Y210673D01*
X437689Y214675D02*
X439898D01*
X437689Y214123D02*
Y214675D01*
X431382Y214123D02*
X437689D01*
X431382Y211347D02*
Y214123D01*
X430306Y210271D02*
X431382Y211347D01*
X450000Y214065D02*
Y216496D01*
Y214065D02*
X450000Y214065D01*
Y210000D02*
Y214065D01*
X454200Y213300D02*
Y213400D01*
X454454Y208754D02*
X455546D01*
X452450Y206750D02*
X454454Y208754D01*
X447253Y206750D02*
X452450D01*
X454130Y220955D02*
Y227352D01*
X457325Y233000D02*
X459800D01*
X417500Y441400D02*
X417700Y441600D01*
X402500Y441400D02*
X417500D01*
X338400Y279800D02*
Y281300D01*
X340100Y283000D01*
Y292600D01*
X339400Y268500D02*
X343350Y272450D01*
Y293946D01*
X341124Y296172D02*
X343350Y293946D01*
X341124Y296172D02*
Y301376D01*
X338643Y303876D02*
X344095D01*
X326974Y276474D02*
Y292207D01*
X338643Y303876D01*
X348900Y279250D02*
Y282657D01*
X355400Y289157D01*
X350100D02*
X355400D01*
X358082Y300550D02*
X358882Y301350D01*
X357046Y303050D02*
X357846Y303850D01*
X358882Y301350D02*
X364841D01*
X361217Y304525D02*
X364866D01*
X360542Y303850D02*
X361217Y304525D01*
X357846Y303850D02*
X360542D01*
X354850Y308254D02*
Y310504D01*
X392886Y305300D02*
X393195Y305609D01*
X378505Y354306D02*
Y355443D01*
X381739Y352943D02*
X388346D01*
X379852Y351056D02*
X381739Y352943D01*
X377159Y351056D02*
X379852D01*
X375272Y352943D02*
X377159Y351056D01*
X371400Y352943D02*
X375272D01*
X378505Y355443D02*
X384031Y360969D01*
X392209Y352791D01*
X391854Y348550D02*
X394050D01*
X388959Y351445D02*
X391854Y348550D01*
X388959Y351445D02*
Y352331D01*
X388346Y352943D02*
X388959Y352331D01*
X394050Y348550D02*
X398500Y344100D01*
X373143Y347600D02*
X377000D01*
X376595Y343600D02*
X385196D01*
X374839Y341845D02*
X376595Y343600D01*
X376300Y336187D02*
X376387Y336100D01*
X421988Y280912D02*
Y282083D01*
X415363Y283623D02*
X418931D01*
X414200Y284785D02*
X415363Y283623D01*
X424184Y284484D02*
Y284484D01*
X423334Y285333D02*
X424184Y284484D01*
X428000Y288300D01*
X420642Y285333D02*
X423334D01*
X418931Y283623D02*
X420642Y285333D01*
X420000Y278924D02*
X421988Y280912D01*
X446750Y214974D02*
Y215150D01*
X450000Y210000D02*
X450000Y210000D01*
X443900Y194300D02*
Y210673D01*
X446750Y214974D02*
X447200Y215424D01*
X449849Y216647D02*
X450000Y216496D01*
X446625Y207378D02*
X447253Y206750D01*
X433750Y216750D02*
Y217175D01*
X454130Y220955D02*
X457500Y217585D01*
Y212004D02*
Y217585D01*
X455546Y208754D02*
Y210050D01*
X457500Y212004D01*
X449912Y284260D02*
X452360D01*
X454400Y286300D01*
X457144Y280900D02*
X458887D01*
X454400Y286300D02*
X455268Y285432D01*
Y282776D02*
Y285432D01*
Y282776D02*
X457144Y280900D01*
X452454Y289550D02*
X459460D01*
X465005Y284005D01*
X452304Y289400D02*
X452454Y289550D01*
X449900Y289400D02*
X452304D01*
X465005Y277658D02*
Y284005D01*
Y277658D02*
X465503Y277160D01*
X458887Y283731D02*
X461539D01*
X462505Y282765D01*
Y279035D02*
Y282765D01*
X461539Y278069D02*
X462505Y279035D01*
X456235Y278069D02*
X461539D01*
X449900Y289400D02*
Y293300D01*
X432300D02*
X449900D01*
X342650Y308856D02*
Y332146D01*
X349150Y329496D02*
Y332146D01*
X347246Y334050D02*
X349150Y332146D01*
X344554Y334050D02*
X347246D01*
X342650Y332146D02*
X344554Y334050D01*
X357700Y321114D02*
Y328800D01*
X357100Y314946D02*
Y320514D01*
X344095Y303876D02*
X344920Y303050D01*
X343059Y301376D02*
X343885Y300550D01*
X341124Y301376D02*
X343059D01*
X354850Y310504D02*
X357100Y308254D01*
X368400Y339243D02*
Y341845D01*
X371400Y345857D02*
X373143Y347600D01*
X373243Y332157D02*
X376300Y329100D01*
X368400Y332157D02*
X373243D01*
X354878Y339243D02*
X368400D01*
X353491Y337856D02*
X354878Y339243D01*
X353491Y331284D02*
Y337856D01*
X351007Y328800D02*
X353491Y331284D01*
X358200Y275800D02*
Y276400D01*
Y275800D02*
X358300Y275700D01*
X427600Y211200D02*
X428985Y216800D01*
X425812Y214589D02*
X426400Y226500D01*
X443400Y193800D02*
X443900Y194300D01*
X412227Y224553D02*
X414024Y226350D01*
X403639Y224553D02*
X412227D01*
X411192Y227053D02*
X412988Y228850D01*
X405735Y227053D02*
X411192D01*
X420769Y226700D02*
X421104D01*
X418619Y228850D02*
X420769Y226700D01*
X417583Y226350D02*
X420533Y223400D01*
X414024Y226350D02*
X417583D01*
X419015Y231989D02*
X421254Y229750D01*
X466150Y228750D02*
X466400Y228500D01*
X458040Y228750D02*
X466150D01*
X437870Y255970D02*
X438000Y256100D01*
X436104Y258800D02*
X436654Y259350D01*
X428273Y258800D02*
X436104D01*
X439896D02*
X441100D01*
X436654Y259350D02*
X439346D01*
X439896Y258800D01*
X425273Y261800D02*
X428273Y258800D01*
X412988Y228850D02*
X418619D01*
X396789Y231989D02*
X419015D01*
X403299Y229489D02*
X405735Y227053D01*
X400607Y229489D02*
X403299D01*
X401953Y226239D02*
X403639Y224553D01*
X399867Y228750D02*
X400607Y229489D01*
X396500Y231700D02*
X396789Y231989D01*
X474930Y281776D02*
X477413Y284260D01*
X470313Y281776D02*
X474930D01*
X469713Y277160D02*
X470313D01*
X405000Y236700D02*
X405200Y236900D01*
X396500Y236700D02*
X405000D01*
X375240D02*
X396500D01*
X375240Y234531D02*
Y236700D01*
Y234531D02*
X378185D01*
X379843Y232873D01*
Y225527D02*
Y232873D01*
X378185Y223869D02*
X379843Y225527D01*
X375240Y223869D02*
X378185D01*
X375240Y221700D02*
Y223869D01*
X423800Y426900D02*
X423900Y426800D01*
X423800Y426900D02*
Y445000D01*
X427100Y459200D02*
X430700Y422000D01*
X315400Y415200D02*
Y435265D01*
X314600Y435200D02*
X315335D01*
X315400Y435265D01*
X314700Y414500D02*
X315400Y415200D01*
X289700Y414500D02*
X314700D01*
X557600Y413900D02*
Y438500D01*
X558700Y439600D01*
X561318Y411705D02*
X563500Y448200D01*
X561300Y411400D02*
X561400Y411700D01*
X425273Y271642D02*
X429058D01*
X434200Y266500D01*
X439260Y282260D02*
X439659D01*
X432300Y275300D02*
X439260Y282260D01*
X465503Y277160D02*
X469713D01*
X465480Y250602D02*
Y272927D01*
X469713Y277160D01*
X455268Y271132D02*
Y279035D01*
X456235Y278069D02*
X458887D01*
Y283731D02*
Y284640D01*
X455268Y279035D02*
X456235Y278069D01*
X458887Y277160D02*
Y278069D01*
X455268Y271132D02*
X455500Y270900D01*
X483666Y284260D02*
X487666Y280260D01*
X477413Y284260D02*
X483666D01*
X446927Y271642D02*
X449912Y274628D01*
Y277567D01*
X396500Y226700D02*
X398550Y228750D01*
X399867D01*
X416470Y255970D02*
X437870D01*
X416100Y262300D02*
Y262400D01*
X328900Y256800D02*
X358341D01*
X359522Y257982D01*
X364478D01*
X366477Y255982D01*
X386641Y289049D02*
X386811Y288879D01*
X415900Y262600D02*
X416100Y262400D01*
X381402Y294798D02*
X381600Y294995D01*
X414328Y213872D02*
X419942D01*
X375240Y241700D02*
X376016D01*
X379843Y245527D01*
Y252873D01*
X378185Y254531D02*
X379843Y252873D01*
X372669Y254531D02*
X378185D01*
X369500Y257700D02*
X372669Y254531D01*
X368112Y253052D02*
X374465Y246700D01*
X368112Y253052D02*
Y253703D01*
X366477Y255339D02*
X368112Y253703D01*
X366477Y255339D02*
Y255982D01*
X374465Y246700D02*
X375240D01*
X368977Y257177D02*
X369500Y257700D01*
X339400Y268500D02*
X369000D01*
X322994Y265506D02*
X328632D01*
X319500Y269000D02*
X322994Y265506D01*
X364841Y301350D02*
X364866Y301376D01*
X319500Y269000D02*
X326974Y276474D01*
X368500Y361600D02*
X370700Y363800D01*
X355756Y361600D02*
X368500D01*
X355756D02*
X364413Y352943D01*
X371400D01*
X554100Y379300D02*
Y379400D01*
X543170Y362130D02*
X554100Y379300D01*
X561300Y411400D02*
X561318Y411705D01*
X473100Y444700D02*
X491300Y460200D01*
X366400Y442900D02*
X393200Y452800D01*
X344700Y379200D02*
X345500Y352100D01*
X321400Y431300D02*
X321600Y431400D01*
X311400Y449300D02*
X321400Y431300D01*
X248300Y170700D02*
X248481Y170519D01*
X268900Y185400D01*
D76*
X270700Y311400D02*
D03*
D77*
X260700D02*
D03*
X268700Y321400D02*
D03*
X258700D02*
D03*
X270700Y331400D02*
D03*
X260700D02*
D03*
X268700Y341400D02*
D03*
X258700D02*
D03*
X270700Y351400D02*
D03*
X260700D02*
D03*
D78*
X416100Y255600D02*
D03*
X385700Y304500D02*
D03*
X387400Y311500D02*
D03*
X378400Y310637D02*
D03*
X387200Y282600D02*
D03*
X395200Y283800D02*
D03*
X405200Y271600D02*
D03*
X360800Y292200D02*
D03*
X392100Y306100D02*
D03*
X381600Y295000D02*
D03*
X395300Y274000D02*
D03*
X399300Y274700D02*
D03*
X392000Y270900D02*
D03*
X370000Y289700D02*
D03*
X350100Y296700D02*
D03*
X351600Y309600D02*
D03*
X384900Y298100D02*
D03*
X355700Y306300D02*
D03*
X371200Y276500D02*
D03*
X395400Y262600D02*
D03*
X392500Y317300D02*
D03*
X399400Y331800D02*
D03*
X384500Y338898D02*
D03*
X381400Y336100D02*
D03*
X385281Y330049D02*
D03*
X432600Y231500D02*
D03*
X429600Y228700D02*
D03*
X422400Y223400D02*
D03*
X440700Y232600D02*
D03*
X444100Y226700D02*
D03*
X444300Y239200D02*
D03*
X446750Y214700D02*
D03*
X454200Y213300D02*
D03*
X454130Y227352D02*
D03*
X449820Y217400D02*
D03*
X417700Y441600D02*
D03*
X402500Y441400D02*
D03*
X338400Y279800D02*
D03*
X340100Y292600D02*
D03*
X355000Y297300D02*
D03*
X378505Y354306D02*
D03*
X392209Y352791D02*
D03*
X377000Y347600D02*
D03*
X421988Y282083D02*
D03*
X428000Y288300D02*
D03*
X446625Y207378D02*
D03*
X450000Y210000D02*
D03*
X460000Y207900D02*
D03*
X454400Y286300D02*
D03*
X358200Y276400D02*
D03*
X443400Y193800D02*
D03*
X437400Y227900D02*
D03*
X466400Y228500D02*
D03*
X438000Y256100D02*
D03*
X441100Y258800D02*
D03*
X401953Y226239D02*
D03*
X405200Y236900D02*
D03*
X423900Y426800D02*
D03*
X423800Y445000D02*
D03*
X430700Y422000D02*
D03*
X314600Y435200D02*
D03*
X289700Y414500D02*
D03*
X557600Y413900D02*
D03*
X563500Y448200D02*
D03*
X558700Y439600D02*
D03*
X561400Y411700D02*
D03*
X434200Y266500D02*
D03*
X432300Y275300D02*
D03*
Y293300D02*
D03*
X455500Y270900D02*
D03*
X416100Y262300D02*
D03*
X369500Y257700D02*
D03*
X369000Y268500D02*
D03*
X328900Y256800D02*
D03*
X328632Y265506D02*
D03*
X497700Y441600D02*
D03*
X478800Y443400D02*
D03*
X286200Y406400D02*
D03*
X269700Y208400D02*
D03*
X260700Y186944D02*
D03*
X554100Y379400D02*
D03*
X543170Y362130D02*
D03*
X491300Y460200D02*
D03*
X473100Y444700D02*
D03*
X427100Y459200D02*
D03*
X393200Y452800D02*
D03*
X366400Y442900D02*
D03*
X344700Y379200D02*
D03*
X345500Y352100D02*
D03*
X321600Y431400D02*
D03*
X311400Y449300D02*
D03*
X248300Y170700D02*
D03*
X268900Y185400D02*
D03*
D79*
X383000Y279700D02*
D03*
X364900Y278000D02*
D03*
X416200Y267300D02*
D03*
X332543Y291765D02*
D03*
X377500Y368800D02*
D03*
X459800Y233000D02*
D03*
X454900Y293800D02*
D03*
X357907Y320907D02*
D03*
X415800Y222100D02*
D03*
X388700Y232300D02*
D03*
X472600Y268000D02*
D03*
X502600Y337700D02*
D03*
X518500Y369700D02*
D03*
X542300Y385203D02*
D03*
X549800Y418400D02*
D03*
X543000Y435600D02*
D03*
X520200Y445000D02*
D03*
X486500Y410700D02*
D03*
X475700Y372300D02*
D03*
X473600Y328600D02*
D03*
X488800Y298450D02*
D03*
X409900Y392200D02*
D03*
X401900Y429860D02*
D03*
X391400Y444600D02*
D03*
X376400Y423800D02*
D03*
X364700Y404900D02*
D03*
X356000Y373200D02*
D03*
X237700Y375400D02*
D03*
X231700Y341536D02*
D03*
X250447Y407800D02*
D03*
X276200Y356600D02*
D03*
X283800Y392900D02*
D03*
X274800Y414376D02*
D03*
X302300Y429200D02*
D03*
X295100Y251400D02*
D03*
X334800Y241900D02*
D03*
X315300Y220259D02*
D03*
X289000Y217600D02*
D03*
X261100Y228900D02*
D03*
X277600Y306200D02*
D03*
X237000Y312100D02*
D03*
X246332Y271500D02*
D03*
D80*
X410500Y318200D02*
D03*
Y328043D02*
D03*
D81*
X358300Y262900D02*
D03*
X389599Y263183D02*
D03*
X358300Y280900D02*
D03*
X389599D02*
D03*
D82*
X330900Y310550D02*
D03*
X331184Y279250D02*
D03*
X348900Y310550D02*
D03*
Y279250D02*
D03*
D83*
X469713Y277160D02*
D03*
Y284640D02*
D03*
X458887D02*
D03*
Y280900D02*
D03*
Y277160D02*
D03*
D84*
X319500Y269000D02*
D03*
X339400Y268500D02*
D03*
X398500Y344100D02*
D03*
D85*
X487666Y280260D02*
D03*
X439659Y282260D02*
D03*
D86*
X425273Y251958D02*
D03*
Y261800D02*
D03*
Y271642D02*
D03*
X446927Y251958D02*
D03*
Y261800D02*
D03*
Y271642D02*
D03*
D87*
X371400Y345857D02*
D03*
Y352943D02*
D03*
X376300Y336187D02*
D03*
Y329100D02*
D03*
X398200Y288743D02*
D03*
Y281657D02*
D03*
X355400Y289157D02*
D03*
Y296243D02*
D03*
X368400Y339243D02*
D03*
Y332157D02*
D03*
D88*
X383057Y330700D02*
D03*
X390143D02*
D03*
D89*
X403000Y361000D02*
D03*
X355756Y361000D02*
D03*
D90*
X430129Y210522D02*
D03*
X427600Y211200D02*
D03*
X425185Y211847D02*
D03*
X422713Y212509D02*
D03*
X420241Y213172D02*
D03*
D91*
X436847Y208213D02*
D03*
X413269Y214530D02*
D03*
D92*
X436910Y197802D02*
D03*
X408009Y205546D02*
D03*
D93*
X427023Y200452D02*
D03*
X417896Y202897D02*
D03*
D94*
X385464Y363800D02*
D03*
X370700D02*
D03*
D95*
X396500Y251700D02*
D03*
Y246700D02*
D03*
Y241700D02*
D03*
Y236700D02*
D03*
Y231700D02*
D03*
Y226700D02*
D03*
Y221700D02*
D03*
X375240Y251700D02*
D03*
Y246700D02*
D03*
Y241700D02*
D03*
Y236700D02*
D03*
Y231700D02*
D03*
Y226700D02*
D03*
Y221700D02*
D03*
D96*
X398600Y317048D02*
D03*
Y313898D02*
D03*
Y310749D02*
D03*
Y307599D02*
D03*
Y304450D02*
D03*
Y301300D02*
D03*
Y298150D02*
D03*
Y295001D02*
D03*
X365332D02*
D03*
Y298150D02*
D03*
Y301300D02*
D03*
Y304450D02*
D03*
Y307599D02*
D03*
Y310749D02*
D03*
Y313898D02*
D03*
Y317048D02*
D03*
D97*
X392990Y289390D02*
D03*
X389840D02*
D03*
X386690D02*
D03*
X383541D02*
D03*
X380391D02*
D03*
X377242D02*
D03*
X374092D02*
D03*
X370942D02*
D03*
Y322658D02*
D03*
X374092D02*
D03*
X377242D02*
D03*
X380391D02*
D03*
X383541D02*
D03*
X386690D02*
D03*
X389840D02*
D03*
X392990D02*
D03*
D98*
X288500Y240000D02*
D03*
X267500Y398000D02*
D03*
X425500Y240000D02*
D03*
X514000Y411000D02*
D03*
X392500Y421000D02*
D03*
M02*
