M48
;Layer_Color=9474304
;FILE_FORMAT=2:5
INCH,LZ
;TYPE=PLATED
T1F00S00C0.01500
T2F00S00C0.02800
T3F00S00C0.03150
T4F00S00C0.10039
%
T01
X03289Y02568
X0328632Y0265506
X03384Y02798
X03401Y02926
X03501Y02967
X0355Y02973
X03557Y03063
X03516Y03096
X03608Y02922
X037Y02897
X03712Y02765
X0369Y02685
X03695Y02577
X03582Y02764
X03872Y02826
X03952Y02838
X03953Y0274
X03993Y02747
X04052Y02716
X0392Y02709
X03954Y02626
X04161Y02623
Y02556
X0438Y02561
X04411Y02588
X04342Y02665
X04323Y02753
X0421988Y0282083
X0428Y02883
X04323Y02933
X04544Y02863
X04555Y02709
X04443Y02392
X04407Y02326
X04374Y02279
X04441Y02267
X045413Y0227352
X04664Y02285
X046Y02079
X04542Y02133
X045Y021
X0446625Y0207378
X044675Y02147
X044982Y02174
X04434Y01938
X04326Y02315
X04296Y02287
X04224Y02234
X0401953Y0226239
X04052Y02369
X03849Y02981
X03816Y0295
X03857Y03045
X03921Y03061
X03874Y03115
X03784Y0310637
X02697Y02084
X02689Y01854
X02607Y0186944
X02483Y01707
X02862Y04064
X02897Y04145
X03114Y04493
X03146Y04352
X03216Y04314
X03664Y04429
X03932Y04528
X04025Y04414
X04177Y04416
X04238Y0445
X04271Y04592
X04239Y04268
X04307Y0422
X0392209Y0352791
X0378505Y0354306
X0377Y03476
X03814Y03361
X03845Y0338898
X0385281Y0330049
X03994Y03318
X03925Y03173
X0357907Y0320907
X03455Y03521
X03447Y03792
X04731Y04447
X04788Y04434
X04977Y04416
X04913Y04602
X05635Y04482
X05587Y04396
X05576Y04139
X05614Y04117
X05541Y03794
X054317Y036213
T02
X04726Y0268
X04888Y029845
X04549Y02938
X04162Y02673
X0383Y02797
X03649Y0278
X0332543Y0291765
X03348Y02419
X03153Y0220259
X03887Y02323
X04158Y02221
X04598Y0233
X02951Y02514
X0289Y02176
X02611Y02289
X0246332Y02715
X0237Y03121
X02776Y03062
X02762Y03566
X02838Y03929
X02748Y0414376
X0250447Y04078
X02377Y03754
X02317Y0341536
X03023Y04292
X03764Y04238
X03647Y04049
X0356Y03732
X03775Y03688
X04099Y03922
X04019Y042986
X03914Y04446
X04865Y04107
X04757Y03723
X05185Y03697
X05423Y0385203
X05498Y04184
X0543Y04356
X05202Y0445
X05026Y03377
X04736Y03286
T03
X02607Y03114
X02707
X02687Y03214
X02587
X02607Y03314
X02707
X02687Y03414
X02587
X02607Y03514
X02707
T04
X04255Y024
X02885
X02675Y0398
X03925Y0421
X0514Y0411
M30
