G04*
G04 #@! TF.GenerationSoftware,Altium Limited,Altium Designer,18.0.9 (584)*
G04*
G04 Layer_Color=16711935*
%FSLAX25Y25*%
%MOIN*%
G70*
G01*
G75*
%ADD10C,0.01000*%
%ADD56R,0.05918X0.06706*%
%ADD57R,0.06706X0.05918*%
%ADD70R,0.06800X0.06800*%
%ADD71C,0.06800*%
%ADD72C,0.03800*%
%ADD73C,0.05800*%
%ADD84R,0.16535X0.10236*%
%ADD85R,0.10236X0.16535*%
%ADD99R,0.07887X0.04737*%
%ADD100R,0.06902X0.05918*%
%ADD101R,0.05918X0.06902*%
%ADD102R,0.04737X0.03162*%
%ADD103R,0.10642X0.05524*%
%ADD104R,0.06312X0.05524*%
%ADD105R,0.05524X0.06312*%
%ADD106R,0.16548X0.16548*%
G04:AMPARAMS|DCode=107|XSize=23.75mil|YSize=61.15mil|CornerRadius=0mil|HoleSize=0mil|Usage=FLASHONLY|Rotation=165.000|XOffset=0mil|YOffset=0mil|HoleType=Round|Shape=Rectangle|*
%AMROTATEDRECTD107*
4,1,4,0.01938,0.02646,0.00356,-0.03261,-0.01938,-0.02646,-0.00356,0.03261,0.01938,0.02646,0.0*
%
%ADD107ROTATEDRECTD107*%

G04:AMPARAMS|DCode=108|XSize=90.68mil|YSize=70.99mil|CornerRadius=0mil|HoleSize=0mil|Usage=FLASHONLY|Rotation=165.000|XOffset=0mil|YOffset=0mil|HoleType=Round|Shape=Rectangle|*
%AMROTATEDRECTD108*
4,1,4,0.05298,0.02255,0.03461,-0.04602,-0.05298,-0.02255,-0.03461,0.04602,0.05298,0.02255,0.0*
%
%ADD108ROTATEDRECTD108*%

G04:AMPARAMS|DCode=109|XSize=78.87mil|YSize=82.8mil|CornerRadius=0mil|HoleSize=0mil|Usage=FLASHONLY|Rotation=165.000|XOffset=0mil|YOffset=0mil|HoleType=Round|Shape=Rectangle|*
%AMROTATEDRECTD109*
4,1,4,0.04881,0.02979,0.02737,-0.05020,-0.04881,-0.02979,-0.02737,0.05020,0.04881,0.02979,0.0*
%
%ADD109ROTATEDRECTD109*%

%ADD110P,0.11710X4X210.0*%
%ADD111R,0.08674X0.03162*%
%ADD112O,0.06706X0.03162*%
%ADD113O,0.06509X0.02965*%
%ADD114O,0.02965X0.06509*%
%ADD115C,0.17800*%
D10*
X418200Y351247D02*
X419700Y328747D01*
X542500Y352000D02*
X546500Y357000D01*
X311500Y286500D02*
X317500Y300000D01*
X306000Y194000D02*
X320500Y197500D01*
X230000Y420500D02*
X241500Y429000D01*
X337500Y201000D02*
X343000Y213000D01*
X214000Y315000D02*
X216000Y314000D01*
X313000Y362000D02*
X316500Y377500D01*
X446000Y340500D02*
X453500Y357500D01*
X450000Y184000D02*
X456000Y182000D01*
X427000Y369000D02*
X434000Y398500D01*
X450000Y384500D02*
X463000Y436500D01*
X416000Y348000D02*
X417000Y344000D01*
X231000Y222000D02*
X235000Y199500D01*
X431500Y310500D02*
X438500Y324000D01*
X472500Y465500D02*
X487500Y468500D01*
X290500Y452500D02*
X308500Y456000D01*
X417500Y361000D02*
X421500Y367000D01*
X333000Y336500D02*
X338500Y350500D01*
X427500Y192000D02*
X438500Y188000D01*
X308500Y279500D02*
X309500Y281000D01*
X398500Y200000D02*
X419500Y195000D01*
X329000Y432500D02*
X334000Y454000D01*
X357500Y241500D02*
X361000Y249500D01*
X222500Y287000D02*
X224500Y267000D01*
X257000Y439000D02*
X275000Y447500D01*
X456000Y182000D02*
X459000Y181000D01*
X502000Y468500D02*
X523000Y466500D01*
X453500Y357500D02*
X454000Y362000D01*
X546000Y461500D02*
X578500Y450000D01*
X438500Y324000D02*
X446000Y340500D01*
X415000Y469000D02*
X428500Y468500D01*
X216000Y374500D02*
X222000Y400000D01*
X419500Y195000D02*
X427500Y192000D01*
X471500Y464500D02*
X472500Y465500D01*
X416000Y355000D02*
X417500Y361000D01*
X287000Y186500D02*
X306000Y194000D01*
X242500Y158000D02*
X244000Y158500D01*
X224500Y267000D02*
X229000Y239500D01*
X300500Y337500D02*
Y347500D01*
X383000Y467000D02*
X415000Y469000D01*
X428500Y468500D02*
X438000Y467000D01*
X334000Y457500D02*
X334500Y457000D01*
X528500Y321500D02*
X542500Y352000D01*
X303000Y353500D02*
X311500Y359000D01*
X215000Y369500D02*
X216000Y374500D01*
X426000Y297500D02*
X427500Y302000D01*
X448500Y462500D02*
X449000Y464000D01*
X345000Y415500D02*
X351000Y439500D01*
X332500Y362000D02*
X335000Y361500D01*
X255000Y168000D02*
X264500Y174000D01*
X275000Y447500D02*
X290500Y452500D01*
X208000Y315500D02*
X214000Y315000D01*
X241000Y158500D02*
X242500Y158000D01*
X303500Y306000D02*
X305500Y283000D01*
X244000Y158500D02*
X255000Y168000D01*
X448000Y369000D02*
X449000Y368500D01*
X523000Y466500D02*
X546000Y461500D01*
X274500Y179500D02*
X287000Y186500D01*
X454000Y362000D02*
Y364500D01*
X367500Y220500D02*
X368500Y209000D01*
X429000Y304500D02*
X430500Y307500D01*
X264500Y174000D02*
X274500Y179500D01*
X447500Y370000D02*
X450000Y384500D01*
X354500Y235000D02*
X357500Y241500D01*
X365500Y237000D02*
X367500Y220500D01*
X452000Y367000D02*
X454000Y364500D01*
X421500Y367000D02*
X427000Y369000D01*
X416000Y348000D02*
Y355000D01*
X580500Y448000D02*
Y449000D01*
X447500Y370000D02*
X448000Y369000D01*
X427500Y302000D02*
X429000Y304500D01*
X222000Y400000D02*
X226000Y413500D01*
X449000Y368500D02*
X451000Y368000D01*
X337500Y359500D02*
X338500Y358000D01*
X558500Y360000D02*
X580500Y448000D01*
X322500Y403500D02*
X329000Y432500D01*
X311500Y359000D02*
X313000Y362000D01*
X219000Y308000D02*
X222500Y287000D01*
X387000Y202000D02*
X398500Y200000D01*
X308500Y456000D02*
X320000Y457500D01*
X421500Y295000D02*
Y299500D01*
X227500Y418000D02*
X230000Y420500D01*
X463000Y436500D02*
X471500Y464500D01*
X376500Y466000D02*
X383000Y467000D01*
X487500Y468500D02*
X502000D01*
X425000Y295000D02*
X426000Y297500D01*
X334000Y454000D02*
X334500Y457000D01*
X213500Y363000D02*
X215000Y369500D01*
X362000Y252000D02*
X364000D01*
X430500Y307500D02*
X431500Y310500D01*
X332500Y363000D02*
X333000Y368000D01*
X203000Y316000D02*
X208000Y315500D01*
X459000Y181000D02*
X467500Y198000D01*
X476000Y215500D02*
X492500Y249000D01*
X528500Y321500D01*
X451000Y368000D02*
X452000Y367000D01*
X226000Y413500D02*
X227500Y418000D01*
X240000Y160000D02*
X241000Y158500D01*
X241500Y429000D02*
X257000Y439000D01*
X316500Y377500D02*
X322500Y403500D01*
X237500Y179000D02*
X240000Y160000D01*
X320500Y197500D02*
X327500Y198500D01*
X467500Y198000D02*
X476000Y215500D01*
X438500Y188000D02*
X450000Y184000D01*
X333000Y368000D02*
X337000Y384500D01*
X302000Y319500D02*
X303500Y306000D01*
X364000Y246500D02*
Y252000D01*
X421500Y295000D02*
X425000D01*
X335000Y361500D02*
X337500Y359500D01*
X202500Y316500D02*
Y318000D01*
X578500Y450000D02*
X580500Y449000D01*
X368500Y209000D02*
X369500Y203500D01*
X338500Y350500D02*
Y358000D01*
X438500Y419500D02*
X442500Y437500D01*
X357500Y461500D02*
X376500Y466000D01*
X235000Y199500D02*
X237500Y179000D01*
X550500Y359500D02*
X558500Y360000D01*
X206500Y334500D02*
X213500Y363000D01*
X369500Y203500D02*
X371000Y202500D01*
X202500Y318000D02*
X206500Y334500D01*
X320000Y457500D02*
X334000D01*
X447000Y465500D02*
X449000Y464000D01*
X361000Y249500D02*
X362000Y252000D01*
X300500Y337500D02*
X302000Y319500D01*
X364000Y246500D02*
X365500Y237000D01*
X229000Y239500D02*
X231000Y222000D01*
X418500Y321500D02*
X421500Y299500D01*
X343000Y213000D02*
X348000Y221500D01*
X351000Y439500D02*
X357500Y461500D01*
X305500Y280000D02*
Y283000D01*
X327500Y198500D02*
X337500Y201000D01*
X442500Y437500D02*
X448500Y462500D01*
X317500Y300000D02*
X326500Y320500D01*
X434000Y398500D02*
X438500Y419500D01*
X300500Y347500D02*
X303000Y353500D01*
X307000Y279000D02*
X308500Y279500D01*
X202500Y316500D02*
X203000Y316000D01*
X337000Y384500D02*
X345000Y415500D01*
X309500Y281000D02*
X311500Y286500D01*
X371000Y202500D02*
X387000Y202000D01*
X348000Y221500D02*
X354500Y235000D01*
X546500Y357000D02*
X550500Y359500D01*
X332500Y362000D02*
Y363000D01*
X305500Y280000D02*
X306000Y279000D01*
X216000Y314000D02*
X219000Y308000D01*
X438000Y467000D02*
X447000Y465500D01*
X306000Y279000D02*
X307000D01*
X326500Y320500D02*
X333000Y336500D01*
D56*
X458787Y250602D02*
D03*
X465480D02*
D03*
X351007Y328800D02*
D03*
X357700D02*
D03*
D57*
X412147Y291616D02*
D03*
Y284923D02*
D03*
X405400Y307193D02*
D03*
Y300500D02*
D03*
X357100Y308254D02*
D03*
Y314946D02*
D03*
X402000Y333346D02*
D03*
Y326654D02*
D03*
X412600Y302054D02*
D03*
Y308746D02*
D03*
X477413Y284260D02*
D03*
Y277567D02*
D03*
X449912D02*
D03*
Y284260D02*
D03*
D70*
X270700Y311400D02*
D03*
D71*
X260700D02*
D03*
X268700Y321400D02*
D03*
X258700D02*
D03*
X270700Y331400D02*
D03*
X260700D02*
D03*
X268700Y341400D02*
D03*
X258700D02*
D03*
X270700Y351400D02*
D03*
X260700D02*
D03*
D72*
X416100Y255600D02*
D03*
X385700Y304500D02*
D03*
X387400Y311500D02*
D03*
X378400Y310637D02*
D03*
X387200Y282600D02*
D03*
X395200Y283800D02*
D03*
X405200Y271600D02*
D03*
X360800Y292200D02*
D03*
X392100Y306100D02*
D03*
X381600Y295000D02*
D03*
X395300Y274000D02*
D03*
X399300Y274700D02*
D03*
X392000Y270900D02*
D03*
X370000Y289700D02*
D03*
X350100Y296700D02*
D03*
X351600Y309600D02*
D03*
X384900Y298100D02*
D03*
X355700Y306300D02*
D03*
X371200Y276500D02*
D03*
X395400Y262600D02*
D03*
X392500Y317300D02*
D03*
X399400Y331800D02*
D03*
X384500Y338898D02*
D03*
X381400Y336100D02*
D03*
X385281Y330049D02*
D03*
X432600Y231500D02*
D03*
X429600Y228700D02*
D03*
X422400Y223400D02*
D03*
X440700Y232600D02*
D03*
X444100Y226700D02*
D03*
X444300Y239200D02*
D03*
X446750Y214700D02*
D03*
X454200Y213300D02*
D03*
X454130Y227352D02*
D03*
X449820Y217400D02*
D03*
X417700Y441600D02*
D03*
X402500Y441400D02*
D03*
X338400Y279800D02*
D03*
X340100Y292600D02*
D03*
X355000Y297300D02*
D03*
X378505Y354306D02*
D03*
X392209Y352791D02*
D03*
X377000Y347600D02*
D03*
X421988Y282083D02*
D03*
X428000Y288300D02*
D03*
X446625Y207378D02*
D03*
X450000Y210000D02*
D03*
X460000Y207900D02*
D03*
X454400Y286300D02*
D03*
X358200Y276400D02*
D03*
X443400Y193800D02*
D03*
X437400Y227900D02*
D03*
X466400Y228500D02*
D03*
X438000Y256100D02*
D03*
X441100Y258800D02*
D03*
X401953Y226239D02*
D03*
X405200Y236900D02*
D03*
X423900Y426800D02*
D03*
X423800Y445000D02*
D03*
X430700Y422000D02*
D03*
X314600Y435200D02*
D03*
X289700Y414500D02*
D03*
X557600Y413900D02*
D03*
X563500Y448200D02*
D03*
X558700Y439600D02*
D03*
X561400Y411700D02*
D03*
X434200Y266500D02*
D03*
X432300Y275300D02*
D03*
Y293300D02*
D03*
X455500Y270900D02*
D03*
X416100Y262300D02*
D03*
X369500Y257700D02*
D03*
X369000Y268500D02*
D03*
X328900Y256800D02*
D03*
X328632Y265506D02*
D03*
X497700Y441600D02*
D03*
X478800Y443400D02*
D03*
X286200Y406400D02*
D03*
X269700Y208400D02*
D03*
X260700Y186944D02*
D03*
X554100Y379400D02*
D03*
X543170Y362130D02*
D03*
X491300Y460200D02*
D03*
X473100Y444700D02*
D03*
X427100Y459200D02*
D03*
X393200Y452800D02*
D03*
X366400Y442900D02*
D03*
X344700Y379200D02*
D03*
X345500Y352100D02*
D03*
X321600Y431400D02*
D03*
X311400Y449300D02*
D03*
X248300Y170700D02*
D03*
X268900Y185400D02*
D03*
D73*
X383000Y279700D02*
D03*
X364900Y278000D02*
D03*
X416200Y267300D02*
D03*
X332543Y291765D02*
D03*
X377500Y368800D02*
D03*
X459800Y233000D02*
D03*
X454900Y293800D02*
D03*
X357907Y320907D02*
D03*
X415800Y222100D02*
D03*
X388700Y232300D02*
D03*
X472600Y268000D02*
D03*
X502600Y337700D02*
D03*
X518500Y369700D02*
D03*
X542300Y385203D02*
D03*
X549800Y418400D02*
D03*
X543000Y435600D02*
D03*
X520200Y445000D02*
D03*
X486500Y410700D02*
D03*
X475700Y372300D02*
D03*
X473600Y328600D02*
D03*
X488800Y298450D02*
D03*
X409900Y392200D02*
D03*
X401900Y429860D02*
D03*
X391400Y444600D02*
D03*
X376400Y423800D02*
D03*
X364700Y404900D02*
D03*
X356000Y373200D02*
D03*
X237700Y375400D02*
D03*
X231700Y341536D02*
D03*
X250447Y407800D02*
D03*
X276200Y356600D02*
D03*
X283800Y392900D02*
D03*
X274800Y414376D02*
D03*
X302300Y429200D02*
D03*
X295100Y251400D02*
D03*
X334800Y241900D02*
D03*
X315300Y220259D02*
D03*
X289000Y217600D02*
D03*
X261100Y228900D02*
D03*
X277600Y306200D02*
D03*
X237000Y312100D02*
D03*
X246332Y271500D02*
D03*
D84*
X319500Y269000D02*
D03*
X339400Y268500D02*
D03*
X398500Y344100D02*
D03*
D85*
X487666Y280260D02*
D03*
X439659Y282260D02*
D03*
D99*
X410500Y318200D02*
D03*
Y328043D02*
D03*
D100*
X358300Y262900D02*
D03*
X389599Y263183D02*
D03*
X358300Y280900D02*
D03*
X389599D02*
D03*
D101*
X330900Y310550D02*
D03*
X331184Y279250D02*
D03*
X348900Y310550D02*
D03*
Y279250D02*
D03*
D102*
X469713Y277160D02*
D03*
Y284640D02*
D03*
X458887D02*
D03*
Y280900D02*
D03*
Y277160D02*
D03*
D103*
X425273Y251958D02*
D03*
Y261800D02*
D03*
Y271642D02*
D03*
X446927Y251958D02*
D03*
Y261800D02*
D03*
Y271642D02*
D03*
D104*
X371400Y345857D02*
D03*
Y352943D02*
D03*
X376300Y336187D02*
D03*
Y329100D02*
D03*
X398200Y288743D02*
D03*
Y281657D02*
D03*
X355400Y289157D02*
D03*
Y296243D02*
D03*
X368400Y339243D02*
D03*
Y332157D02*
D03*
D105*
X383057Y330700D02*
D03*
X390143D02*
D03*
D106*
X403000Y361000D02*
D03*
X355756Y361000D02*
D03*
D107*
X430129Y210522D02*
D03*
X427600Y211200D02*
D03*
X425185Y211847D02*
D03*
X422713Y212509D02*
D03*
X420241Y213172D02*
D03*
D108*
X436847Y208213D02*
D03*
X413269Y214530D02*
D03*
D109*
X436910Y197802D02*
D03*
X408009Y205546D02*
D03*
D110*
X427023Y200452D02*
D03*
X417896Y202897D02*
D03*
D111*
X385464Y363800D02*
D03*
X370700D02*
D03*
D112*
X396500Y251700D02*
D03*
Y246700D02*
D03*
Y241700D02*
D03*
Y236700D02*
D03*
Y231700D02*
D03*
Y226700D02*
D03*
Y221700D02*
D03*
X375240Y251700D02*
D03*
Y246700D02*
D03*
Y241700D02*
D03*
Y236700D02*
D03*
Y231700D02*
D03*
Y226700D02*
D03*
Y221700D02*
D03*
D113*
X398600Y317048D02*
D03*
Y313898D02*
D03*
Y310749D02*
D03*
Y307599D02*
D03*
Y304450D02*
D03*
Y301300D02*
D03*
Y298150D02*
D03*
Y295001D02*
D03*
X365332D02*
D03*
Y298150D02*
D03*
Y301300D02*
D03*
Y304450D02*
D03*
Y307599D02*
D03*
Y310749D02*
D03*
Y313898D02*
D03*
Y317048D02*
D03*
D114*
X392990Y289390D02*
D03*
X389840D02*
D03*
X386690D02*
D03*
X383541D02*
D03*
X380391D02*
D03*
X377242D02*
D03*
X374092D02*
D03*
X370942D02*
D03*
Y322658D02*
D03*
X374092D02*
D03*
X377242D02*
D03*
X380391D02*
D03*
X383541D02*
D03*
X386690D02*
D03*
X389840D02*
D03*
X392990D02*
D03*
D115*
X288500Y240000D02*
D03*
X267500Y398000D02*
D03*
X425500Y240000D02*
D03*
X514000Y411000D02*
D03*
X392500Y421000D02*
D03*
M02*
