G04*
G04 #@! TF.GenerationSoftware,Altium Limited,Altium Designer,18.0.9 (584)*
G04*
G04 Layer_Color=8388736*
%FSLAX25Y25*%
%MOIN*%
G70*
G01*
G75*
%ADD10C,0.01000*%
G04:AMPARAMS|DCode=40|XSize=106.42mil|YSize=51.31mil|CornerRadius=14.83mil|HoleSize=0mil|Usage=FLASHONLY|Rotation=0.000|XOffset=0mil|YOffset=0mil|HoleType=Round|Shape=RoundedRectangle|*
%AMROUNDEDRECTD40*
21,1,0.10642,0.02165,0,0,0.0*
21,1,0.07677,0.05131,0,0,0.0*
1,1,0.02965,0.03839,-0.01083*
1,1,0.02965,-0.03839,-0.01083*
1,1,0.02965,-0.03839,0.01083*
1,1,0.02965,0.03839,0.01083*
%
%ADD40ROUNDEDRECTD40*%
G04:AMPARAMS|DCode=41|XSize=106.42mil|YSize=51.31mil|CornerRadius=14.83mil|HoleSize=0mil|Usage=FLASHONLY|Rotation=80.000|XOffset=0mil|YOffset=0mil|HoleType=Round|Shape=RoundedRectangle|*
%AMROUNDEDRECTD41*
21,1,0.10642,0.02165,0,0,80.0*
21,1,0.07677,0.05131,0,0,80.0*
1,1,0.02965,0.01733,0.03592*
1,1,0.02965,0.00400,-0.03968*
1,1,0.02965,-0.01733,-0.03592*
1,1,0.02965,-0.00400,0.03968*
%
%ADD41ROUNDEDRECTD41*%
G04:AMPARAMS|DCode=42|XSize=106.42mil|YSize=51.31mil|CornerRadius=14.83mil|HoleSize=0mil|Usage=FLASHONLY|Rotation=70.000|XOffset=0mil|YOffset=0mil|HoleType=Round|Shape=RoundedRectangle|*
%AMROUNDEDRECTD42*
21,1,0.10642,0.02165,0,0,70.0*
21,1,0.07677,0.05131,0,0,70.0*
1,1,0.02965,0.02330,0.03237*
1,1,0.02965,-0.00296,-0.03977*
1,1,0.02965,-0.02330,-0.03237*
1,1,0.02965,0.00296,0.03977*
%
%ADD42ROUNDEDRECTD42*%
G04:AMPARAMS|DCode=43|XSize=106.42mil|YSize=51.31mil|CornerRadius=14.83mil|HoleSize=0mil|Usage=FLASHONLY|Rotation=65.000|XOffset=0mil|YOffset=0mil|HoleType=Round|Shape=RoundedRectangle|*
%AMROUNDEDRECTD43*
21,1,0.10642,0.02165,0,0,65.0*
21,1,0.07677,0.05131,0,0,65.0*
1,1,0.02965,0.02604,0.03021*
1,1,0.02965,-0.00641,-0.03937*
1,1,0.02965,-0.02604,-0.03021*
1,1,0.02965,0.00641,0.03937*
%
%ADD43ROUNDEDRECTD43*%
G04:AMPARAMS|DCode=44|XSize=106.42mil|YSize=51.31mil|CornerRadius=14.83mil|HoleSize=0mil|Usage=FLASHONLY|Rotation=275.000|XOffset=0mil|YOffset=0mil|HoleType=Round|Shape=RoundedRectangle|*
%AMROUNDEDRECTD44*
21,1,0.10642,0.02165,0,0,275.0*
21,1,0.07677,0.05131,0,0,275.0*
1,1,0.02965,-0.00744,-0.03918*
1,1,0.02965,-0.01413,0.03730*
1,1,0.02965,0.00744,0.03918*
1,1,0.02965,0.01413,-0.03730*
%
%ADD44ROUNDEDRECTD44*%
G04:AMPARAMS|DCode=45|XSize=106.42mil|YSize=51.31mil|CornerRadius=14.83mil|HoleSize=0mil|Usage=FLASHONLY|Rotation=265.000|XOffset=0mil|YOffset=0mil|HoleType=Round|Shape=RoundedRectangle|*
%AMROUNDEDRECTD45*
21,1,0.10642,0.02165,0,0,265.0*
21,1,0.07677,0.05131,0,0,265.0*
1,1,0.02965,-0.01413,-0.03730*
1,1,0.02965,-0.00744,0.03918*
1,1,0.02965,0.01413,0.03730*
1,1,0.02965,0.00744,-0.03918*
%
%ADD45ROUNDEDRECTD45*%
G04:AMPARAMS|DCode=46|XSize=106.42mil|YSize=51.31mil|CornerRadius=14.83mil|HoleSize=0mil|Usage=FLASHONLY|Rotation=255.000|XOffset=0mil|YOffset=0mil|HoleType=Round|Shape=RoundedRectangle|*
%AMROUNDEDRECTD46*
21,1,0.10642,0.02165,0,0,255.0*
21,1,0.07677,0.05131,0,0,255.0*
1,1,0.02965,-0.02039,-0.03428*
1,1,0.02965,-0.00052,0.03988*
1,1,0.02965,0.02039,0.03428*
1,1,0.02965,0.00052,-0.03988*
%
%ADD46ROUNDEDRECTD46*%
G04:AMPARAMS|DCode=47|XSize=106.42mil|YSize=51.31mil|CornerRadius=14.83mil|HoleSize=0mil|Usage=FLASHONLY|Rotation=10.000|XOffset=0mil|YOffset=0mil|HoleType=Round|Shape=RoundedRectangle|*
%AMROUNDEDRECTD47*
21,1,0.10642,0.02165,0,0,10.0*
21,1,0.07677,0.05131,0,0,10.0*
1,1,0.02965,0.03968,-0.00400*
1,1,0.02965,-0.03592,-0.01733*
1,1,0.02965,-0.03968,0.00400*
1,1,0.02965,0.03592,0.01733*
%
%ADD47ROUNDEDRECTD47*%
G04:AMPARAMS|DCode=48|XSize=106.42mil|YSize=51.31mil|CornerRadius=14.83mil|HoleSize=0mil|Usage=FLASHONLY|Rotation=25.000|XOffset=0mil|YOffset=0mil|HoleType=Round|Shape=RoundedRectangle|*
%AMROUNDEDRECTD48*
21,1,0.10642,0.02165,0,0,25.0*
21,1,0.07677,0.05131,0,0,25.0*
1,1,0.02965,0.03937,0.00641*
1,1,0.02965,-0.03021,-0.02604*
1,1,0.02965,-0.03937,-0.00641*
1,1,0.02965,0.03021,0.02604*
%
%ADD48ROUNDEDRECTD48*%
G04:AMPARAMS|DCode=49|XSize=106.42mil|YSize=51.31mil|CornerRadius=14.83mil|HoleSize=0mil|Usage=FLASHONLY|Rotation=40.000|XOffset=0mil|YOffset=0mil|HoleType=Round|Shape=RoundedRectangle|*
%AMROUNDEDRECTD49*
21,1,0.10642,0.02165,0,0,40.0*
21,1,0.07677,0.05131,0,0,40.0*
1,1,0.02965,0.03637,0.01638*
1,1,0.02965,-0.02245,-0.03297*
1,1,0.02965,-0.03637,-0.01638*
1,1,0.02965,0.02245,0.03297*
%
%ADD49ROUNDEDRECTD49*%
G04:AMPARAMS|DCode=50|XSize=106.42mil|YSize=51.31mil|CornerRadius=14.83mil|HoleSize=0mil|Usage=FLASHONLY|Rotation=105.000|XOffset=0mil|YOffset=0mil|HoleType=Round|Shape=RoundedRectangle|*
%AMROUNDEDRECTD50*
21,1,0.10642,0.02165,0,0,105.0*
21,1,0.07677,0.05131,0,0,105.0*
1,1,0.02965,0.00052,0.03988*
1,1,0.02965,0.02039,-0.03428*
1,1,0.02965,-0.00052,-0.03988*
1,1,0.02965,-0.02039,0.03428*
%
%ADD50ROUNDEDRECTD50*%
G04:AMPARAMS|DCode=51|XSize=106.42mil|YSize=51.31mil|CornerRadius=14.83mil|HoleSize=0mil|Usage=FLASHONLY|Rotation=100.000|XOffset=0mil|YOffset=0mil|HoleType=Round|Shape=RoundedRectangle|*
%AMROUNDEDRECTD51*
21,1,0.10642,0.02165,0,0,100.0*
21,1,0.07677,0.05131,0,0,100.0*
1,1,0.02965,0.00400,0.03968*
1,1,0.02965,0.01733,-0.03592*
1,1,0.02965,-0.00400,-0.03968*
1,1,0.02965,-0.01733,0.03592*
%
%ADD51ROUNDEDRECTD51*%
G04:AMPARAMS|DCode=52|XSize=106.42mil|YSize=51.31mil|CornerRadius=14.83mil|HoleSize=0mil|Usage=FLASHONLY|Rotation=195.000|XOffset=0mil|YOffset=0mil|HoleType=Round|Shape=RoundedRectangle|*
%AMROUNDEDRECTD52*
21,1,0.10642,0.02165,0,0,195.0*
21,1,0.07677,0.05131,0,0,195.0*
1,1,0.02965,-0.03988,0.00052*
1,1,0.02965,0.03428,0.02039*
1,1,0.02965,0.03988,-0.00052*
1,1,0.02965,-0.03428,-0.02039*
%
%ADD52ROUNDEDRECTD52*%
G04:AMPARAMS|DCode=53|XSize=106.42mil|YSize=51.31mil|CornerRadius=14.83mil|HoleSize=0mil|Usage=FLASHONLY|Rotation=170.000|XOffset=0mil|YOffset=0mil|HoleType=Round|Shape=RoundedRectangle|*
%AMROUNDEDRECTD53*
21,1,0.10642,0.02165,0,0,170.0*
21,1,0.07677,0.05131,0,0,170.0*
1,1,0.02965,-0.03592,0.01733*
1,1,0.02965,0.03968,0.00400*
1,1,0.02965,0.03592,-0.01733*
1,1,0.02965,-0.03968,-0.00400*
%
%ADD53ROUNDEDRECTD53*%
G04:AMPARAMS|DCode=54|XSize=106.42mil|YSize=51.31mil|CornerRadius=14.83mil|HoleSize=0mil|Usage=FLASHONLY|Rotation=160.000|XOffset=0mil|YOffset=0mil|HoleType=Round|Shape=RoundedRectangle|*
%AMROUNDEDRECTD54*
21,1,0.10642,0.02165,0,0,160.0*
21,1,0.07677,0.05131,0,0,160.0*
1,1,0.02965,-0.03237,0.02330*
1,1,0.02965,0.03977,-0.00296*
1,1,0.02965,0.03237,-0.02330*
1,1,0.02965,-0.03977,0.00296*
%
%ADD54ROUNDEDRECTD54*%
G04:AMPARAMS|DCode=55|XSize=106.42mil|YSize=51.31mil|CornerRadius=14.83mil|HoleSize=0mil|Usage=FLASHONLY|Rotation=270.000|XOffset=0mil|YOffset=0mil|HoleType=Round|Shape=RoundedRectangle|*
%AMROUNDEDRECTD55*
21,1,0.10642,0.02165,0,0,270.0*
21,1,0.07677,0.05131,0,0,270.0*
1,1,0.02965,-0.01083,-0.03839*
1,1,0.02965,-0.01083,0.03839*
1,1,0.02965,0.01083,0.03839*
1,1,0.02965,0.01083,-0.03839*
%
%ADD55ROUNDEDRECTD55*%
%ADD56R,0.05918X0.06706*%
%ADD57R,0.06706X0.05918*%
G04:AMPARAMS|DCode=58|XSize=67.06mil|YSize=59.18mil|CornerRadius=0mil|HoleSize=0mil|Usage=FLASHONLY|Rotation=170.000|XOffset=0mil|YOffset=0mil|HoleType=Round|Shape=Rectangle|*
%AMROTATEDRECTD58*
4,1,4,0.03816,0.02332,0.02788,-0.03496,-0.03816,-0.02332,-0.02788,0.03496,0.03816,0.02332,0.0*
%
%ADD58ROTATEDRECTD58*%

G04:AMPARAMS|DCode=59|XSize=67.06mil|YSize=59.18mil|CornerRadius=0mil|HoleSize=0mil|Usage=FLASHONLY|Rotation=160.000|XOffset=0mil|YOffset=0mil|HoleType=Round|Shape=Rectangle|*
%AMROTATEDRECTD59*
4,1,4,0.04163,0.01634,0.02139,-0.03927,-0.04163,-0.01634,-0.02139,0.03927,0.04163,0.01634,0.0*
%
%ADD59ROTATEDRECTD59*%

G04:AMPARAMS|DCode=60|XSize=67.06mil|YSize=59.18mil|CornerRadius=0mil|HoleSize=0mil|Usage=FLASHONLY|Rotation=155.000|XOffset=0mil|YOffset=0mil|HoleType=Round|Shape=Rectangle|*
%AMROTATEDRECTD60*
4,1,4,0.04289,0.01265,0.01788,-0.04099,-0.04289,-0.01265,-0.01788,0.04099,0.04289,0.01265,0.0*
%
%ADD60ROTATEDRECTD60*%

G04:AMPARAMS|DCode=61|XSize=67.06mil|YSize=59.18mil|CornerRadius=0mil|HoleSize=0mil|Usage=FLASHONLY|Rotation=135.000|XOffset=0mil|YOffset=0mil|HoleType=Round|Shape=Rectangle|*
%AMROTATEDRECTD61*
4,1,4,0.04463,-0.00278,0.00278,-0.04463,-0.04463,0.00278,-0.00278,0.04463,0.04463,-0.00278,0.0*
%
%ADD61ROTATEDRECTD61*%

G04:AMPARAMS|DCode=62|XSize=67.06mil|YSize=59.18mil|CornerRadius=0mil|HoleSize=0mil|Usage=FLASHONLY|Rotation=20.000|XOffset=0mil|YOffset=0mil|HoleType=Round|Shape=Rectangle|*
%AMROTATEDRECTD62*
4,1,4,-0.02139,-0.03927,-0.04163,0.01634,0.02139,0.03927,0.04163,-0.01634,-0.02139,-0.03927,0.0*
%
%ADD62ROTATEDRECTD62*%

G04:AMPARAMS|DCode=63|XSize=67.06mil|YSize=59.18mil|CornerRadius=0mil|HoleSize=0mil|Usage=FLASHONLY|Rotation=190.000|XOffset=0mil|YOffset=0mil|HoleType=Round|Shape=Rectangle|*
%AMROTATEDRECTD63*
4,1,4,0.02788,0.03496,0.03816,-0.02332,-0.02788,-0.03496,-0.03816,0.02332,0.02788,0.03496,0.0*
%
%ADD63ROTATEDRECTD63*%

G04:AMPARAMS|DCode=64|XSize=67.06mil|YSize=59.18mil|CornerRadius=0mil|HoleSize=0mil|Usage=FLASHONLY|Rotation=295.000|XOffset=0mil|YOffset=0mil|HoleType=Round|Shape=Rectangle|*
%AMROTATEDRECTD64*
4,1,4,-0.04099,0.01788,0.01265,0.04289,0.04099,-0.01788,-0.01265,-0.04289,-0.04099,0.01788,0.0*
%
%ADD64ROTATEDRECTD64*%

G04:AMPARAMS|DCode=65|XSize=67.06mil|YSize=59.18mil|CornerRadius=0mil|HoleSize=0mil|Usage=FLASHONLY|Rotation=285.000|XOffset=0mil|YOffset=0mil|HoleType=Round|Shape=Rectangle|*
%AMROTATEDRECTD65*
4,1,4,-0.03726,0.02473,0.01991,0.04004,0.03726,-0.02473,-0.01991,-0.04004,-0.03726,0.02473,0.0*
%
%ADD65ROTATEDRECTD65*%

G04:AMPARAMS|DCode=66|XSize=67.06mil|YSize=59.18mil|CornerRadius=0mil|HoleSize=0mil|Usage=FLASHONLY|Rotation=260.000|XOffset=0mil|YOffset=0mil|HoleType=Round|Shape=Rectangle|*
%AMROTATEDRECTD66*
4,1,4,-0.02332,0.03816,0.03496,0.02788,0.02332,-0.03816,-0.03496,-0.02788,-0.02332,0.03816,0.0*
%
%ADD66ROTATEDRECTD66*%

G04:AMPARAMS|DCode=67|XSize=67.06mil|YSize=59.18mil|CornerRadius=0mil|HoleSize=0mil|Usage=FLASHONLY|Rotation=70.000|XOffset=0mil|YOffset=0mil|HoleType=Round|Shape=Rectangle|*
%AMROTATEDRECTD67*
4,1,4,0.01634,-0.04163,-0.03927,-0.02139,-0.01634,0.04163,0.03927,0.02139,0.01634,-0.04163,0.0*
%
%ADD67ROTATEDRECTD67*%

G04:AMPARAMS|DCode=68|XSize=67.06mil|YSize=59.18mil|CornerRadius=0mil|HoleSize=0mil|Usage=FLASHONLY|Rotation=165.000|XOffset=0mil|YOffset=0mil|HoleType=Round|Shape=Rectangle|*
%AMROTATEDRECTD68*
4,1,4,0.04004,0.01991,0.02473,-0.03726,-0.04004,-0.01991,-0.02473,0.03726,0.04004,0.01991,0.0*
%
%ADD68ROTATEDRECTD68*%

%ADD69C,0.12611*%
%ADD70R,0.06800X0.06800*%
%ADD71C,0.06800*%
%ADD72C,0.03800*%
%ADD73C,0.05800*%
D10*
X418200Y351247D02*
X419700Y328747D01*
X542500Y352000D02*
X546500Y357000D01*
X311500Y286500D02*
X317500Y300000D01*
X306000Y194000D02*
X320500Y197500D01*
X230000Y420500D02*
X241500Y429000D01*
X337500Y201000D02*
X343000Y213000D01*
X214000Y315000D02*
X216000Y314000D01*
X313000Y362000D02*
X316500Y377500D01*
X446000Y340500D02*
X453500Y357500D01*
X450000Y184000D02*
X456000Y182000D01*
X427000Y369000D02*
X434000Y398500D01*
X450000Y384500D02*
X463000Y436500D01*
X416000Y348000D02*
X417000Y344000D01*
X231000Y222000D02*
X235000Y199500D01*
X431500Y310500D02*
X438500Y324000D01*
X472500Y465500D02*
X487500Y468500D01*
X290500Y452500D02*
X308500Y456000D01*
X417500Y361000D02*
X421500Y367000D01*
X333000Y336500D02*
X338500Y350500D01*
X427500Y192000D02*
X438500Y188000D01*
X308500Y279500D02*
X309500Y281000D01*
X398500Y200000D02*
X419500Y195000D01*
X329000Y432500D02*
X334000Y454000D01*
X357500Y241500D02*
X361000Y249500D01*
X222500Y287000D02*
X224500Y267000D01*
X257000Y439000D02*
X275000Y447500D01*
X456000Y182000D02*
X459000Y181000D01*
X502000Y468500D02*
X523000Y466500D01*
X453500Y357500D02*
X454000Y362000D01*
X546000Y461500D02*
X578500Y450000D01*
X438500Y324000D02*
X446000Y340500D01*
X415000Y469000D02*
X428500Y468500D01*
X216000Y374500D02*
X222000Y400000D01*
X419500Y195000D02*
X427500Y192000D01*
X471500Y464500D02*
X472500Y465500D01*
X416000Y355000D02*
X417500Y361000D01*
X287000Y186500D02*
X306000Y194000D01*
X242500Y158000D02*
X244000Y158500D01*
X224500Y267000D02*
X229000Y239500D01*
X300500Y337500D02*
Y347500D01*
X383000Y467000D02*
X415000Y469000D01*
X428500Y468500D02*
X438000Y467000D01*
X334000Y457500D02*
X334500Y457000D01*
X528500Y321500D02*
X542500Y352000D01*
X303000Y353500D02*
X311500Y359000D01*
X215000Y369500D02*
X216000Y374500D01*
X426000Y297500D02*
X427500Y302000D01*
X448500Y462500D02*
X449000Y464000D01*
X345000Y415500D02*
X351000Y439500D01*
X332500Y362000D02*
X335000Y361500D01*
X255000Y168000D02*
X264500Y174000D01*
X275000Y447500D02*
X290500Y452500D01*
X208000Y315500D02*
X214000Y315000D01*
X241000Y158500D02*
X242500Y158000D01*
X303500Y306000D02*
X305500Y283000D01*
X244000Y158500D02*
X255000Y168000D01*
X448000Y369000D02*
X449000Y368500D01*
X523000Y466500D02*
X546000Y461500D01*
X274500Y179500D02*
X287000Y186500D01*
X454000Y362000D02*
Y364500D01*
X367500Y220500D02*
X368500Y209000D01*
X429000Y304500D02*
X430500Y307500D01*
X264500Y174000D02*
X274500Y179500D01*
X447500Y370000D02*
X450000Y384500D01*
X354500Y235000D02*
X357500Y241500D01*
X365500Y237000D02*
X367500Y220500D01*
X452000Y367000D02*
X454000Y364500D01*
X421500Y367000D02*
X427000Y369000D01*
X416000Y348000D02*
Y355000D01*
X580500Y448000D02*
Y449000D01*
X447500Y370000D02*
X448000Y369000D01*
X427500Y302000D02*
X429000Y304500D01*
X222000Y400000D02*
X226000Y413500D01*
X449000Y368500D02*
X451000Y368000D01*
X337500Y359500D02*
X338500Y358000D01*
X558500Y360000D02*
X580500Y448000D01*
X322500Y403500D02*
X329000Y432500D01*
X311500Y359000D02*
X313000Y362000D01*
X219000Y308000D02*
X222500Y287000D01*
X387000Y202000D02*
X398500Y200000D01*
X308500Y456000D02*
X320000Y457500D01*
X421500Y295000D02*
Y299500D01*
X227500Y418000D02*
X230000Y420500D01*
X463000Y436500D02*
X471500Y464500D01*
X376500Y466000D02*
X383000Y467000D01*
X487500Y468500D02*
X502000D01*
X425000Y295000D02*
X426000Y297500D01*
X334000Y454000D02*
X334500Y457000D01*
X213500Y363000D02*
X215000Y369500D01*
X362000Y252000D02*
X364000D01*
X430500Y307500D02*
X431500Y310500D01*
X332500Y363000D02*
X333000Y368000D01*
X203000Y316000D02*
X208000Y315500D01*
X459000Y181000D02*
X467500Y198000D01*
X476000Y215500D02*
X492500Y249000D01*
X528500Y321500D01*
X451000Y368000D02*
X452000Y367000D01*
X226000Y413500D02*
X227500Y418000D01*
X240000Y160000D02*
X241000Y158500D01*
X241500Y429000D02*
X257000Y439000D01*
X316500Y377500D02*
X322500Y403500D01*
X237500Y179000D02*
X240000Y160000D01*
X320500Y197500D02*
X327500Y198500D01*
X467500Y198000D02*
X476000Y215500D01*
X438500Y188000D02*
X450000Y184000D01*
X333000Y368000D02*
X337000Y384500D01*
X302000Y319500D02*
X303500Y306000D01*
X364000Y246500D02*
Y252000D01*
X421500Y295000D02*
X425000D01*
X335000Y361500D02*
X337500Y359500D01*
X202500Y316500D02*
Y318000D01*
X578500Y450000D02*
X580500Y449000D01*
X368500Y209000D02*
X369500Y203500D01*
X338500Y350500D02*
Y358000D01*
X438500Y419500D02*
X442500Y437500D01*
X357500Y461500D02*
X376500Y466000D01*
X235000Y199500D02*
X237500Y179000D01*
X550500Y359500D02*
X558500Y360000D01*
X206500Y334500D02*
X213500Y363000D01*
X369500Y203500D02*
X371000Y202500D01*
X202500Y318000D02*
X206500Y334500D01*
X320000Y457500D02*
X334000D01*
X447000Y465500D02*
X449000Y464000D01*
X361000Y249500D02*
X362000Y252000D01*
X300500Y337500D02*
X302000Y319500D01*
X364000Y246500D02*
X365500Y237000D01*
X229000Y239500D02*
X231000Y222000D01*
X418500Y321500D02*
X421500Y299500D01*
X343000Y213000D02*
X348000Y221500D01*
X351000Y439500D02*
X357500Y461500D01*
X305500Y280000D02*
Y283000D01*
X327500Y198500D02*
X337500Y201000D01*
X442500Y437500D02*
X448500Y462500D01*
X317500Y300000D02*
X326500Y320500D01*
X434000Y398500D02*
X438500Y419500D01*
X300500Y347500D02*
X303000Y353500D01*
X307000Y279000D02*
X308500Y279500D01*
X202500Y316500D02*
X203000Y316000D01*
X337000Y384500D02*
X345000Y415500D01*
X309500Y281000D02*
X311500Y286500D01*
X371000Y202500D02*
X387000Y202000D01*
X348000Y221500D02*
X354500Y235000D01*
X546500Y357000D02*
X550500Y359500D01*
X332500Y362000D02*
Y363000D01*
X305500Y280000D02*
X306000Y279000D01*
X216000Y314000D02*
X219000Y308000D01*
X438000Y467000D02*
X447000Y465500D01*
X306000Y279000D02*
X307000D01*
X326500Y320500D02*
X333000Y336500D01*
D40*
X435933Y459693D02*
D03*
Y453000D02*
D03*
Y446307D02*
D03*
X415067D02*
D03*
Y453000D02*
D03*
Y459693D02*
D03*
X403933D02*
D03*
Y453000D02*
D03*
Y446307D02*
D03*
X383067D02*
D03*
Y453000D02*
D03*
Y459693D02*
D03*
X316433Y272693D02*
D03*
Y266000D02*
D03*
Y259307D02*
D03*
X295567D02*
D03*
Y266000D02*
D03*
Y272693D02*
D03*
X356067Y258307D02*
D03*
Y265000D02*
D03*
Y271693D02*
D03*
X376933D02*
D03*
Y265000D02*
D03*
Y258307D02*
D03*
X501933Y460693D02*
D03*
Y454000D02*
D03*
Y447307D02*
D03*
X481067D02*
D03*
Y454000D02*
D03*
Y460693D02*
D03*
X435433Y286693D02*
D03*
Y280000D02*
D03*
Y273307D02*
D03*
X414567D02*
D03*
Y280000D02*
D03*
Y286693D02*
D03*
D41*
X360720Y451437D02*
D03*
X367312Y450275D02*
D03*
X373903Y449112D02*
D03*
X370280Y428563D02*
D03*
X363688Y429725D02*
D03*
X357097Y430888D02*
D03*
X352220Y420437D02*
D03*
X358812Y419275D02*
D03*
X365403Y418112D02*
D03*
X361780Y397563D02*
D03*
X355188Y398725D02*
D03*
X348597Y399888D02*
D03*
X344220Y388937D02*
D03*
X350812Y387775D02*
D03*
X357403Y386612D02*
D03*
X353780Y366063D02*
D03*
X347188Y367225D02*
D03*
X340597Y368388D02*
D03*
X225941Y391373D02*
D03*
X232532Y390211D02*
D03*
X239123Y389049D02*
D03*
X235500Y368500D02*
D03*
X228909Y369662D02*
D03*
X222318Y370824D02*
D03*
X220220Y356937D02*
D03*
X226812Y355775D02*
D03*
X233403Y354612D02*
D03*
X229780Y334063D02*
D03*
X223188Y335225D02*
D03*
X216597Y336388D02*
D03*
X421780Y376563D02*
D03*
X415188Y377725D02*
D03*
X408597Y378888D02*
D03*
X412220Y399437D02*
D03*
X418812Y398275D02*
D03*
X425403Y397112D02*
D03*
X430780Y412063D02*
D03*
X424188Y413225D02*
D03*
X417597Y414388D02*
D03*
X421220Y434937D02*
D03*
X427812Y433775D02*
D03*
X434403Y432612D02*
D03*
D42*
X343779Y345093D02*
D03*
X350068Y342804D02*
D03*
X356358Y340515D02*
D03*
X349221Y320907D02*
D03*
X342932Y323196D02*
D03*
X336642Y325485D02*
D03*
X551721Y367907D02*
D03*
X545432Y370196D02*
D03*
X539142Y372485D02*
D03*
X546279Y392093D02*
D03*
X552568Y389804D02*
D03*
X558858Y387515D02*
D03*
X560221Y401407D02*
D03*
X553932Y403696D02*
D03*
X547642Y405985D02*
D03*
X554779Y425593D02*
D03*
X561068Y423304D02*
D03*
X567358Y421015D02*
D03*
D43*
X328843Y305784D02*
D03*
X334909Y302956D02*
D03*
X340975Y300127D02*
D03*
X332157Y281216D02*
D03*
X326091Y284044D02*
D03*
X320025Y286873D02*
D03*
X341657Y226716D02*
D03*
X335591Y229544D02*
D03*
X329525Y232373D02*
D03*
X338343Y251284D02*
D03*
X344409Y248456D02*
D03*
X350475Y245627D02*
D03*
X468157Y215216D02*
D03*
X462091Y218044D02*
D03*
X456025Y220873D02*
D03*
X464843Y239784D02*
D03*
X470909Y236956D02*
D03*
X476975Y234127D02*
D03*
X483157Y246716D02*
D03*
X477091Y249544D02*
D03*
X471025Y252373D02*
D03*
X479843Y271284D02*
D03*
X485909Y268456D02*
D03*
X491975Y265627D02*
D03*
X498157Y277216D02*
D03*
X492091Y280044D02*
D03*
X486025Y282873D02*
D03*
X494843Y301784D02*
D03*
X500909Y298956D02*
D03*
X506975Y296127D02*
D03*
X514157Y308716D02*
D03*
X508091Y311544D02*
D03*
X502025Y314373D02*
D03*
X510843Y333284D02*
D03*
X516909Y330456D02*
D03*
X522975Y327627D02*
D03*
X529157Y339216D02*
D03*
X523091Y342044D02*
D03*
X517025Y344873D02*
D03*
X525843Y363784D02*
D03*
X531909Y360956D02*
D03*
X537975Y358127D02*
D03*
X445343Y321284D02*
D03*
X451409Y318456D02*
D03*
X457475Y315627D02*
D03*
X448657Y296716D02*
D03*
X442591Y299544D02*
D03*
X436525Y302373D02*
D03*
D44*
X298077Y288690D02*
D03*
X291409Y288107D02*
D03*
X284742Y287523D02*
D03*
X282923Y308310D02*
D03*
X289591Y308893D02*
D03*
X296258Y309477D02*
D03*
D45*
X293258Y332023D02*
D03*
X286591Y332607D02*
D03*
X279923Y333190D02*
D03*
X281742Y353977D02*
D03*
X288409Y353393D02*
D03*
X295077Y352810D02*
D03*
D46*
X305765Y370690D02*
D03*
X299300Y372422D02*
D03*
X292835Y374155D02*
D03*
X298235Y394310D02*
D03*
X304700Y392578D02*
D03*
X311165Y390845D02*
D03*
X314265Y403190D02*
D03*
X307800Y404922D02*
D03*
X301335Y406655D02*
D03*
X306735Y426810D02*
D03*
X313200Y425078D02*
D03*
X319665Y423345D02*
D03*
X471735Y437310D02*
D03*
X478200Y435578D02*
D03*
X484665Y433845D02*
D03*
X479265Y413690D02*
D03*
X472800Y415422D02*
D03*
X466335Y417155D02*
D03*
X461735Y399310D02*
D03*
X468200Y397578D02*
D03*
X474665Y395845D02*
D03*
X469265Y375690D02*
D03*
X462800Y377422D02*
D03*
X456335Y379155D02*
D03*
X460235Y356810D02*
D03*
X466700Y355078D02*
D03*
X473165Y353345D02*
D03*
X467765Y333190D02*
D03*
X461300Y334922D02*
D03*
X454835Y336655D02*
D03*
D47*
X319112Y450903D02*
D03*
X320275Y444312D02*
D03*
X321437Y437720D02*
D03*
X300888Y434097D02*
D03*
X299725Y440688D02*
D03*
X298563Y447280D02*
D03*
D48*
X284127Y443975D02*
D03*
X286956Y437909D02*
D03*
X289784Y431843D02*
D03*
X270873Y423025D02*
D03*
X268044Y429091D02*
D03*
X265216Y435157D02*
D03*
X275373Y188025D02*
D03*
X272544Y194091D02*
D03*
X269716Y200157D02*
D03*
X288627Y208975D02*
D03*
X291456Y202909D02*
D03*
X294284Y196843D02*
D03*
D49*
X250690Y427333D02*
D03*
X254992Y422206D02*
D03*
X259294Y417079D02*
D03*
X243310Y403667D02*
D03*
X239008Y408794D02*
D03*
X234706Y413921D02*
D03*
D50*
X222835Y318845D02*
D03*
X229300Y320578D02*
D03*
X235765Y322310D02*
D03*
X241165Y302155D02*
D03*
X234700Y300422D02*
D03*
X228235Y298690D02*
D03*
D51*
X230500Y280500D02*
D03*
X237091Y281662D02*
D03*
X243683Y282824D02*
D03*
X247306Y262275D02*
D03*
X240715Y261113D02*
D03*
X234123Y259951D02*
D03*
X236000Y241500D02*
D03*
X242591Y242662D02*
D03*
X249183Y243824D02*
D03*
X252806Y223275D02*
D03*
X246215Y222113D02*
D03*
X239623Y220951D02*
D03*
X243097Y200112D02*
D03*
X249688Y201275D02*
D03*
X256280Y202437D02*
D03*
X259903Y181888D02*
D03*
X253312Y180725D02*
D03*
X246720Y179563D02*
D03*
X372097Y242112D02*
D03*
X378688Y243275D02*
D03*
X385280Y244437D02*
D03*
X388903Y223888D02*
D03*
X382312Y222725D02*
D03*
X375720Y221563D02*
D03*
X414403Y302888D02*
D03*
X407812Y301725D02*
D03*
X401220Y300563D02*
D03*
X397597Y321112D02*
D03*
X404188Y322275D02*
D03*
X410780Y323437D02*
D03*
D52*
X307809Y201170D02*
D03*
X306077Y207635D02*
D03*
X304345Y214099D02*
D03*
X324500Y219500D02*
D03*
X326232Y213035D02*
D03*
X327964Y206570D02*
D03*
D53*
X399063Y207720D02*
D03*
X400225Y214312D02*
D03*
X401388Y220903D02*
D03*
X421937Y217280D02*
D03*
X420775Y210688D02*
D03*
X419612Y204097D02*
D03*
X536437Y456280D02*
D03*
X535275Y449688D02*
D03*
X534112Y443097D02*
D03*
X513563Y446720D02*
D03*
X514725Y453312D02*
D03*
X515888Y459903D02*
D03*
D54*
X434907Y198279D02*
D03*
X437196Y204568D02*
D03*
X439485Y210858D02*
D03*
X459093Y203721D02*
D03*
X456804Y197432D02*
D03*
X454515Y191142D02*
D03*
X571093Y445721D02*
D03*
X568804Y439432D02*
D03*
X566515Y433142D02*
D03*
X546907Y440279D02*
D03*
X549196Y446568D02*
D03*
X551485Y452858D02*
D03*
D55*
X409193Y340000D02*
D03*
X402500D02*
D03*
X395807D02*
D03*
Y360866D02*
D03*
X402500D02*
D03*
X409193D02*
D03*
D56*
X407154Y437000D02*
D03*
X413846D02*
D03*
X390154Y437500D02*
D03*
X396846D02*
D03*
X302807Y251500D02*
D03*
X309500D02*
D03*
X279807Y364500D02*
D03*
X286500D02*
D03*
X282500Y386500D02*
D03*
X289193D02*
D03*
X371000Y284500D02*
D03*
X364307D02*
D03*
X444193Y222000D02*
D03*
X437500D02*
D03*
X497654Y436000D02*
D03*
X504346D02*
D03*
X422154Y265500D02*
D03*
X428846D02*
D03*
D57*
X380000Y429307D02*
D03*
Y436000D02*
D03*
X277500Y299846D02*
D03*
Y293154D02*
D03*
X292000Y409346D02*
D03*
Y402654D02*
D03*
X297000Y425346D02*
D03*
Y418654D02*
D03*
X282500Y412500D02*
D03*
Y419193D02*
D03*
X247500Y372654D02*
D03*
Y379346D02*
D03*
X240500Y339654D02*
D03*
Y346346D02*
D03*
X254500Y271654D02*
D03*
Y278346D02*
D03*
X386500Y351846D02*
D03*
Y345154D02*
D03*
X402500Y393846D02*
D03*
Y387154D02*
D03*
X409500Y426846D02*
D03*
Y420154D02*
D03*
D58*
X372919Y404551D02*
D03*
X374081Y411142D02*
D03*
X364919Y370704D02*
D03*
X366081Y377296D02*
D03*
D59*
X361355Y324355D02*
D03*
X363645Y330645D02*
D03*
X534645Y389145D02*
D03*
X532355Y382855D02*
D03*
X541145Y419145D02*
D03*
X538856Y412855D02*
D03*
D60*
X343586Y284467D02*
D03*
X346414Y290533D02*
D03*
X327914Y247533D02*
D03*
X325086Y241467D02*
D03*
X499414Y332033D02*
D03*
X496586Y325967D02*
D03*
X514414Y365533D02*
D03*
X511586Y359467D02*
D03*
X459452Y297833D02*
D03*
X462281Y303899D02*
D03*
X452914Y238879D02*
D03*
X450086Y232814D02*
D03*
X465414Y269879D02*
D03*
X462586Y263813D02*
D03*
X481414Y299186D02*
D03*
X478586Y293121D02*
D03*
D61*
X253134Y402134D02*
D03*
X257866Y406866D02*
D03*
D62*
X244211Y317289D02*
D03*
X246500Y311000D02*
D03*
D63*
X264081Y235704D02*
D03*
X262919Y242296D02*
D03*
X264081Y207204D02*
D03*
X262919Y213796D02*
D03*
X395581Y233204D02*
D03*
X394419Y239796D02*
D03*
X390419Y312796D02*
D03*
X391581Y306204D02*
D03*
D64*
X282899Y215281D02*
D03*
X276833Y212452D02*
D03*
D65*
X315099Y228732D02*
D03*
X308634Y227000D02*
D03*
D66*
X416142Y229419D02*
D03*
X409551Y230581D02*
D03*
X517358Y434581D02*
D03*
X523949Y433419D02*
D03*
D67*
X539355Y430645D02*
D03*
X545645Y428356D02*
D03*
D68*
X489634Y415768D02*
D03*
X491366Y422232D02*
D03*
X481134Y376268D02*
D03*
X482866Y382732D02*
D03*
X479134Y333268D02*
D03*
X480866Y339732D02*
D03*
D69*
X288500Y240000D02*
D03*
X267500Y398000D02*
D03*
X425500Y240000D02*
D03*
X514000Y411000D02*
D03*
X392500Y421000D02*
D03*
D70*
X270700Y311400D02*
D03*
D71*
X260700D02*
D03*
X268700Y321400D02*
D03*
X258700D02*
D03*
X270700Y331400D02*
D03*
X260700D02*
D03*
X268700Y341400D02*
D03*
X258700D02*
D03*
X270700Y351400D02*
D03*
X260700D02*
D03*
D72*
X416100Y255600D02*
D03*
X385700Y304500D02*
D03*
X387400Y311500D02*
D03*
X378400Y310637D02*
D03*
X387200Y282600D02*
D03*
X395200Y283800D02*
D03*
X405200Y271600D02*
D03*
X360800Y292200D02*
D03*
X392100Y306100D02*
D03*
X381600Y295000D02*
D03*
X395300Y274000D02*
D03*
X399300Y274700D02*
D03*
X392000Y270900D02*
D03*
X370000Y289700D02*
D03*
X350100Y296700D02*
D03*
X351600Y309600D02*
D03*
X384900Y298100D02*
D03*
X355700Y306300D02*
D03*
X371200Y276500D02*
D03*
X395400Y262600D02*
D03*
X392500Y317300D02*
D03*
X399400Y331800D02*
D03*
X384500Y338898D02*
D03*
X381400Y336100D02*
D03*
X385281Y330049D02*
D03*
X432600Y231500D02*
D03*
X429600Y228700D02*
D03*
X422400Y223400D02*
D03*
X440700Y232600D02*
D03*
X444100Y226700D02*
D03*
X444300Y239200D02*
D03*
X446750Y214700D02*
D03*
X454200Y213300D02*
D03*
X454130Y227352D02*
D03*
X449820Y217400D02*
D03*
X417700Y441600D02*
D03*
X402500Y441400D02*
D03*
X338400Y279800D02*
D03*
X340100Y292600D02*
D03*
X355000Y297300D02*
D03*
X378505Y354306D02*
D03*
X392209Y352791D02*
D03*
X377000Y347600D02*
D03*
X421988Y282083D02*
D03*
X428000Y288300D02*
D03*
X446625Y207378D02*
D03*
X450000Y210000D02*
D03*
X460000Y207900D02*
D03*
X454400Y286300D02*
D03*
X358200Y276400D02*
D03*
X443400Y193800D02*
D03*
X437400Y227900D02*
D03*
X466400Y228500D02*
D03*
X438000Y256100D02*
D03*
X441100Y258800D02*
D03*
X401953Y226239D02*
D03*
X405200Y236900D02*
D03*
X423900Y426800D02*
D03*
X423800Y445000D02*
D03*
X430700Y422000D02*
D03*
X314600Y435200D02*
D03*
X289700Y414500D02*
D03*
X557600Y413900D02*
D03*
X563500Y448200D02*
D03*
X558700Y439600D02*
D03*
X561400Y411700D02*
D03*
X434200Y266500D02*
D03*
X432300Y275300D02*
D03*
Y293300D02*
D03*
X455500Y270900D02*
D03*
X416100Y262300D02*
D03*
X369500Y257700D02*
D03*
X369000Y268500D02*
D03*
X328900Y256800D02*
D03*
X328632Y265506D02*
D03*
X497700Y441600D02*
D03*
X478800Y443400D02*
D03*
X286200Y406400D02*
D03*
X269700Y208400D02*
D03*
X260700Y186944D02*
D03*
X554100Y379400D02*
D03*
X543170Y362130D02*
D03*
X491300Y460200D02*
D03*
X473100Y444700D02*
D03*
X427100Y459200D02*
D03*
X393200Y452800D02*
D03*
X366400Y442900D02*
D03*
X344700Y379200D02*
D03*
X345500Y352100D02*
D03*
X321600Y431400D02*
D03*
X311400Y449300D02*
D03*
X248300Y170700D02*
D03*
X268900Y185400D02*
D03*
D73*
X383000Y279700D02*
D03*
X364900Y278000D02*
D03*
X416200Y267300D02*
D03*
X332543Y291765D02*
D03*
X377500Y368800D02*
D03*
X459800Y233000D02*
D03*
X454900Y293800D02*
D03*
X357907Y320907D02*
D03*
X415800Y222100D02*
D03*
X388700Y232300D02*
D03*
X472600Y268000D02*
D03*
X502600Y337700D02*
D03*
X518500Y369700D02*
D03*
X542300Y385203D02*
D03*
X549800Y418400D02*
D03*
X543000Y435600D02*
D03*
X520200Y445000D02*
D03*
X486500Y410700D02*
D03*
X475700Y372300D02*
D03*
X473600Y328600D02*
D03*
X488800Y298450D02*
D03*
X409900Y392200D02*
D03*
X401900Y429860D02*
D03*
X391400Y444600D02*
D03*
X376400Y423800D02*
D03*
X364700Y404900D02*
D03*
X356000Y373200D02*
D03*
X237700Y375400D02*
D03*
X231700Y341536D02*
D03*
X250447Y407800D02*
D03*
X276200Y356600D02*
D03*
X283800Y392900D02*
D03*
X274800Y414376D02*
D03*
X302300Y429200D02*
D03*
X295100Y251400D02*
D03*
X334800Y241900D02*
D03*
X315300Y220259D02*
D03*
X289000Y217600D02*
D03*
X261100Y228900D02*
D03*
X277600Y306200D02*
D03*
X237000Y312100D02*
D03*
X246332Y271500D02*
D03*
M02*
